SplineFontDB: 3.0
FontName: Jinko-Bold
FullName: Jinko Bold
FamilyName: Jinko
Weight: Bold
Copyright: 
Version: 0.1
FONDName: Kinjo
ItalicAngle: 0
UnderlinePosition: -205
UnderlineWidth: 102
Ascent: 1638
Descent: 410
UFOAscent: 1521
UFODescent: -414
LayerCount: 2
Layer: 0 0 "Back"  1
Layer: 1 0 "Fore"  0
FSType: 0
OS2Version: 0
OS2_WeightWidthSlopeOnly: 0
OS2_UseTypoMetrics: 0
CreationTime: 1328124881
ModificationTime: 1328204868
PfmFamily: 0
TTFWeight: 700
TTFWidth: 5
LineGap: 26
VLineGap: 0
Panose: 2 0 5 3 2 0 0 2 0 4
OS2TypoAscent: 1522
OS2TypoAOffset: 0
OS2TypoDescent: -414
OS2TypoDOffset: 0
OS2TypoLinegap: 106
OS2WinAscent: 1972
OS2WinAOffset: 0
OS2WinDescent: -1120
OS2WinDOffset: 0
HheadAscent: 1972
HheadAOffset: 0
HheadDescent: -547
HheadDOffset: 0
OS2SubXSize: 1331
OS2SubYSize: 1229
OS2SubXOff: 0
OS2SubYOff: 154
OS2SupXSize: 1331
OS2SupYSize: 1229
OS2SupXOff: 0
OS2SupYOff: 717
OS2StrikeYSize: 102
OS2StrikeYPos: 512
OS2Vendor: 'newt'
OS2CodePages: 00000001.00000000
OS2UnicodeRanges: 800000af.5000204a.00000000.00000000
Lookup: 258 0 0 "'kern' Horizontal Kerning lookup 0"  {"'kern' Horizontal Kerning lookup 0 subtable"  } ['kern' ('DFLT' <'dflt' > ) ]
Lookup: 258 0 0 "'kern' Horizontal Kerning in Latin lookup 0"  {"'kern' Horizontal Kerning in Latin lookup 0 subtable"  } ['kern' ('latn' <'dflt' > ) ]
MarkAttachClasses: 1
DEI: 91125
LangName: 1033 "" "" "" "newt: Jinko Bold: " "" "" "" "" "" "" "" "" "" "" "" "" "" "" "Jinko Bold" 
PickledData: "(dp1
S'org.robofab.glyphOrder'
p2
(S'.notdef'
S'space'
S'exclam'
S'quotedbl'
S'numbersign'
S'dollar'
S'percent'
S'ampersand'
S'quoteright'
S'parenleft'
S'parenright'
S'asterisk'
S'plus'
S'comma'
S'hyphen'
S'period'
S'slash'
S'zero'
S'one'
S'two'
S'three'
S'four'
S'five'
S'six'
S'seven'
S'eight'
S'nine'
S'colon'
S'semicolon'
S'less'
S'equal'
S'greater'
S'question'
S'at'
S'A'
S'B'
S'C'
S'D'
S'E'
S'F'
S'G'
S'H'
S'I'
S'J'
S'K'
S'L'
S'M'
S'N'
S'O'
S'P'
S'Q'
S'R'
S'S'
S'T'
S'U'
S'V'
S'W'
S'X'
S'Y'
S'Z'
S'bracketleft'

StartChar: .notdef
Encoding: 65536 -1 0
Width: 1828
VWidth: 0
Flags: W
HStem: 625 184<420 604>
VStem: 451 122<656 778>
DStem2: 164 1331 102 1239 0.5547 -0.83205<42.1572 627.366 780.463 1365.67> 102 195 164 102 0.5547 0.83205<0 585.209 738.306 1323.51>
LayerCount: 2
Fore
SplineSet
0 0 m 1
 1024 0 l 1
 1024 1434 l 1
 0 1434 l 1
 0 0 l 1
512 809 m 1
 164 1331 l 1
 860 1331 l 1
 512 809 l 1
573 717 m 1
 922 1239 l 1
 922 195 l 1
 573 717 l 1
164 102 m 1
 512 625 l 1
 860 102 l 1
 164 102 l 1
102 1239 m 1
 451 717 l 1
 102 195 l 1
 102 1239 l 1
EndSplineSet
EndChar

StartChar: A
Encoding: 65 65 1
Width: 1404
VWidth: 0
Flags: W
DStem2: -13 0 376 0 0.33282 0.94299<129.467 425.011 708.519 1048.03> 1417 0 1021 0 0.333387 -0.94279<-1044.93 -710.727 -427.226 -132.021>
LayerCount: 2
Fore
SplineSet
849 553 m 5
 549 553 l 5
 698 1030 l 5
 699 1030 l 5
 849 553 l 5
-13 0 m 5
 376 0 l 5
 465 282 l 5
 933 282 l 5
 1021 0 l 5
 1417 0 l 5
 894 1479 l 5
 509 1479 l 5
 -13 0 l 5
EndSplineSet
EndChar

StartChar: AE
Encoding: 198 198 2
Width: 2052
VWidth: 0
Flags: HW
DStem2: -30 0 366 0 0.399225 0.916853<158.093 522.166 824.396 1466.06>
LayerCount: 2
Fore
SplineSet
926 617 m 1
 618 617 l 1
 868 1208 l 1
 926 1208 l 1
 926 617 l 1
1968 0 m 1
 1968 286 l 1
 1310 286 l 1
 1310 635 l 1
 1884 635 l 1
 1884 917 l 1
 1310 917 l 1
 1310 1193 l 1
 1969 1193 l 1
 1969 1479 l 1
 614 1479 l 1
 -30 0 l 1
 366 0 l 1
 504 337 l 1
 926 337 l 1
 926 0 l 1
 1968 0 l 1
EndSplineSet
EndChar

StartChar: Aacute
Encoding: 193 193 3
Width: 1404
VWidth: 0
Flags: HW
DStem2: -13 0 376 0 0.33282 0.94299<129.467 425.011 708.519 1205.14> 1417 0 1021 0 0.333387 -0.94279<-955.465 -710.727 -427.226 -132.021>
LayerCount: 2
Fore
SplineSet
1011 1967 m 1
 660 1967 l 1
 446 1601 l 1
 695 1601 l 1
 1011 1967 l 1
849 553 m 1
 549 553 l 1
 582 655 611 758 644 861 c 2
 698 1030 l 1
 699 1030 l 1
 751.212 873.212 799.593 712.593 849 553 c 1
-13 0 m 1
 376 0 l 1
 465 282 l 1
 933 282 l 1
 1021 0 l 1
 1417 0 l 1
 894 1479 l 1
 509 1479 l 1
 -13 0 l 1
EndSplineSet
EndChar

StartChar: Acircumflex
Encoding: 194 194 4
Width: 1404
VWidth: 0
Flags: HW
DStem2: -13 0 376 0 0.33282 0.94299<129.467 425.011 708.519 1205.14> 1417 0 1021 0 0.333387 -0.94279<-955.465 -710.727 -427.226 -132.021>
LayerCount: 2
Fore
SplineSet
1132 1603 m 1
 827 1967 l 1
 575 1967 l 1
 270 1603 l 1
 544 1603 l 1
 700 1791 l 1
 855 1603 l 1
 1132 1603 l 1
849 553 m 1
 549 553 l 1
 582 655 611 758 644 861 c 2
 698 1030 l 1
 699 1030 l 1
 751.212 873.212 799.593 712.593 849 553 c 1
-13 0 m 1
 376 0 l 1
 465 282 l 1
 933 282 l 1
 1021 0 l 1
 1417 0 l 1
 894 1479 l 1
 509 1479 l 1
 -13 0 l 1
EndSplineSet
EndChar

StartChar: Adieresis
Encoding: 196 196 5
Width: 1404
VWidth: 0
Flags: HW
DStem2: -13 0 376 0 0.33282 0.94299<129.467 425.011 708.519 1205.14> 1417 0 1021 0 0.333387 -0.94279<-955.465 -710.727 -427.226 -132.021>
LayerCount: 2
Fore
SplineSet
613 1608 m 1
 613 1701 613 1794 614 1887 c 1
 582 1886 551 1886 519 1886 c 2
 494 1886 l 2
 434 1886 376 1887 314 1889 c 1
 314 1608 l 1
 354 1611 392 1611 430 1611 c 0
 491 1611 551 1609 613 1608 c 1
1090 1608 m 1
 1090 1701 1090 1794 1091 1887 c 1
 1039 1886 990 1886 938 1886 c 0
 890 1886 842 1887 790 1889 c 1
 790 1608 l 1
 842 1610 890 1611 939 1611 c 0
 989 1611 1038 1610 1090 1608 c 1
849 553 m 1
 549 553 l 1
 582 655 611 758 644 861 c 2
 698 1030 l 1
 699 1030 l 1
 751.212 873.212 799.593 712.593 849 553 c 1
-13 0 m 1
 376 0 l 1
 465 282 l 1
 933 282 l 1
 1021 0 l 1
 1417 0 l 1
 894 1479 l 1
 509 1479 l 1
 -13 0 l 1
EndSplineSet
EndChar

StartChar: Agrave
Encoding: 192 192 6
Width: 1404
VWidth: 0
Flags: HW
DStem2: -13 0 376 0 0.33282 0.94299<129.467 425.011 708.519 1205.14> 1417 0 1021 0 0.333387 -0.94279<-955.465 -710.727 -427.226 -132.021>
LayerCount: 2
Fore
SplineSet
922 1607 m 1
 706 1973 l 1
 356 1973 l 1
 672 1607 l 1
 922 1607 l 1
849 553 m 1
 549 553 l 1
 582 655 611 758 644 861 c 2
 698 1030 l 1
 699 1030 l 1
 751.212 873.212 799.593 712.593 849 553 c 1
-13 0 m 1
 376 0 l 1
 465 282 l 1
 933 282 l 1
 1021 0 l 1
 1417 0 l 1
 894 1479 l 1
 509 1479 l 1
 -13 0 l 1
EndSplineSet
EndChar

StartChar: Aring
Encoding: 197 197 7
Width: 1404
VWidth: 0
Flags: HW
HStem: 1443 36<549 854> 1829 134<612.472 792.151>
VStem: 429 152<1604.61 1799.96> 823 152<1604.23 1800.27>
DStem2: -13 0 376 0 0.33282 0.94299<129.467 425.011 708.519 1205.14> 1417 0 1021 0 0.333387 -0.94279<-955.465 -710.727 -427.226 -132.021>
LayerCount: 2
Fore
SplineSet
823 1702 m 0
 823 1633 772 1576 703 1576 c 0
 631 1576 581 1630 581 1702 c 0
 581 1774 634 1829 703 1829 c 0
 772 1829 823 1770 823 1702 c 0
975 1702 m 0
 975 1850 853 1963 702 1963 c 0
 552 1963 429 1849 429 1703 c 0
 429 1558 549 1443 703 1443 c 0
 854 1443 975 1555 975 1702 c 0
849 553 m 1
 549 553 l 1
 582 655 611 758 644 861 c 2
 698 1030 l 1
 699 1030 l 1
 751.212 873.212 799.593 712.593 849 553 c 1
-13 0 m 1
 376 0 l 1
 465 282 l 1
 933 282 l 1
 1021 0 l 1
 1417 0 l 1
 894 1479 l 1
 509 1479 l 1
 -13 0 l 1
EndSplineSet
EndChar

StartChar: Atilde
Encoding: 195 195 8
Width: 1404
VWidth: 0
Flags: HW
HStem: 1614 199<705.244 914.585>
VStem: 927 212<1826.17 1910>
DStem2: -13 0 376 0 0.33282 0.94299<129.467 425.011 708.519 1205.14> 1417 0 1021 0 0.333387 -0.94279<-955.465 -710.727 -427.226 -132.021>
LayerCount: 2
Fore
SplineSet
1139 1910 m 1
 927 1910 l 1
 921 1842 893 1813 836 1813 c 0
 811 1813 763 1837 728 1849 c 0
 672 1869 616 1901 549 1901 c 0
 380 1901 273 1777 261 1605 c 1
 471 1605 l 1
 475 1657 485 1686 533 1690 c 1
 560 1700 589 1696 616 1685 c 1
 643 1678 672 1664 702 1651 c 1
 746 1634 796 1614 852 1614 c 0
 1029 1614 1122 1717 1139 1910 c 1
849 553 m 1
 549 553 l 1
 582 655 611 758 644 861 c 2
 698 1030 l 1
 699 1030 l 1
 751.212 873.212 799.593 712.593 849 553 c 1
-13 0 m 1
 376 0 l 1
 465 282 l 1
 933 282 l 1
 1021 0 l 1
 1417 0 l 1
 894 1479 l 1
 509 1479 l 1
 -13 0 l 1
EndSplineSet
EndChar

StartChar: B
Encoding: 66 66 9
Width: 1408
VWidth: 0
Flags: W
HStem: 0 277<714 886.92> 627 257<579 839.881> 1206 273<555 842.08>
VStem: 890 388<938.22 1160.54> 953 394<340.952 574.04>
LayerCount: 2
Fore
SplineSet
890 1048 m 0xf0
 890 906 800 884 579 884 c 2
 530 884 l 1
 530 1206 l 1
 591 1206 l 2
 799.119 1206 890 1184 890 1048 c 0xf0
953 454 m 0xe8
 953 329 849 277 714 277 c 2
 530 277 l 1
 530 627 l 1
 597 627 l 2
 786.527 627 953 635.829 953 454 c 0xe8
1347 441 m 0
 1347 623 1235 748 1061 785 c 1
 1061 792 l 1
 1211 851 1278 977 1278 1113 c 0xf0
 1278 1465.85 1007.62 1479 555 1479 c 6
 147 1479 l 1
 147 0 l 1
 750 0 l 2
 1086.44 0 1347 117.867 1347 441 c 0
EndSplineSet
EndChar

StartChar: C
Encoding: 67 67 10
Width: 1325
VWidth: 0
Flags: W
HStem: -26 285.652<657.754 1079.44> 1213.43 285.59<660.728 1079.1>
VStem: 70 394<468.852 992.331>
LayerCount: 2
Back
SplineSet
463 745 m 4
 463 1048.60979593 577.400292666 1209.9296875 874.498046875 1209.9296875 c 4
 1089.5675069 1209.9296875 1272.31082094 1077.0124009 1271 1075 c 6
 1346 1353 l 5
 1197.12374332 1443 1075.5 1503 805 1503 c 4
 323.053631285 1503 69 1233.78 69 741 c 4
 69 269.3950164 320.374562546 -22.8427734375 808.271484375 -22.8427734375 c 4
 1035.05753784 -22.8427734375 1276.2868236 54.3269140516 1351 141 c 5
 1351 831 l 5
 705 831 l 5
 705 549 l 5
 978 549 l 5
 978 289 l 5
 956.415997793 273.737920123 884.640990453 262.130859375 825.208984375 262.130859375 c 4
 571.49499532 262.130859375 463 435.057909736 463 745 c 4
EndSplineSet
Fore
SplineSet
863.193359375 259.65234375 m 0
 581.279869656 259.65234375 464 425.653438104 464 737 c 0
 464 1040.90255111 590.668019472 1213.4296875 858.557617188 1213.4296875 c 0
 1065.72837303 1213.4296875 1214 1096 1214 1096 c 1
 1289 1388 l 1
 1152.30928662 1458.39671659 1011.03874664 1499.01953125 822.521484375 1499.01953125 c 0
 311.694072519 1499.01953125 70 1231.05969673 70 740 c 0
 70 252.593 316.235259259 -26 816 -26 c 0
 1009.25027879 -26 1141.26933333 18.3333 1290 103 c 1
 1224 377 l 1
 1224 377 1053.34027039 259.65234375 863.193359375 259.65234375 c 0
EndSplineSet
EndChar

StartChar: Ccedilla
Encoding: 199 199 11
Width: 1325
VWidth: 0
Flags: HW
HStem: -463 105<420.975 682.293> -197 74<614 679.218> 1249 221<467.732 772.84>
VStem: 104 222<357.718 1100.28> 694 160<-342.74 -208.813>
LayerCount: 2
Fore
SplineSet
471 -180 m 1
 516 -219 l 1
 543 -203 567 -197 594 -197 c 0
 649 -197 694 -221 694 -272 c 0
 694 -334 645 -358 575 -358 c 0
 526 -358 477 -344 432 -328 c 1
 395 -414 l 1
 463 -440 539 -463 602 -463 c 0
 735 -463 854 -401 854 -270 c 0
 854 -186 786 -115 674 -115 c 0
 653 -115 631 -119 618 -123 c 1
 614 -123 l 1
 700 -8 l 1
 918 20 1085 164 1137 408 c 1
 903 408 l 1
 842 276 748 209 625 209 c 0
 520 209 444 258 399 315 c 0
 342 389 326 430 326 729 c 0
 326 1028 342 1069 399 1143 c 0
 444 1200 520 1249 625 1249 c 0
 764 1249 868 1151 903 1038 c 1
 1137 1038 l 1
 1092 1276 901 1470 625 1470 c 0
 395 1470 238 1335 168 1208 c 0
 121 1122 104 1079 104 729 c 0
 104 379 121 336 168 250 c 1
 236 129 381 0 594 -12 c 1
 471 -180 l 1
EndSplineSet
EndChar

StartChar: D
Encoding: 68 68 12
Width: 1513
VWidth: 0
Flags: W
HStem: 0 283<532 875.613> 1198 282<532 873.841>
VStem: 147 385<283 1198> 1053 392<462.964 997.123>
LayerCount: 2
Fore
SplineSet
1053 737 m 0
 1053 1052 932 1198 708 1198 c 2
 532 1198 l 1
 532 283 l 1
 645 283 l 2
 932.280929237 283 1053 397.996556231 1053 737 c 0
1445 738 m 0
 1445 182.306885156 1122.67421875 0 607 0 c 2
 147 0 l 1
 147 1480 l 1
 601 1480 l 2
 1126 1480 1445 1289.88933166 1445 738 c 0
EndSplineSet
EndChar

StartChar: Delta
Encoding: 8710 8710 13
Width: 1163
VWidth: 0
Flags: HW
LayerCount: 2
Fore
SplineSet
53 0 m 1
 1108 0 l 1
 1108 131 l 1
 702 1460 l 1
 471 1460 l 1
 53 127 l 1
 53 0 l 1
254 168 m 1
 479 858 l 1
 508 975 561 1122 578 1204 c 1
 584 1204 l 1
 602 1110 662 946 690 831 c 1
 901 168 l 1
 254 168 l 1
EndSplineSet
EndChar

StartChar: E
Encoding: 69 69 14
Width: 1262
VWidth: 0
Flags: W
LayerCount: 2
Fore
SplineSet
1179 0 m 1
 1179 286 l 1
 530 286 l 1
 530 635 l 1
 1094 635 l 1
 1094 917 l 1
 530 917 l 1
 530 1193 l 1
 1180 1193 l 1
 1180 1479 l 1
 147 1479 l 1
 147 0 l 1
 1179 0 l 1
EndSplineSet
EndChar

StartChar: Eacute
Encoding: 201 201 15
Width: 1262
VWidth: 0
Flags: HW
LayerCount: 2
Fore
SplineSet
963 1967 m 1
 612 1967 l 1
 397 1601 l 1
 647 1601 l 1
 963 1967 l 1
1179 0 m 1
 1179 286 l 1
 530 286 l 1
 530 635 l 1
 1094 635 l 1
 1094 917 l 1
 530 917 l 1
 530 1193 l 1
 1180 1193 l 1
 1180 1479 l 1
 147 1479 l 1
 147 0 l 1
 1179 0 l 1
EndSplineSet
EndChar

StartChar: Ecircumflex
Encoding: 202 202 16
Width: 1262
VWidth: 0
Flags: HW
LayerCount: 2
Fore
SplineSet
1084 1603 m 1
 779 1967 l 1
 527 1967 l 1
 222 1603 l 1
 496 1603 l 1
 652 1791 l 1
 807 1603 l 1
 1084 1603 l 1
1179 0 m 1
 1179 286 l 1
 530 286 l 1
 530 635 l 1
 1094 635 l 1
 1094 917 l 1
 530 917 l 1
 530 1193 l 1
 1180 1193 l 1
 1180 1479 l 1
 147 1479 l 1
 147 0 l 1
 1179 0 l 1
EndSplineSet
EndChar

StartChar: Edieresis
Encoding: 203 203 17
Width: 1262
VWidth: 0
Flags: HW
LayerCount: 2
Fore
SplineSet
564 1608 m 1
 564 1701 564 1794 565 1887 c 1
 533 1886 503 1886 470 1886 c 2
 445 1886 l 2
 386 1886 327 1887 265 1889 c 1
 265 1608 l 1
 306 1611 343 1611 382 1611 c 0
 442 1611 502 1609 564 1608 c 1
1042 1608 m 1
 1042 1701 1042 1794 1042 1887 c 1
 991 1886 942 1886 889 1886 c 0
 842 1886 793 1887 741 1889 c 1
 741 1608 l 1
 793 1610 842 1611 890 1611 c 0
 940 1611 990 1610 1042 1608 c 1
1179 0 m 1
 1179 286 l 1
 530 286 l 1
 530 635 l 1
 1094 635 l 1
 1094 917 l 1
 530 917 l 1
 530 1193 l 1
 1180 1193 l 1
 1180 1479 l 1
 147 1479 l 1
 147 0 l 1
 1179 0 l 1
EndSplineSet
EndChar

StartChar: Egrave
Encoding: 200 200 18
Width: 1262
VWidth: 0
Flags: HW
LayerCount: 2
Fore
SplineSet
910 1601 m 1
 694 1967 l 1
 344 1967 l 1
 660 1601 l 1
 910 1601 l 1
1179 0 m 1
 1179 286 l 1
 530 286 l 1
 530 635 l 1
 1094 635 l 1
 1094 917 l 1
 530 917 l 1
 530 1193 l 1
 1180 1193 l 1
 1180 1479 l 1
 147 1479 l 1
 147 0 l 1
 1179 0 l 1
EndSplineSet
EndChar

StartChar: Eth
Encoding: 208 208 19
Width: 1290
VWidth: 0
Flags: HW
HStem: 0 209<639 816.647> 1249 209<639 817.264>
VStem: 965 221<355.294 1092.19>
LayerCount: 2
Fore
SplineSet
154 0 m 1
 649 0 l 2
 866 0 1018 106 1104 242 c 0
 1169 344 1186 401 1186 729 c 0
 1186 1034 1180 1090 1108 1212 c 0
 1014 1372 856 1458 664 1458 c 2
 154 1458 l 1
 154 834 l 1
 0 834 l 1
 0 637 l 1
 154 637 l 1
 154 0 l 1
375 834 m 1
 375 1249 l 1
 639 1249 l 2
 758 1249 831 1219 899 1126 c 0
 958 1047 965 983 965 721 c 0
 965 451 958 410 909 336 c 1
 852 252 764 209 639 209 c 2
 375 209 l 1
 375 637 l 1
 653 637 l 1
 653 834 l 1
 375 834 l 1
EndSplineSet
EndChar

StartChar: Euro
Encoding: 8364 8364 20
Width: 1244
VWidth: 0
Flags: HW
HStem: 1225 277<656.402 971.389>
LayerCount: 2
Fore
SplineSet
1175 60 m 1
 1175 381 l 1
 1148 367 1113 356 1062 356 c 1
 958 287 869 252 812 254 c 1
 671 263 584 329 530 468 c 1
 936 468 l 1
 978 665 l 1
 482 665 l 1
 479 690 479 714 479 740 c 0
 479 756 479 772 479 789 c 1
 1003 789 l 1
 1044 985 l 1
 520 985 l 1
 572 1147 666 1225 834 1225 c 0
 895 1225 968 1192 1062 1122 c 1
 1113 1122 1149 1110 1175 1096 c 1
 1175 1415 l 1
 1051 1465 908 1502 765 1502 c 0
 414 1502 187 1312 116 985 c 1
 18 985 l 1
 -25 789 l 1
 89 789 l 1
 89 773 89 756 89 740 c 0
 89 715 89 689 92 665 c 1
 18 665 l 1
 -25 468 l 1
 123 468 l 1
 206 127 432 -24 782 -24 c 1
 934 -14 1063 12 1175 60 c 1
EndSplineSet
EndChar

StartChar: F
Encoding: 70 70 21
Width: 1212
VWidth: 0
Flags: HW
LayerCount: 2
Fore
SplineSet
1178 1193 m 1
 1178 1479 l 1
 147 1479 l 1
 147 0 l 1
 530 0 l 1
 530 616 l 1
 1121 616 l 1
 1121 896 l 1
 530 896 l 1
 530 1193 l 1
 1178 1193 l 1
EndSplineSet
EndChar

StartChar: G
Encoding: 71 71 22
Width: 1472
VWidth: 0
Flags: W
HStem: -22.8428 284.974<637.553 973.366> 1209.93 293.07<656.744 1097.1>
VStem: 70 394<471.18 1000.6>
LayerCount: 2
Fore
SplineSet
464 745 m 4
 464 1048.60979593 578.400292666 1209.9296875 875.498046875 1209.9296875 c 4
 1090.5675069 1209.9296875 1273.31082094 1077.0124009 1272 1075 c 6
 1347 1353 l 5
 1198.12374332 1443 1076.5 1503 806 1503 c 4
 324.053631285 1503 70 1233.78 70 741 c 4
 70 269.3950164 321.374562546 -22.8427734375 809.271484375 -22.8427734375 c 4
 1036.05753784 -22.8427734375 1277.2868236 54.3269140516 1352 141 c 5
 1352 831 l 5
 706 831 l 5
 706 549 l 5
 979 549 l 5
 979 289 l 5
 957.416 273.738 885.641 262.131 826.209 262.131 c 4
 572.495 262.131 464 435.058 464 745 c 4
EndSplineSet
EndChar

StartChar: H
Encoding: 72 72 23
Width: 1550
VWidth: 0
Flags: HW
LayerCount: 2
Fore
SplineSet
1403 0 m 1
 1403 1479 l 1
 1018 1479 l 1
 1018 916 l 1
 532 916 l 1
 532 1479 l 1
 147 1479 l 1
 147 0 l 1
 532 0 l 1
 532 635 l 1
 1018 635 l 1
 1018 0 l 1
 1403 0 l 1
EndSplineSet
EndChar

StartChar: I
Encoding: 73 73 24
Width: 908
VWidth: 0
Flags: W
LayerCount: 2
Fore
SplineSet
799 0 m 1
 799 256 l 1
 646 256 l 1
 646 1222 l 1
 799 1222 l 1
 799 1479 l 1
 109 1479 l 1
 109 1222 l 1
 262 1222 l 1
 262 256 l 1
 109 256 l 1
 109 0 l 1
 799 0 l 1
EndSplineSet
EndChar

StartChar: Iacute
Encoding: 205 205 25
Width: 908
VWidth: 0
Flags: HW
LayerCount: 2
Fore
SplineSet
763 1967 m 1
 412 1967 l 1
 198 1601 l 1
 447 1601 l 1
 763 1967 l 1
799 0 m 1
 799 256 l 1
 646 319 l 1
 646 1129 l 1
 799 1192 l 1
 799 1479 l 1
 109 1479 l 1
 109 1222 l 1
 262 1160 l 1
 262 350 l 1
 109 287 l 1
 109 0 l 1
 799 0 l 1
EndSplineSet
EndChar

StartChar: Icircumflex
Encoding: 206 206 26
Width: 908
VWidth: 0
Flags: HW
LayerCount: 2
Fore
SplineSet
884 1603 m 1
 579 1967 l 1
 327 1967 l 1
 22 1603 l 1
 296 1603 l 1
 451 1791 l 1
 607 1603 l 1
 884 1603 l 1
799 0 m 1
 799 256 l 1
 646 319 l 1
 646 1129 l 1
 799 1192 l 1
 799 1479 l 1
 109 1479 l 1
 109 1222 l 1
 262 1160 l 1
 262 350 l 1
 109 287 l 1
 109 0 l 1
 799 0 l 1
EndSplineSet
EndChar

StartChar: Idieresis
Encoding: 207 207 27
Width: 908
VWidth: 0
Flags: HW
LayerCount: 2
Fore
SplineSet
365 1608 m 1
 365 1701 365 1794 366 1887 c 1
 334 1886 303 1886 271 1886 c 2
 246 1886 l 2
 186 1886 128 1887 65 1889 c 1
 65 1608 l 1
 106 1611 144 1611 182 1611 c 0
 243 1611 303 1609 365 1608 c 1
842 1608 m 1
 842 1701 842 1794 843 1887 c 1
 794 1886 748 1886 698 1886 c 0
 648 1886 596 1887 542 1889 c 1
 542 1608 l 1
 591 1610 637 1611 683 1611 c 0
 735 1611 788 1610 842 1608 c 1
799 0 m 1
 799 256 l 1
 646 319 l 1
 646 1129 l 1
 799 1192 l 1
 799 1479 l 1
 109 1479 l 1
 109 1222 l 1
 262 1160 l 1
 262 350 l 1
 109 287 l 1
 109 0 l 1
 799 0 l 1
EndSplineSet
EndChar

StartChar: Igrave
Encoding: 204 204 28
Width: 908
VWidth: 0
Flags: HW
LayerCount: 2
Fore
SplineSet
710 1601 m 1
 493 1967 l 1
 144 1967 l 1
 460 1601 l 1
 710 1601 l 1
799 0 m 1
 799 256 l 1
 646 319 l 1
 646 1129 l 1
 799 1192 l 1
 799 1479 l 1
 109 1479 l 1
 109 1222 l 1
 262 1160 l 1
 262 350 l 1
 109 287 l 1
 109 0 l 1
 799 0 l 1
EndSplineSet
EndChar

StartChar: J
Encoding: 74 74 29
Width: 1082
VWidth: 0
Flags: W
HStem: -20 290<117.724 478.646>
VStem: 570 385<360.222 606>
LayerCount: 2
Fore
SplineSet
955 453 m 2
 955 1479 l 1
 324 1479 l 1
 324 1207 l 1
 570 1172 l 1
 570 606 l 2
 570 398 542 270 307 270 c 0
 208 270 162 292 104 321 c 1
 88 326 73 333 59 339 c 1
 -6 67 l 1
 79 16 203 -20 383 -20 c 0
 716 -20 955 157 955 453 c 2
EndSplineSet
EndChar

StartChar: K
Encoding: 75 75 30
Width: 1440
VWidth: 0
Flags: W
VStem: 1004 443<1036 1479> 1019 457<0 457>
DStem2: 955 832 653 627 0.530731 -0.84754<13.4649 739.12> 668 1005 955 832 0.579959 0.814646<25.5145 581.008>
LayerCount: 2
Fore
SplineSet
1476 0 m 1x40
 955 832 l 1
 1447 1479 l 1
 1004 1479 l 1x80
 892 1321 779 1163 668 1005 c 1
 532 816 l 1
 531 816 l 1
 531 1479 l 1
 146 1479 l 1
 146 0 l 1
 531 0 l 1
 531 477 l 1
 653 627 l 1
 723 505 l 1
 822 337 921 169 1019 0 c 1
 1476 0 l 1x40
EndSplineSet
EndChar

StartChar: L
Encoding: 76 76 31
Width: 1220
VWidth: 0
Flags: W
LayerCount: 2
Fore
SplineSet
1177 0 m 1
 1177 286 l 1
 532 286 l 1
 532 1479 l 1
 147 1479 l 1
 147 0 l 1
 1177 0 l 1
EndSplineSet
EndChar

StartChar: Lslash
Encoding: 321 321 32
Width: 1139
VWidth: 0
Flags: HW
HStem: 885 184<508 692>
DStem2: 4 571 154 500 0.810058 0.58635<0 79.8778 458.26 741.434>
LayerCount: 2
Fore
SplineSet
154 0 m 1
 1085 0 l 1
 1085 209 l 1
 375 209 l 1
 375 655 l 1
 692 885 l 1
 692 1069 l 1
 375 840 l 1
 375 1458 l 1
 154 1458 l 1
 154 684 l 1
 4 571 l 1
 4 387 l 1
 154 500 l 1
 154 0 l 1
EndSplineSet
EndChar

StartChar: M
Encoding: 77 77 33
Width: 1829
VWidth: 0
Flags: W
LayerCount: 2
Fore
SplineSet
1682 0 m 1
 1682 1479 l 1
 1272 1479 l 1
 1017 922 l 2
 1017 923 1017 923 1017 924 c 2
 915 698 l 1
 559 1479 l 1
 147 1479 l 1
 147 0 l 1
 515 0 l 1
 515 701 l 2
 515 749 514 837 516 876 c 1
 546 804 l 1
 620.159 634.493 695.169 461.352 768 291 c 1
 1046 291 l 1
 1130 486 1213 679 1298 876 c 1
 1301 837 1300 749 1300 701 c 2
 1300 0 l 1
 1682 0 l 1
EndSplineSet
EndChar

StartChar: N
Encoding: 78 78 34
Width: 1591
VWidth: 0
Flags: W
LayerCount: 2
Fore
SplineSet
1447 0 m 1
 1447 1479 l 1
 1091 1479 l 1
 1091 659 l 1
 1060 698 1008 789 978 839 c 2
 579 1479 l 1
 147 1479 l 1
 147 0 l 1
 504 0 l 1
 504 757 l 2
 504 809 503 917 506 960 c 1
 698 645 899 318 1094 0 c 1
 1447 0 l 1
EndSplineSet
EndChar

StartChar: Ntilde
Encoding: 209 209 35
Width: 1591
VWidth: 0
Flags: HW
HStem: 1618 199<799.385 1009.58>
VStem: 1022 212<1830.17 1914>
LayerCount: 2
Fore
SplineSet
1234 1914 m 1
 1022 1914 l 1
 1016 1846 988 1817 931 1817 c 0
 906 1817 858 1840 823 1852 c 1
 768 1873 711 1905 644 1905 c 0
 474 1905 368 1781 356 1608 c 1
 567 1608 l 1
 570 1661 580 1689 629 1694 c 1
 655 1703 684 1699 711 1689 c 1
 782.597 1667.79 855.921 1618 947 1618 c 0
 1124 1618 1217 1721 1234 1914 c 1
1447 0 m 1
 1447 1479 l 1
 1091 1479 l 1
 1091 659 l 1
 1060 698 1008 789 978 839 c 2
 579 1479 l 1
 147 1479 l 1
 147 0 l 1
 504 0 l 1
 504 757 l 2
 504 809 503 917 506 960 c 1
 698 645 899 318 1094 0 c 1
 1447 0 l 1
EndSplineSet
EndChar

StartChar: O
Encoding: 79 79 36
Width: 1513
VWidth: 0
Flags: W
HStem: -24 288<604.691 904.967> 1215 288<605.193 913.608>
VStem: 70 394<431.567 1048.67> 1049 393<434.297 1048.11>
LayerCount: 2
Fore
SplineSet
1049 740 m 4
 1049 451.28 983.465 264 757 264 c 4
 531.018 264 464 439.472 464 739 c 4
 464 1040.61 532.621 1215 757 1215 c 4
 980.384 1215 1049 1036.94 1049 740 c 4
756 -24 m 4
 1213.58 -24 1442 253.85 1442 740 c 4
 1442 1230.69 1212.52 1503 756 1503 c 4
 299.344 1503 70 1230.09 70 740 c 4
 70 253.189 298.197 -24 756 -24 c 4
EndSplineSet
EndChar

StartChar: OE
Encoding: 338 338 37
Width: 2113
VWidth: 0
Flags: HW
HStem: 0 286<619.099 945.7> 1193 286<623.842 941.659 947 969.626>
VStem: 67 392<464.168 1021.16> 997 382<323.867 635 917 1153.92>
LayerCount: 2
Fore
SplineSet
970 319 m 1
 961 318 954 318 948 318 c 1
 899 297 846 281 784 281 c 1
 671 284 589 336 538 406 c 0
 482 483 459 563 459 739 c 0
 459 921 480 998 532 1069 c 1
 581 1134 659 1182 768 1193 c 1
 832.193 1197.19 890.158 1180.97 946 1169 c 1
 955 1165 962 1162 970 1160 c 1
 990 1030 997 913 997 702 c 0
 997 516 990 423 970 319 c 1
2029 0 m 1
 2029 286 l 1
 1379 286 l 1
 1379 635 l 1
 1942 635 l 1
 1942 917 l 1
 1379 917 l 1
 1379 1193 l 1
 2028 1193 l 1
 2028 1479 l 1
 947 1479 l 1
 947 1465 947 1452 947 1438 c 1
 833 1470 723 1477 628 1467 c 0
 437 1445 299 1353 205 1224 c 1
 118 1108 67 981 67 741 c 0
 67 523 93 427 148 327 c 0
 236 169 390 19 702 -3 c 1
 807 -9 953 13 1070 42 c 1
 1064 28 1057 14 1051 0 c 1
 2029 0 l 1
EndSplineSet
EndChar

StartChar: Oacute
Encoding: 211 211 38
Width: 1513
VWidth: 0
Flags: HW
HStem: -24 288<613.881 897.826> 1215 288<615.123 896.914>
VStem: 70 394<430.506 1044.29> 1049 393<436.748 1044.76>
LayerCount: 2
Fore
SplineSet
1066 1967 m 1
 715 1967 l 1
 501 1601 l 1
 750 1601 l 1
 1066 1967 l 1
757 264 m 0
 679 264 606 297 553 360 c 1
 496 430 464 517 464 739 c 0
 464 963 497 1050 554 1119 c 0
 607 1183 682 1215 757 1215 c 0
 835 1215 908 1181 961 1116 c 0
 1017 1046 1049 960 1049 740 c 0
 1049 531 1021 445 966 371 c 0
 916 304 842 264 757 264 c 0
756 -24 m 0
 997 -24 1178 75 1288 208 c 1
 1390 325 1442 465 1442 740 c 0
 1442 1018 1389 1157 1286 1274 c 1
 1176 1406 994 1503 756 1503 c 0
 517 1503 337 1406 226 1274 c 1
 123 1157 70 1018 70 740 c 0
 70 465 122 326 224 208 c 1
 334 75 515 -24 756 -24 c 0
EndSplineSet
EndChar

StartChar: Ocircumflex
Encoding: 212 212 39
Width: 1513
VWidth: 0
Flags: HW
HStem: -24 288<613.881 897.826> 1215 288<615.123 896.914> 1791 176<630 881>
VStem: 70 394<430.506 1044.29> 1049 393<436.748 1044.76>
LayerCount: 2
Fore
SplineSet
1187 1603 m 1
 881 1967 l 1
 630 1967 l 1
 325 1603 l 1
 598 1603 l 1
 754 1791 l 1
 910 1603 l 1
 1187 1603 l 1
757 264 m 0
 679 264 606 297 553 360 c 1
 496 430 464 517 464 739 c 0
 464 963 497 1050 554 1119 c 0
 607 1183 682 1215 757 1215 c 0
 835 1215 908 1181 961 1116 c 0
 1017 1046 1049 960 1049 740 c 0
 1049 531 1021 445 966 371 c 0
 916 304 842 264 757 264 c 0
756 -24 m 0
 997 -24 1178 75 1288 208 c 1
 1390 325 1442 465 1442 740 c 0
 1442 1018 1389 1157 1286 1274 c 1
 1176 1406 994 1503 756 1503 c 0
 517 1503 337 1406 226 1274 c 1
 123 1157 70 1018 70 740 c 0
 70 465 122 326 224 208 c 1
 334 75 515 -24 756 -24 c 0
EndSplineSet
EndChar

StartChar: Odieresis
Encoding: 214 214 40
Width: 1513
VWidth: 0
Flags: HW
HStem: -24 288<613.881 897.826> 1215 288<615.123 896.914>
VStem: 70 394<430.506 1044.29> 1049 393<436.748 1044.76>
LayerCount: 2
Fore
SplineSet
668 1608 m 1
 668 1701 668 1794 669 1887 c 1
 637 1886 606 1886 574 1886 c 2
 549 1886 l 2
 489 1886 431 1887 368 1889 c 1
 368 1608 l 1
 409 1611 447 1611 485 1611 c 0
 546 1611 605 1609 668 1608 c 1
1145 1608 m 1
 1145 1701 1145 1794 1145 1887 c 1
 1097 1886 1050 1886 1001 1886 c 0
 951 1886 899 1887 845 1889 c 1
 845 1608 l 1
 894 1610 940 1611 985 1611 c 0
 1038 1611 1090 1610 1145 1608 c 1
757 264 m 0
 679 264 606 297 553 360 c 1
 496 430 464 517 464 739 c 0
 464 963 497 1050 554 1119 c 0
 607 1183 682 1215 757 1215 c 0
 835 1215 908 1181 961 1116 c 0
 1017 1046 1049 960 1049 740 c 0
 1049 531 1021 445 966 371 c 0
 916 304 842 264 757 264 c 0
756 -24 m 0
 997 -24 1178 75 1288 208 c 1
 1390 325 1442 465 1442 740 c 0
 1442 1018 1389 1157 1286 1274 c 1
 1176 1406 994 1503 756 1503 c 0
 517 1503 337 1406 226 1274 c 1
 123 1157 70 1018 70 740 c 0
 70 465 122 326 224 208 c 1
 334 75 515 -24 756 -24 c 0
EndSplineSet
EndChar

StartChar: Ograve
Encoding: 210 210 41
Width: 1513
VWidth: 0
Flags: HW
HStem: -24 288<613.881 897.826> 1215 288<615.123 896.914>
VStem: 70 394<430.506 1044.29> 1049 393<436.748 1044.76>
LayerCount: 2
Fore
SplineSet
997 1607 m 1
 781 1973 l 1
 431 1973 l 1
 748 1607 l 1
 997 1607 l 1
757 264 m 0
 679 264 606 297 553 360 c 1
 496 430 464 517 464 739 c 0
 464 963 497 1050 554 1119 c 0
 607 1183 682 1215 757 1215 c 0
 835 1215 908 1181 961 1116 c 0
 1017 1046 1049 960 1049 740 c 0
 1049 531 1021 445 966 371 c 0
 916 304 842 264 757 264 c 0
756 -24 m 0
 997 -24 1178 75 1288 208 c 1
 1390 325 1442 465 1442 740 c 0
 1442 1018 1389 1157 1286 1274 c 1
 1176 1406 994 1503 756 1503 c 0
 517 1503 337 1406 226 1274 c 1
 123 1157 70 1018 70 740 c 0
 70 465 122 326 224 208 c 1
 334 75 515 -24 756 -24 c 0
EndSplineSet
EndChar

StartChar: Omega
Encoding: 8486 8486 42
Width: 1513
VWidth: 0
Flags: HW
HStem: 1214 242<594.707 921.179>
VStem: 82 314<586.072 986.132> 1116 312<587.59 995.096>
LayerCount: 2
Fore
SplineSet
92 814 m 0
 92 553.082 214.167 332.25 401 229 c 1
 82 229 l 1
 82 0 l 1
 650 0 l 1
 650 211 l 1
 475 358 396 535 396 765 c 0
 396 1037 547 1214 761 1214 c 0
 976 1214 1116 1018 1116 775 c 0
 1116 529 1019 340 860 211 c 1
 860 0 l 1
 1428 0 l 1
 1428 229 l 1
 1182 229 l 1
 1104 231 l 1
 1301 357 1421 560 1421 823 c 0
 1421 1173 1163 1456 757 1456 c 0
 368 1456 92 1193 92 814 c 0
EndSplineSet
EndChar

StartChar: Oslash
Encoding: 216 216 43
Width: 1513
VWidth: 0
Flags: HW
HStem: -24 279<618.265 941.362> 1219 284<608.11 904.013>
VStem: 70 384<464.675 1044.51> 1056 387<398.879 1019.91>
DStem2: 105 -101 311 -112 0.53853 0.842606<101.669 305.709 676.875 1445.3 1810.89 1987.52>
LayerCount: 2
Fore
SplineSet
773 255 m 0
 701 255 642 277 590 319 c 1
 1027 1025 l 1
 1044 972 1056 867 1056 740 c 0
 1056 557 1054 496 1046 399 c 1
 987 307 883 255 773 255 c 0
757 1219 m 0
 810 1219 872 1200 917 1166 c 1
 481 462 l 1
 461 522 454 599 454 734 c 0
 454 957 486 1044 541 1116 c 1
 596 1185 675 1219 757 1219 c 0
756 -24 m 0
 1038 -24 1241 104 1346 281 c 0
 1412 391 1443 503 1443 739 c 0
 1443 1071 1371 1199 1235 1327 c 1
 1386 1561 l 1
 1178 1572 l 1
 1089 1427 l 1
 989 1477 877 1503 756 1503 c 0
 505 1503 316 1398 204 1252 c 0
 116 1136 70 1005 70 740 c 0
 70 412 141 284 273 156 c 1
 105 -101 l 1
 311 -112 l 1
 416 56 l 1
 513 6 631 -24 756 -24 c 0
EndSplineSet
EndChar

StartChar: Otilde
Encoding: 213 213 44
Width: 1513
VWidth: 0
Flags: HW
HStem: -24 288<613.881 897.826> 1215 288<615.123 896.914> 1624 199<757.244 966.585>
VStem: 70 394<430.506 1044.29> 979 212<1836.17 1920> 1049 393<436.748 1044.76>
LayerCount: 2
Fore
SplineSet
1191 1920 m 1xf8
 979 1920 l 1
 973 1852 945 1823 888 1823 c 0
 863 1823 815 1846 780 1859 c 0
 724 1879 668 1911 601 1911 c 0
 432 1911 325 1787 313 1614 c 1
 523 1614 l 1
 527 1667 537 1695 585 1700 c 1
 612 1709 641 1705 668 1695 c 1
 740.196 1673.61 811.12 1624 904 1624 c 0
 1081 1624 1174 1727 1191 1920 c 1xf8
757 264 m 0
 679 264 606 297 553 360 c 1
 496 430 464 517 464 739 c 0
 464 963 497 1050 554 1119 c 0
 607 1183 682 1215 757 1215 c 0
 835 1215 908 1181 961 1116 c 0
 1017 1046 1049 960 1049 740 c 0xf4
 1049 531 1021 445 966 371 c 0
 916 304 842 264 757 264 c 0
756 -24 m 0
 997 -24 1178 75 1288 208 c 1
 1390 325 1442 465 1442 740 c 0
 1442 1018 1389 1157 1286 1274 c 1
 1176 1406 994 1503 756 1503 c 0
 517 1503 337 1406 226 1274 c 1
 123 1157 70 1018 70 740 c 0
 70 465 122 326 224 208 c 1
 334 75 515 -24 756 -24 c 0
EndSplineSet
EndChar

StartChar: P
Encoding: 80 80 45
Width: 1386
VWidth: 0
Flags: W
HStem: 499 282<563 871.984> 1197 282<636 877.747>
VStem: 951 391<853.592 1128.45>
LayerCount: 2
Fore
SplineSet
951 1006 m 0
 951 877 892 804 787 791 c 1
 720 780 642 781 563 781 c 2
 532 781 l 1
 532 1197 l 1
 636 1197 l 2
 767 1197 951 1193 951 1006 c 0
1342 1010 m 0
 1342 1351 1081 1479 781 1479 c 2
 147 1479 l 1
 147 0 l 1
 532 0 l 1
 532 499 l 1
 757 499 l 2
 1124 499 1342 712 1342 1010 c 0
EndSplineSet
EndChar

StartChar: Q
Encoding: 81 81 46
Width: 1513
VWidth: 0
Flags: W
HStem: -24 288<604.691 1098.52> 1215 288<605.193 913.608>
VStem: 70 394<431.567 1048.67> 1049 393<434.297 1048.11>
LayerCount: 2
Back
SplineSet
1056 740 m 4
 1056 681 1055 649 1049 629 c 5
 1028 419 916 364 812 381 c 5
 796 362 781 344 765 326 c 5
 787 308 810 290 832 272 c 5
 818 261 797 254 773 254 c 4
 686 254 608 289 554 356 c 4
 495 429 464 517 464 740 c 4
 464 963 497 1050 556 1119 c 4
 610 1183 685 1215 760 1215 c 4
 835 1215 909 1183 963 1120 c 4
 1022 1050 1056 963 1056 740 c 4
1434 -271 m 5
 1482 -24 l 5
 1462 -14 1441 -5 1421 4 c 5
 1403 -4 1350 -23 1308 -23 c 5
 1197 -14 1149 11 1139 116 c 5
 1302 199 1399 343 1431 615 c 4
 1439 686 1443 752 1442 815 c 4
 1438 1225 1194 1503 756 1503 c 4
 316 1503 76 1221 71 816 c 4
 71 750 75 681 83 608 c 5
 101 398 142 310 209 221 c 4
 309 89 475 -13 695 -22 c 5
 694 -22 693 -22 692 -23 c 5
 745 -161 868 -262 1135 -236 c 5
 1308 -253 1351 -267 1434 -271 c 5
EndSplineSet
Fore
SplineSet
1073.17 -446 m 25
 1351.17 -296 l 25
 992 324 l 25
 714 174 l 25
 1073.17 -446 l 25
1049 740 m 0
 1049 451.28 983.465 264 757 264 c 0
 531.018 264 464 439.472 464 739 c 0
 464 1040.61 532.621 1215 757 1215 c 0
 980.384 1215 1049 1036.94 1049 740 c 0
756 -24 m 0
 1213.58 -24 1442 253.85 1442 740 c 0
 1442 1230.69 1212.52 1503 756 1503 c 0
 299.344 1503 70 1230.09 70 740 c 0
 70 253.189 298.197 -24 756 -24 c 0
EndSplineSet
EndChar

StartChar: R
Encoding: 82 82 47
Width: 1483
VWidth: 0
Flags: W
HStem: 0 21G<147 530 993.648 1412> 562 270<530 686> 1205 274<530 910.047>
VStem: 147 383<0 562 832 1205> 967 386<898.119 1151.3>
LayerCount: 2
Fore
SplineSet
967 1032 m 0
 967 1146 918 1187 769 1201 c 0
 736 1204 697 1205 654 1205 c 2
 530 1205 l 1
 530 832 l 1
 666 832 l 2
 871 832 967 879 967 1032 c 0
1412 0 m 1
 1005 0 l 5
 686 562 l 1
 530 562 l 1
 530 0 l 1
 147 0 l 1
 147 1479 l 1
 631 1479 l 2
 917 1479 1353 1488 1353 1055 c 0
 1353 836.436 1264.06 704.633 1054 624 c 1
 1412 70 l 2
 1412 0 l 1
EndSplineSet
EndChar

StartChar: S
Encoding: 83 83 48
Width: 1281
VWidth: 0
Flags: HW
HStem: -22 281<367.756 800.048> 1221 281<504.373 921.328>
VStem: 76 385<989.91 1174.15> 861 389<314.164 492.645>
LayerCount: 2
Fore
SplineSet
1250 456 m 0
 1250 703 1092 841 770 908 c 1
 527 954 461 983 461 1075 c 0
 461 1206 588 1221 672 1221 c 0
 829 1221 975 1170 1089 1090 c 1
 1110 1084 1131 1077 1150 1069 c 1
 1195 1382 l 1
 1053 1454 865 1502 677 1502 c 0
 328 1502 76 1307 76 1038 c 0
 76 844 161 710 368 628 c 1
 545 552 861 581 861 407 c 0
 861 289 716 259 612 259 c 0
 455 259 291 317 154 417 c 1
 134 424 113 431 94 439 c 1
 42 124 l 1
 192 34 375 -22 613 -22 c 0
 996 -22 1250 161 1250 456 c 0
EndSplineSet
EndChar

StartChar: Scaron
Encoding: 352 352 49
Width: 1176
VWidth: 0
Flags: HW
HStem: -12 221<351.332 775.021> 1249 221<411.118 796.906> 1530 123<471 705>
VStem: 104 222<929.649 1168.76> 254 197<1632 1829> 725 197<1632 1829> 874 222<294.504 539.052>
DStem2: 451 1829 254 1829 0.587367 -0.809321<0 222.91> 532 854 492 635 0.9932 -0.116419<-146.548 317.388> 588 1653 705 1530 0.587367 0.809321<0 222.91>
LayerCount: 2
Fore
SplineSet
27 188 m 1xf2
 180 53 369 -12 584 -12 c 0
 897 -12 1096 143 1096 412 c 0
 1096 610 969 799 696 831 c 0
 627 840 571 848 532 854 c 0
 385 877 326 958 326 1040 c 0
 326 1180 434 1249 569 1249 c 0
 698 1249 823 1204 930 1137 c 1
 1053 1319 l 1
 920 1407 760 1470 580 1470 c 0
 279 1470 104 1294 104 1044 c 0
 104 834 240 670 492 635 c 0
 567 625 618 616 684 608 c 0
 815 592 874 514 874 412 c 0
 874 291 766 209 586 209 c 0
 430 209 283 266 172 354 c 1
 27 188 l 1xf2
471 1530 m 1
 705 1530 l 1
 922 1829 l 1
 725 1829 l 1
 588 1653 l 1
 451 1829 l 1
 254 1829 l 1xec
 471 1530 l 1
EndSplineSet
EndChar

StartChar: T
Encoding: 84 84 50
Width: 1221
VWidth: 0
Flags: W
LayerCount: 2
Fore
SplineSet
1221 1198 m 1
 1221 1479 l 1
 0 1479 l 1
 0 1198 l 1
 419 1198 l 1
 419 0 l 1
 803 0 l 1
 803 1198 l 1
 1221 1198 l 1
EndSplineSet
EndChar

StartChar: Thorn
Encoding: 222 222 51
Width: 1214
VWidth: 0
Flags: HW
HStem: 315 209<707 840.699> 995 209<705 840.699>
VStem: 946 221<628.531 891.02>
LayerCount: 2
Fore
SplineSet
375 995 m 1
 705 995 l 2
 856 995 946 870 946 760 c 0
 946 649 856 524 707 524 c 2
 375 524 l 1
 375 995 l 1
154 0 m 1
 375 0 l 1
 375 315 l 1
 711 315 l 2
 1010 315 1167 547 1167 760 c 0
 1167 973 1010 1204 711 1204 c 2
 375 1204 l 1
 375 1458 l 1
 154 1458 l 1
 154 0 l 1
EndSplineSet
EndChar

StartChar: U
Encoding: 85 85 52
Width: 1498
VWidth: 0
Flags: W
HStem: -24 291<595.074 895.706>
LayerCount: 2
Fore
SplineSet
1375 1479 m 1
 991 1479 l 1
 991 538 l 2
 991 352 902 267 749 267 c 0
 589 267 507 357 507 537 c 2
 507 1479 l 1
 123 1479 l 1
 123 505 l 2
 123 170 370 -24 749 -24 c 0
 1144 -24 1375 177 1375 506 c 2
 1375 1479 l 1
EndSplineSet
EndChar

StartChar: Uacute
Encoding: 218 218 53
Width: 1498
VWidth: 0
Flags: HW
HStem: -24 291<595.074 895.706>
LayerCount: 2
Fore
SplineSet
1099 1973 m 1
 748 1973 l 1
 533 1607 l 1
 783 1607 l 1
 1099 1973 l 1
1375 1479 m 1
 991 1479 l 1
 991 538 l 2
 991 352 902 267 749 267 c 0
 589 267 507 357 507 537 c 2
 507 1479 l 1
 123 1479 l 1
 123 505 l 2
 123 170 370 -24 749 -24 c 0
 1144 -24 1375 177 1375 506 c 2
 1375 1479 l 1
EndSplineSet
EndChar

StartChar: Ucircumflex
Encoding: 219 219 54
Width: 1498
VWidth: 0
Flags: HW
HStem: -24 291<595.074 895.706> 1797 176<613 864>
LayerCount: 2
Fore
SplineSet
1170 1609 m 1
 864 1973 l 1
 613 1973 l 1
 308 1609 l 1
 581 1609 l 1
 737 1797 l 1
 893 1609 l 1
 1170 1609 l 1
1375 1479 m 1
 991 1479 l 1
 991 538 l 2
 991 352 902 267 749 267 c 0
 589 267 507 357 507 537 c 2
 507 1479 l 1
 123 1479 l 1
 123 505 l 2
 123 170 370 -24 749 -24 c 0
 1144 -24 1375 177 1375 506 c 2
 1375 1479 l 1
EndSplineSet
EndChar

StartChar: Udieresis
Encoding: 220 220 55
Width: 1498
VWidth: 0
Flags: HW
HStem: -24 291<595.074 895.706>
LayerCount: 2
Fore
SplineSet
661 1608 m 1
 661 1701 661 1794 662 1887 c 1
 630 1886 599 1886 567 1886 c 2
 542 1886 l 2
 482 1886 424 1887 362 1889 c 1
 362 1608 l 1
 402 1611 440 1611 478 1611 c 0
 539 1611 599 1609 661 1608 c 1
1138 1608 m 1
 1138 1701 1139 1794 1139 1887 c 1
 1088 1886 1038 1886 986 1886 c 0
 939 1886 890 1887 838 1889 c 1
 838 1608 l 1
 890 1610 938 1611 987 1611 c 0
 1037 1611 1086 1610 1138 1608 c 1
1375 1479 m 1
 991 1479 l 1
 991 538 l 2
 991 352 902 267 749 267 c 0
 589 267 507 357 507 537 c 2
 507 1479 l 1
 123 1479 l 1
 123 505 l 2
 123 170 370 -24 749 -24 c 0
 1144 -24 1375 177 1375 506 c 2
 1375 1479 l 1
EndSplineSet
EndChar

StartChar: Ugrave
Encoding: 217 217 56
Width: 1498
VWidth: 0
Flags: HW
HStem: -24 291<595.074 895.706>
LayerCount: 2
Fore
SplineSet
936 1607 m 1
 719 1973 l 1
 370 1973 l 1
 686 1607 l 1
 936 1607 l 1
1375 1479 m 1
 991 1479 l 1
 991 538 l 2
 991 352 902 267 749 267 c 0
 589 267 507 357 507 537 c 2
 507 1479 l 1
 123 1479 l 1
 123 505 l 2
 123 170 370 -24 749 -24 c 0
 1144 -24 1375 177 1375 506 c 2
 1375 1479 l 1
EndSplineSet
EndChar

StartChar: V
Encoding: 86 86 57
Width: 1345
VWidth: 0
Flags: HW
VStem: -23 399<1080 1479> 977 391<1088 1479>
DStem2: 376 1479 -23 1479 0.328273 -0.944583<0 1006.66> 602 753 491 0 0.328273 -0.944583<-635.354 247.83> 677 516 854 0 0.328273 0.944583<0 858.758>
LayerCount: 2
Fore
SplineSet
1368 1479 m 1
 977 1479 l 1
 735 718 l 1
 677 516 l 2
 676 516 676 516 675 516 c 2
 654 585 l 2
 637 641 620 697 602 753 c 1
 605 740 612 729 616 718 c 1
 536 972 455 1225 376 1479 c 1
 -23 1479 l 1
 491 0 l 1
 854 0 l 1
 1368 1479 l 1
EndSplineSet
EndChar

StartChar: W
Encoding: 87 87 58
Width: 2070
VWidth: 0
Flags: HW
VStem: 1664 394<1085 1479>
DStem2: 605 532 1031 881 0.26001 0.965606<0 447.761> 1406 747 1031 881 0.249288 -0.968429<-223.253 219.018>
LayerCount: 2
Fore
SplineSet
2058 1479 m 1
 1664 1479 l 1
 1596 1166 1527 844 1461 535 c 1
 1444 585 1421 687 1406 747 c 2
 1218 1479 l 1
 860 1479 l 1
 799 1251 737 1024 676 797 c 2
 605 532 l 2
 604 532 604 532 603 532 c 2
 558 756 l 2
 509 998 461 1238 413 1479 c 1
 12 1479 l 1
 395 0 l 1
 794 0 l 1
 1031 881 l 1
 1085 715 1197 281 1274 0 c 1
 1672 0 l 1
 2058 1479 l 1
EndSplineSet
EndChar

StartChar: X
Encoding: 88 88 59
Width: 1350
VWidth: 0
Flags: HW
VStem: -14 443<1036 1479>
DStem2: -38 0 390 0 0.549606 0.835424<235.231 360.818 1272.93 1769.81> 429 1479 -14 1479 0.543651 -0.839311<0 486.558> 442 752 552 272 0.538035 0.842922<-661.855 -123.156> 907 763 669 461 0.533284 -0.845936<128.551 665.181>
LayerCount: 2
Fore
SplineSet
1363 1479 m 1
 934 1479 l 1
 774 1212 l 2
 775 1212 775 1212 776 1212 c 1
 741 1154 712 1106 679 1052 c 1
 596 1195 512 1337 429 1479 c 1
 -14 1479 l 1
 442 752 l 1
 -38 0 l 1
 390 0 l 1
 552 272 l 2
 590 335 630 398 669 461 c 1
 699 412 731 359 762 309 c 1
 944 0 l 1
 1388 0 l 1
 907 763 l 1
 1363 1479 l 1
EndSplineSet
EndChar

StartChar: Y
Encoding: 89 89 60
Width: 1337
VWidth: 0
Flags: HW
DStem2: 402 1479 -32 1479 0.50308 -0.86424<0 578.718> 559 1172 482 596 0.50308 -0.86424<-293.503 258.784>
LayerCount: 2
Fore
SplineSet
1368 1479 m 1
 946 1479 l 1
 858 1300 769 1124 680 943 c 1
 585.409 1119.74 493.541 1299.21 402 1479 c 1
 -32 1479 l 1
 482 596 l 1
 482 0 l 1
 863 0 l 1
 863 608 l 1
 1368 1479 l 1
EndSplineSet
EndChar

StartChar: Yacute
Encoding: 221 221 61
Width: 1024
VWidth: 0
Flags: HW
DStem2: 203 1458 -31 1458 0.455495 -0.890238<0 716.732> 512 811 616 600 0.455495 0.890238<0 716.732>
LayerCount: 2
Fore
SplineSet
408 0 m 1
 616 0 l 1
 616 600 l 1
 1055 1458 l 1
 821 1458 l 1
 512 811 l 1
 203 1458 l 1
 -31 1458 l 1
 408 600 l 1
 408 0 l 1
354 1530 m 1
 526 1530 l 1
 817 1829 l 1
 543 1829 l 1
 354 1530 l 1
EndSplineSet
EndChar

StartChar: Ydieresis
Encoding: 376 376 62
Width: 1337
VWidth: 0
Flags: HW
DStem2: 402 1479 -32 1479 0.50308 -0.86424<0 578.718> 559 1172 482 596 0.50308 -0.86424<-293.503 258.784>
LayerCount: 2
Fore
SplineSet
589 1614 m 1
 589 1707 589 1800 590 1893 c 1
 558 1892 527 1892 495 1892 c 2
 470 1892 l 2
 410 1892 352 1893 289 1895 c 1
 289 1614 l 1
 330 1617 368 1617 406 1617 c 0
 467 1617 526 1615 589 1614 c 1
1066 1614 m 1
 1066 1707 1066 1800 1067 1893 c 1
 1015 1892 966 1892 914 1892 c 0
 866 1892 818 1893 766 1895 c 1
 766 1614 l 1
 818 1616 866 1617 915 1617 c 0
 965 1617 1014 1616 1066 1614 c 1
1368 1479 m 1
 946 1479 l 1
 858 1300 769 1124 680 943 c 1
 585.409 1119.74 493.541 1299.21 402 1479 c 1
 -32 1479 l 1
 482 596 l 1
 482 0 l 1
 863 0 l 1
 863 608 l 1
 1368 1479 l 1
EndSplineSet
EndChar

StartChar: Z
Encoding: 90 90 63
Width: 1215
VWidth: 0
Flags: HW
DStem2: 41 272 516 286 0.567359 0.823471<281.024 1124.51>
LayerCount: 2
Fore
SplineSet
1185 0 m 1
 1185 286 l 1
 516 286 l 1
 1152 1208 l 1
 1152 1479 l 1
 75 1479 l 1
 75 1198 l 1
 679 1198 l 1
 41 272 l 1
 41 0 l 1
 1185 0 l 1
EndSplineSet
EndChar

StartChar: Zcaron
Encoding: 381 381 64
Width: 1063
VWidth: 0
Flags: HW
VStem: 199 196<1633 1829> 670 196<1633 1829>
DStem2: 66 184 334 209 0.522119 0.852873<161.25 1264.52> 395 1829 199 1829 0.587367 -0.809321<0 222.91> 532 1653 649 1530 0.587367 0.809321<0 223.497>
LayerCount: 2
Fore
SplineSet
66 0 m 1
 997 0 l 1
 997 209 l 1
 334 209 l 1
 997 1292 l 1
 997 1458 l 1
 92 1458 l 1
 92 1262 l 1
 727 1262 l 1
 66 184 l 1
 66 0 l 1
416 1530 m 1
 649 1530 l 1
 866 1829 l 1
 670 1829 l 1
 532 1653 l 1
 395 1829 l 1
 199 1829 l 1
 416 1530 l 1
EndSplineSet
EndChar

StartChar: a
Encoding: 97 97 65
Width: 1204
VWidth: 0
Flags: W
HStem: -19.7427 246.743<303.585 607.947> 503 190<484.358 750> 862.177 257.823<278.335 716.236>
VStem: 61 357<254.726 450.738> 750 358<293.149 503 695 827.267>
LayerCount: 2
Back
SplineSet
750 503 m 5
 750 268 664 227 562 227 c 4
 470 227 418 273 418 351 c 4
 418 490 548 487 750 503 c 5
1108 0 m 5
 1108 748 l 6
 1108 1005 934 1120 553 1120 c 4
 387 1120 213 1082 142 1031 c 5
 201 790 l 5
 219 804 239 813 265 816 c 5
 320 835 388 852 453 862 c 5
 517 867 555 862 580 846 c 5
 699 834 750 792 750 695 c 5
 678 695 607 695 537 693 c 5
 250 679 61 564 61 316 c 4
 61 134 190 -6 378 -19 c 5
 438 -22 490 -15 536 -2 c 5
 646 23 706 78 748 148 c 4
 750 148 l 5
 750 0 l 5
 1108 0 l 5
EndSplineSet
Fore
SplineSet
750 503 m 1
 750 268 664 227 562 227 c 0
 470 227 418 273 418 351 c 0
 418 490 548 487 750 503 c 1
61 316 m 0
 61 126.164 199.755 -19.7427 407.414 -19.7427 c 0
 573.248 -19.7427 690.722 52.5362 748 148 c 1
 750 148 l 1
 750 0 l 1
 1108 0 l 1
 1108 748 l 2
 1108 1005 934 1120 553 1120 c 0
 387 1120 213 1082 142 1031 c 1
 201 790 l 1
 307.494 832.257 430.305 862.177 536.974 862.177 c 0
 715.32 862.177 750 818.489 750 695 c 1
 678 695 607 695 537 693 c 1
 250 679 61 564 61 316 c 0
EndSplineSet
EndChar

StartChar: aacute
Encoding: 225 225 66
Width: 1204
VWidth: 0
Flags: HW
HStem: -19 246<444.864 617.226> 503 190<484.358 750> 862 258<272.086 686.084>
VStem: 61 357<255.966 450.738> 750 358<293.149 503 695 804.606>
LayerCount: 2
Fore
SplineSet
911 1605 m 1
 561 1605 l 1
 346 1239 l 1
 596 1239 l 1
 911 1605 l 1
750 503 m 1
 750 268 664 227 562 227 c 0
 470 227 418 273 418 351 c 0
 418 490 548 487 750 503 c 1
1108 0 m 1
 1108 748 l 2
 1108 1005 934 1120 553 1120 c 0
 387 1120 213 1082 142 1031 c 1
 201 790 l 1
 219 804 239 813 265 816 c 1
 320 835 388 852 453 862 c 1
 517 867 555 862 580 846 c 1
 699 834 750 792 750 695 c 1
 678 695 607 695 537 693 c 1
 250 679 61 564 61 316 c 0
 61 134 190 -6 378 -19 c 1
 438 -22 490 -15 536 -2 c 1
 646 23 706 78 748 148 c 1
 750 148 l 1
 750 0 l 1
 1108 0 l 1
EndSplineSet
EndChar

StartChar: acircumflex
Encoding: 226 226 67
Width: 1204
VWidth: 0
Flags: HW
HStem: -19 246<444.864 617.226> 503 190<484.358 750> 862 258<272.086 686.084> 1430 175<476 727>
VStem: 61 357<255.966 450.738> 750 358<293.149 503 695 804.606>
LayerCount: 2
Fore
SplineSet
1032 1241 m 1
 727 1605 l 1
 476 1605 l 1
 171 1241 l 1
 444 1241 l 1
 600 1430 l 1
 756 1241 l 1
 1032 1241 l 1
750 503 m 1
 750 268 664 227 562 227 c 0
 470 227 418 273 418 351 c 0
 418 490 548 487 750 503 c 1
1108 0 m 1
 1108 748 l 2
 1108 1005 934 1120 553 1120 c 0
 387 1120 213 1082 142 1031 c 1
 201 790 l 1
 219 804 239 813 265 816 c 1
 320 835 388 852 453 862 c 1
 517 867 555 862 580 846 c 1
 699 834 750 792 750 695 c 1
 678 695 607 695 537 693 c 1
 250 679 61 564 61 316 c 0
 61 134 190 -6 378 -19 c 1
 438 -22 490 -15 536 -2 c 1
 646 23 706 78 748 148 c 1
 750 148 l 1
 750 0 l 1
 1108 0 l 1
EndSplineSet
EndChar

StartChar: acute
Encoding: 180 180 68
Width: 897
VWidth: 0
Flags: HW
HStem: 1239 366
LayerCount: 2
Fore
SplineSet
779 1605 m 1
 428 1605 l 1
 214 1239 l 1
 463 1239 l 1
 779 1605 l 1
EndSplineSet
EndChar

StartChar: adieresis
Encoding: 228 228 69
Width: 1204
VWidth: 0
Flags: HW
HStem: -19 246<444.864 617.226> 503 190<484.358 750> 862 258<272.086 686.084>
VStem: 61 357<255.966 450.738> 750 358<293.149 503 695 804.606>
LayerCount: 2
Fore
SplineSet
513 1246 m 1
 513 1339 513 1432 514 1525 c 1
 482 1524 451 1524 419 1524 c 2
 394 1524 l 2
 334 1524 276 1525 214 1527 c 1
 214 1246 l 1
 254 1249 292 1250 330 1250 c 0
 391 1250 451 1248 513 1246 c 1
991 1246 m 1
 991 1339 991 1432 991 1525 c 1
 940 1524 890 1524 838 1524 c 0
 791 1524 742 1525 691 1527 c 1
 691 1246 l 1
 742 1248 790 1250 839 1250 c 0
 889 1250 938 1248 991 1246 c 1
750 503 m 1
 750 268 664 227 562 227 c 0
 470 227 418 273 418 351 c 0
 418 490 548 487 750 503 c 1
1108 0 m 1
 1108 748 l 2
 1108 1005 934 1120 553 1120 c 0
 387 1120 213 1082 142 1031 c 1
 201 790 l 1
 219 804 239 813 265 816 c 1
 320 835 388 852 453 862 c 1
 517 867 555 862 580 846 c 1
 699 834 750 792 750 695 c 1
 678 695 607 695 537 693 c 1
 250 679 61 564 61 316 c 0
 61 134 190 -6 378 -19 c 1
 438 -22 490 -15 536 -2 c 1
 646 23 706 78 748 148 c 1
 750 148 l 1
 750 0 l 1
 1108 0 l 1
EndSplineSet
EndChar

StartChar: ae
Encoding: 230 230 70
Width: 1875
VWidth: 0
Flags: HW
HStem: -24 245<415.986 710.934 1214.56 1552.12> 873 249<265.689 680.266> 891 233<1153.71 1410.87>
VStem: 33 357<248.996 427.812> 735 352<333.619 459 710.182 821.358>
LayerCount: 2
Fore
SplineSet
1472 674 m 1xb8
 1085 674 l 1
 1084 807 1157 891 1283 891 c 0
 1400 891 1470 819 1472 674 c 1xb8
763 331 m 1
 741 251 671 221 559 221 c 0
 435 221 390 265 390 344 c 0
 390 468 544 466 735 478 c 1
 738 435 743 387 763 331 c 1
1829 459 m 1
 1829 614 l 2
 1829 935 1641 1124 1306 1124 c 0xb8
 1174 1124 1022 1068 944 1007 c 1
 852 1077 712 1122 525 1122 c 0
 363 1122 185 1081 114 1031 c 1
 174 791 l 1
 186 798 200 803 214 807 c 1
 296 846 401 873 479 873 c 0xd8
 682 873 725 817 725 717 c 1
 673 707 625 695 576 684 c 1
 506 679 437 674 370 667 c 1
 154 636 33 515 33 317 c 0
 33 99 189 -24 484 -24 c 0
 645 -24 779 31 868 135 c 1
 1000 9 1098 -27 1347 -27 c 0
 1603 -27 1719 35 1811 96 c 1
 1756 350 l 1
 1724 328 1684 315 1647 315 c 1
 1602 284 1508 232 1397 232 c 0
 1229 232 1100 288 1087 459 c 1
 1829 459 l 1
EndSplineSet
EndChar

StartChar: afii61289
Encoding: 8467 8467 71
Width: 899
VWidth: 0
Flags: HW
HStem: -4 162<454.058 672.785> 1434 151<441.961 589.029>
VStem: 193 192<236.151 383 504.714 571.933 1081 1363.86> 616 121<1039.53 1411.2>
LayerCount: 2
Fore
SplineSet
784 336 m 1
 735 250 657 158 557 158 c 0
 461 158 387 240 385 432 c 1
 385 528 l 1
 598 762 737 1001 737 1243 c 0
 737 1440 662 1585 502 1585 c 0
 342 1585 193 1446 193 1094 c 2
 193 551 l 1
 150 502 100 461 45 410 c 1
 96 297 l 1
 129 326 164 358 195 383 c 1
 195 358 l 1
 203 164 287 -4 514 -4 c 0
 655 -4 780 72 866 252 c 1
 784 336 l 1
385 1081 m 2
 385 1352 449 1434 510 1434 c 0
 588 1434 616 1366 616 1251 c 0
 616 1083 518 897 385 725 c 1
 385 1081 l 2
EndSplineSet
EndChar

StartChar: agrave
Encoding: 224 224 72
Width: 1204
VWidth: 0
Flags: HW
HStem: -19 246<444.864 617.226> 503 190<484.358 750> 862 258<272.086 686.084>
VStem: 61 357<255.966 450.738> 750 358<293.149 503 695 804.606>
LayerCount: 2
Fore
SplineSet
858 1239 m 1
 642 1605 l 1
 292 1605 l 1
 609 1239 l 1
 858 1239 l 1
750 503 m 1
 750 268 664 227 562 227 c 0
 470 227 418 273 418 351 c 0
 418 490 548 487 750 503 c 1
1108 0 m 1
 1108 748 l 2
 1108 1005 934 1120 553 1120 c 0
 387 1120 213 1082 142 1031 c 1
 201 790 l 1
 219 804 239 813 265 816 c 1
 320 835 388 852 453 862 c 1
 517 867 555 862 580 846 c 1
 699 834 750 792 750 695 c 1
 678 695 607 695 537 693 c 1
 250 679 61 564 61 316 c 0
 61 134 190 -6 378 -19 c 1
 438 -22 490 -15 536 -2 c 1
 646 23 706 78 748 148 c 1
 750 148 l 1
 750 0 l 1
 1108 0 l 1
EndSplineSet
EndChar

StartChar: ampersand
Encoding: 38 38 73
Width: 1594
VWidth: 0
Flags: W
HStem: 1278 225<566.904 738.269>
VStem: 78 374<339.453 625.313> 181 363<1050.72 1257.29> 768 359<1020.28 1251.84>
DStem2: 814 815 525 663 0.714249 -0.699892<0 404.401 695.115 911.771>
LayerCount: 2
Fore
SplineSet
1480 758 m 1xd0
 1131 785 l 1
 1118.61 698.258 1098.51 621.159 1097 526 c 1
 1002 621 907 718 814 815 c 1
 1039 894 1127 1025 1127 1176 c 0
 1127 1357 971 1503 664 1503 c 0
 310 1503 181 1320 181 1154 c 0xb0
 181 1013 259 924 348 842 c 1
 203 763 78 637 78 436 c 0
 78 173 289 -24 641 -24 c 0
 801 -24 942 22 1078 107 c 1
 1121 66 1163 24 1204 -19 c 1
 1254 -16 1306 -12 1356 -8 c 1
 1681 -2 l 1
 1595 39 1533 116 1464 182 c 0
 1413 231 1361 280 1310 328 c 1
 1412 423 1445 532 1465 643 c 1
 1471 682 1476 721 1480 758 c 1xd0
902 290 m 1
 824.879 245.013 761.399 228.3 657 237 c 0
 571 245 452 328 452 479 c 0xd0
 452 533 473 618 525 663 c 1
 650 538 776 413 902 290 c 1
768 1143 m 0
 768 1079 742 1023 668 962 c 1
 604 1025 544 1092 544 1158 c 0xb0
 544 1259 617 1278 648 1278 c 0
 683 1278 768 1263 768 1143 c 0
EndSplineSet
EndChar

StartChar: approxequal
Encoding: 8776 8776 74
Width: 1349
VWidth: 0
Flags: HW
HStem: 371 173<374.286 599.203> 778 174<374.736 603.19>
VStem: 159 166<236.1 320.481 648.014 731.551> 1023 166<451.628 526.073 853.726 935.073>
LayerCount: 2
Fore
SplineSet
1189 933 m 1
 1023 957 l 1
 1013 881 973 827 915 818 c 1
 894 809 867 808 833 816 c 1
 793 824 752 847 701 877 c 0
 628 920 549 952 467 952 c 0
 296 952 184 835 159 650 c 1
 325 627 l 1
 344 719 388 778 475 778 c 0
 516 778 569 754 639 714 c 0
 738 657 817 630 888 630 c 0
 1056 630 1165 753 1189 933 c 1
1189 524 m 1
 1023 548 l 1
 1015 475 978 426 924 418 c 1
 902 404 874 398 836 406 c 0
 795 414 753 439 701 469 c 0
 627 511 549 544 466 544 c 0
 296 544 184 425 159 238 c 1
 325 216 l 1
 344 310 387 371 475 371 c 0
 515 371 567 346 639 305 c 0
 739 249 818 221 887 221 c 0
 1057 221 1165 344 1189 524 c 1
EndSplineSet
EndChar

StartChar: aring
Encoding: 229 229 75
Width: 1204
VWidth: 0
Flags: HW
HStem: -19 246<444.864 617.226> 503 190<484.358 750> 1081 39<449 754> 1467 134<512.232 691.82>
VStem: 61 357<255.966 450.738> 329 152<1243.14 1438.19> 722 153<1242.97 1438.5> 750 358<293.149 503 695 804.606>
LayerCount: 2
Fore
SplineSet
722 1340 m 0xf6
 722 1271 672 1215 602 1215 c 0
 531 1215 481 1268 481 1340 c 0
 481 1412 534 1467 602 1467 c 0
 672 1467 722 1408 722 1340 c 0xf6
875 1341 m 0
 875 1488 753 1601 602 1601 c 0
 451 1601 329 1487 329 1342 c 0
 329 1196 449 1081 602 1081 c 0
 754 1081 875 1194 875 1341 c 0
750 503 m 1xf9
 750 268 664 227 562 227 c 0
 470 227 418 273 418 351 c 0
 418 490 548 487 750 503 c 1xf9
1108 0 m 1
 1108 748 l 2
 1108 1005 934 1120 553 1120 c 0
 387 1120 213 1082 142 1031 c 1
 201 790 l 1
 219 804 239 813 265 816 c 1
 320 835 388 852 453 862 c 1
 517 867 555 862 580 846 c 1
 699 834 750 792 750 695 c 1
 678 695 607 695 537 693 c 1
 250 679 61 564 61 316 c 0
 61 134 190 -6 378 -19 c 1
 438 -22 490 -15 536 -2 c 1
 646 23 706 78 748 148 c 1
 750 148 l 1
 750 0 l 1
 1108 0 l 1
EndSplineSet
EndChar

StartChar: asciicircum
Encoding: 94 94 76
Width: 1588
VWidth: 0
Flags: HW
VStem: 1130 307<639 946>
DStem2: 150 637 456 637 0.515094 0.857133<157.619 816.846> 901 1479 779 1212 0.537914 -0.843<159.455 831.302>
LayerCount: 2
Fore
SplineSet
1437 639 m 1
 901 1479 l 1
 656 1479 l 1
 150 637 l 1
 456 637 l 1
 779 1212 l 1
 1130 639 l 1
 1437 639 l 1
EndSplineSet
EndChar

StartChar: asciitilde
Encoding: 126 126 77
Width: 1588
VWidth: 0
Flags: HW
HStem: 329 255<970.8 1167.74> 652 242<428.738 590.825>
VStem: 127 229<372 564.073> 1234 231<673.271 849>
LayerCount: 2
Fore
SplineSet
1465 849 m 1
 1234 896 l 1
 1212 739 1209 584 1068 584 c 0
 998 584 915 678 852 739 c 1
 783 802 677 894 510 894 c 0
 282 894 143 724 127 372 c 1
 356 326 l 1
 375 484 375 649 524 652 c 1
 538 641 553 631 562 625 c 1
 609 605 637 566 666 538 c 0
 760 447 877 329 1072 329 c 0
 1314 329 1449 505 1465 849 c 1
EndSplineSet
EndChar

StartChar: asterisk
Encoding: 42 42 78
Width: 1167
VWidth: 0
Flags: W
VStem: 451 218<654.529 943.098 1277.63 1555.94>
LayerCount: 2
Fore
SplineSet
669 713 m 1
 669 809 624 928 607 1023 c 1
 672 967 746 868 819 824 c 0
 841 811 863 803 886 801 c 1
 935 814 980 863 991 918 c 1
 982 1047 766 1051 647 1105 c 1
 765 1157 985 1168 991 1293 c 1
 980 1346 936 1395 886 1409 c 1
 793 1402 700 1271 623 1198 c 0
 616 1192 610 1189 605 1185 c 1
 621 1275 668 1381 668 1471 c 0
 668 1534 625 1572 582 1581 c 1
 524 1581 467 1553 452 1498 c 1
 452 1398 503 1285 514 1184 c 1
 445 1239 374 1339 300 1384 c 0
 278 1398 256 1407 233 1409 c 1
 183 1395 140 1346 129 1293 c 1
 135 1167 349 1157 472 1105 c 1
 352 1054 138 1045 129 918 c 1
 140 863 184 814 234 801 c 1
 323 808 418 936 495 1010 c 0
 502 1016 508 1020 512 1024 c 1
 498 936 451 829 451 740 c 0
 451 676 494 638 537 629 c 1
 595 629 654 658 669 713 c 1
EndSplineSet
EndChar

StartChar: at
Encoding: 64 64 79
Width: 1824
VWidth: 0
Flags: W
HStem: -142 171<720.269 1245.43> 189 149.702<1311.1 1497.27> 213.794 153.206<773.749 1051.71> 974 168.24<836.741 1092.01> 1317 174<730.995 1232.79>
VStem: 122 188<428.162 904.362> 492 201.869<450.428 815.38> 1599.1 182.904<473.246 960.51>
DStem2: 1104 419 1306 511 0.113359 0.993554<45.5483 488.448 629.36 693.087>
LayerCount: 2
Back
SplineSet
1035 419 m 5xb7c0
 988 385 940 368 896 368 c 4
 778 368 690 457 694 630 c 5
 700.946 817.545 809.355 974 968 974 c 4
 1041 974 1107 929 1150 871 c 5
 1150 713 1099 519 1035 419 c 5xb7c0
1782 744 m 4
 1782 1177 1451 1491 981 1491 c 4
 486 1491 122 1147 122 667 c 4
 122 192 475 -142 982 -142 c 4
 1143 -142 1322 -88 1459 11 c 5
 1410 134 l 5
 1284 65 1134 29 982 29 c 4
 588 29 310 287 310 665 c 4
 310 1033 577 1317 986 1317 c 4
 1356 1317 1600 1069 1599 714 c 5
 1597 670 1593 617 1582 567 c 5
 1561 456 1511 352 1409 339 c 5
 1368 337 1323 346 1309 374 c 5
 1307 398 1310 424 1310 446 c 5
 1307 466 1306 488 1306 511 c 4
 1306 522 1309 535 1314 548 c 5
 1334 735 1354 921 1374 1107 c 5
 1188 1107 l 5
 1185 1089 1181 1066 1178 1044 c 5
 1127 1071 1077 1084 1028 1084 c 5xcfc0
 1011 1125 979 1142 944 1142 c 4
 687 1142 492 908 492 605 c 4
 492 408 607 259 764 219 c 5
 845 205 903 221 960 246 c 5xb7c0
 1021 246 1095 274 1155 320 c 5
 1187 226 1258 189 1363 189 c 4xc7c0
 1612 189 1782 402 1782 744 c 4
EndSplineSet
Fore
SplineSet
693.869 618.754 m 0xbf
 693.869 812.454 808.734 974 968 974 c 0
 1041 974 1107 929 1150 871 c 1
 1104 419 l 1
 1034.01 384.333 962.525 367 897 367 c 0
 781.013 367 693.869 452.484 693.869 618.754 c 0xbf
1599.1 725.898 m 0
 1599.1 561.846 1555.58 338.702 1397.16 338.702 c 0
 1320.23 338.702 1300.91 379.046 1300.91 441.394 c 0
 1300.91 462.343 1303.09 485.777 1306 511 c 2
 1374 1107 l 1
 1188 1107 l 1
 1178 1044 l 1
 1128.91 1077.46 1078.36 1142.24 930.253 1142.24 c 0
 680.225 1142.24 492 902.57 492 605 c 0
 492 400.682 632.756 213.794 852.125 213.794 c 0xbf
 950.284 213.794 1080.27 251.923 1136 320 c 1
 1170.92 226 1248.41 189 1363 189 c 0xdf
 1612 189 1782 402 1782 744 c 0
 1782 1177 1451 1491 981 1491 c 0
 486 1491 122 1147 122 667 c 0
 122 192 475 -142 982 -142 c 0
 1143 -142 1322 -88 1459 11 c 1
 1410 134 l 1
 1284 65 1134 29 982 29 c 0
 588 29 310 287 310 665 c 0
 310 1033 577 1317 986 1317 c 0
 1351.85 1317 1599.1 1074.42 1599.1 725.898 c 0
EndSplineSet
EndChar

StartChar: atilde
Encoding: 227 227 80
Width: 1204
VWidth: 0
Flags: HW
HStem: -19 246<444.864 617.226> 503 190<484.358 750> 862 258<272.086 686.084> 1256 200<605.729 816.363>
VStem: 61 357<255.966 450.738> 750 358<293.149 503 695 804.606> 829 212<1468.17 1552>
LayerCount: 2
Fore
SplineSet
1041 1552 m 1xfa
 829 1552 l 1
 822 1484 795 1456 738 1456 c 0
 713 1456 665 1479 630 1491 c 0
 574 1511 518 1543 451 1543 c 0
 282 1543 175 1419 163 1247 c 1
 373 1247 l 1
 377 1299 387 1327 436 1332 c 1
 462 1342 491 1338 518 1327 c 1
 589.817 1307.66 661.583 1256 754 1256 c 0
 931 1256 1024 1359 1041 1552 c 1xfa
750 503 m 1xfc
 750 268 664 227 562 227 c 0
 470 227 418 273 418 351 c 0
 418 490 548 487 750 503 c 1xfc
1108 0 m 1
 1108 748 l 2
 1108 1005 934 1120 553 1120 c 0
 387 1120 213 1082 142 1031 c 1
 201 790 l 1
 219 804 239 813 265 816 c 1
 320 835 388 852 453 862 c 1
 517 867 555 862 580 846 c 1
 699 834 750 792 750 695 c 1
 678 695 607 695 537 693 c 1
 250 679 61 564 61 316 c 0
 61 134 190 -6 378 -19 c 1
 438 -22 490 -15 536 -2 c 1
 646 23 706 78 748 148 c 1
 750 148 l 1
 750 0 l 1
 1108 0 l 1
EndSplineSet
EndChar

StartChar: b
Encoding: 98 98 81
Width: 1269
VWidth: 0
Flags: W
HStem: -22 276<576.456 916.29> 0 21G<126 486> 846 274<619.122 958.034> 1501 20G<126 485>
VStem: 126 359<0 88 261.822 815.318 987 1521> 841 366<341.19 776.605>
LayerCount: 2
Fore
SplineSet
841 554 m 0xbc
 841 746 797 846 645 846 c 0
 571.887 846 527.384 822 485 780 c 1
 485 277 l 1
 511.875 261 566.7 254 614 254 c 0
 793 254 841 376 841 554 c 0xbc
808 1120 m 0
 1108.07 1120 1207 900.079 1207 557 c 0
 1207 226.125 1064.58 -22 768 -22 c 0xbc
 641 -22 568 16 485 88 c 1
 486 0 l 1
 126 0 l 1x7c
 126 1521 l 1
 485 1521 l 1
 485 987 l 1
 585 1067 674 1120 808 1120 c 0
EndSplineSet
EndChar

StartChar: backslash
Encoding: 92 92 82
Width: 1126
VWidth: 0
Flags: HW
VStem: 177 287<1240 1527> 720 285<-218 67>
DStem2: 464 1527 177 1527 0.297122 -0.95484<0 1742.26>
LayerCount: 2
Fore
SplineSet
1005 -218 m 1
 464 1527 l 1
 177 1527 l 1
 720 -218 l 1
 1005 -218 l 1
EndSplineSet
EndChar

StartChar: bar
Encoding: 124 124 83
Width: 1169
VWidth: 0
Flags: HW
VStem: 444 280
LayerCount: 2
Fore
SplineSet
724 -433 m 1
 724 1549 l 1
 444 1549 l 1
 444 -433 l 1
 724 -433 l 1
EndSplineSet
EndChar

StartChar: braceleft
Encoding: 123 123 84
Width: 1078
VWidth: 0
Flags: HW
HStem: -327 211<728.625 919> 485 226<15 241.389> 1312 211<739.598 927>
VStem: 352 322<-62.4178 148 182 380.904 811.769 1020 1079 1245.32>
CounterMasks: 1 e0
LayerCount: 2
Fore
SplineSet
995 -327 m 1
 995 -115 l 1
 969 -115 942 -116 919 -116 c 0
 738 -116 674 -91 674 148 c 2
 674 229 l 2
 674 439 547 544 404 589 c 1
 404 607 l 1
 578 662 674 775 674 1020 c 2
 674 1079 l 2
 674 1282 753 1312 927 1312 c 0
 950 1312 973 1312 995 1312 c 1
 995 1523 l 1
 939 1523 897 1523 841 1523 c 0
 561 1523 352 1483 352 1194 c 2
 352 1013 l 2
 352 818 286 719 84 711 c 1
 60 709 34 711 15 711 c 1
 15 485 l 1
 37 485 59 483 80 481 c 0
 289 467 352 379 352 182 c 2
 352 44 l 2
 352 -201 483 -332 727 -329 c 0
 789 -328 848 -328 909 -327 c 0
 937 -327 966 -327 995 -327 c 1
EndSplineSet
EndChar

StartChar: braceright
Encoding: 125 125 85
Width: 1078
VWidth: 0
Flags: HW
HStem: -327 212<82 341.13> 485 226<843.127 1063> 1312 211<190 350.086>
VStem: 404 321<-57.8005 378.578 825.019 1249.34>
LayerCount: 2
Fore
SplineSet
1063 485 m 1
 1063 711 l 1
 1039 711 1016 714 994 717 c 1
 779 736 725 835 725 1045 c 2
 725 1138 l 2
 725 1395 608 1528 353 1525 c 0
 261 1524 172 1523 82 1523 c 1
 82 1312 l 1
 123 1312 159 1313 190 1311 c 1
 349 1306 404 1276 404 1040 c 2
 404 972 l 2
 404 755 528 653 672 607 c 1
 672 589 l 1
 529 543 404 436 404 225 c 2
 404 148 l 2
 404 -110 328 -115 82 -115 c 1
 82 -327 l 1
 253 -327 l 1
 466 -329 655 -311 710 -129 c 1
 722 -81 726 -25 725 16 c 0
 724 330 719 461 994 480 c 1
 1016 483 1039 485 1063 485 c 1
EndSplineSet
EndChar

StartChar: bracketleft
Encoding: 91 91 86
Width: 841
VWidth: 0
Flags: HW
VStem: 145 596
LayerCount: 2
Fore
SplineSet
741 -327 m 1
 741 -102 l 1
 454 -102 l 1
 454 1298 l 1
 741 1298 l 1
 741 1523 l 1
 145 1523 l 1
 145 -327 l 1
 741 -327 l 1
EndSplineSet
EndChar

StartChar: bracketright
Encoding: 93 93 87
Width: 841
VWidth: 0
Flags: HW
VStem: 99 597
LayerCount: 2
Fore
SplineSet
696 -327 m 1
 696 1523 l 1
 99 1523 l 1
 99 1298 l 1
 387 1298 l 1
 387 -102 l 1
 99 -102 l 1
 99 -327 l 1
 696 -327 l 1
EndSplineSet
EndChar

StartChar: breve
Encoding: 728 728 88
Width: 894
VWidth: 0
Flags: HW
HStem: 1220 174<324.459 575.589>
VStem: 82 191<1443.88 1568> 627 193<1451.59 1568>
LayerCount: 2
Fore
SplineSet
820 1568 m 1
 627 1568 l 1
 619 1464 569 1394 451 1394 c 0
 320 1394 282 1469 273 1568 c 1
 82 1568 l 1
 86 1341 209 1220 451 1220 c 0
 674 1220 816 1341 820 1568 c 1
EndSplineSet
EndChar

StartChar: brokenbar
Encoding: 166 166 89
Width: 455
VWidth: 0
Flags: HW
VStem: 147 160
LayerCount: 2
Fore
SplineSet
147 -358 m 1
 307 -358 l 1
 307 358 l 1
 147 358 l 1
 147 -358 l 1
147 666 m 1
 307 666 l 1
 307 1382 l 1
 147 1382 l 1
 147 666 l 1
EndSplineSet
EndChar

StartChar: bullet
Encoding: 8226 8226 90
Width: 1318
VWidth: 0
Flags: HW
HStem: 217 954<454.871 862.162>
VStem: 158 1001<499.571 879.062>
LayerCount: 2
Fore
SplineSet
1159 695 m 0
 1159 955 932 1171 658 1171 c 0
 388 1171 158 955 158 695 c 0
 158 434 386 217 658 217 c 0
 930 217 1159 433 1159 695 c 0
EndSplineSet
EndChar

StartChar: c
Encoding: 99 99 91
Width: 1022
VWidth: 0
Flags: W
HStem: -25 259.856<521.435 884.112> 864.1 255.9<533.774 867.627>
VStem: 44 366<355.275 739.546>
LayerCount: 2
Back
SplineSet
679 860 m 4
 528 860 406 781 406 551 c 4
 406 326 538 230 693 230 c 6
 695 230 l 6
 801 230 905 276 976 359 c 5
 975 44 l 5
 870 -5 764 -25 656 -25 c 4
 338 -25 40 127 40 550 c 4
 40 948 316 1120 667 1120 c 4
 836 1120 972 1072 1085 1010 c 5
 1030 747 l 5
 940 817 833 860 679 860 c 4
EndSplineSet
Fore
SplineSet
676.084960938 234.856445312 m 4
 529.571448213 234.856445312 410 313.688476562 410 544 c 0
 410 772.463867188 536.900466034 864.099609375 689.51171875 864.099609375 c 4
 782.436164228 864.099609375 894.599803478 819.240234375 988.67578125 745 c 1
 1043.67578125 1008.62988281 l 1
 903.046875 1087.97167969 765.6640625 1120 635 1120 c 0
 342 1120 44 968 44 545 c 0
 44 147 320 -25 644.900390625 -25 c 0
 796.659179688 -25 932.306640625 22.6484375 1045.67578125 85.119140625 c 1
 990.67578125 348 l 1
 905.903985343 278.479492188 806.363119985 234.856445312 676.084960938 234.856445312 c 4
EndSplineSet
EndChar

StartChar: caron
Encoding: 711 711 92
Width: 893
VWidth: 0
Flags: HW
HStem: 1245 165<326 564>
LayerCount: 2
Fore
SplineSet
895 1605 m 1
 622 1605 l 1
 446 1410 l 1
 270 1605 l 1
 -6 1605 l 1
 326 1245 l 1
 564 1245 l 1
 895 1605 l 1
EndSplineSet
EndChar

StartChar: ccedilla
Encoding: 231 231 93
Width: 1068
VWidth: 0
Flags: HW
HStem: -463 105<316.888 578.293> -197 74<510 574.264> 842 209<373.532 673.251>
VStem: 55 209<311.012 724.473> 590 160<-342.74 -208.813>
LayerCount: 2
Fore
SplineSet
367 -180 m 1
 412 -219 l 1
 438 -203 463 -197 489 -197 c 0
 545 -197 590 -221 590 -272 c 0
 590 -334 541 -358 471 -358 c 0
 422 -358 373 -344 328 -328 c 1
 291 -414 l 1
 358 -440 434 -463 498 -463 c 0
 631 -463 750 -401 750 -270 c 0
 750 -186 682 -115 569 -115 c 0
 549 -115 526 -119 514 -123 c 1
 510 -123 l 1
 596 -10 l 1
 721 10 823 80 899 168 c 1
 745 305 l 1
 694 242 621 197 535 197 c 0
 365 197 264 293 264 518 c 0
 264 745 365 842 535 842 c 0
 621 842 694 797 745 733 c 1
 899 870 l 1
 809 975 684 1051 526 1051 c 0
 287 1051 55 899 55 518 c 0
 55 158 264 4 489 -12 c 1
 367 -180 l 1
EndSplineSet
EndChar

StartChar: cedilla
Encoding: 184 184 94
Width: 995
VWidth: 0
Flags: HW
HStem: -547 139<282.45 547.89>
VStem: 576 180<-379.161 -222.179>
LayerCount: 2
Fore
SplineSet
428 -547 m 0
 625 -547 741 -442 756 -317 c 0
 756 -310 756 -303 757 -296 c 0
 757 -290 756 -283 756 -276 c 0
 750 -204 706 -142 616 -117 c 0
 583 -107 542 -104 499 -103 c 1
 542 2 l 1
 431 2 l 1
 362 -195 l 1
 380 -198 397 -202 413 -207 c 1
 502.057 -187.21 576 -231.563 576 -298 c 0
 576 -358 522 -408 430 -408 c 0
 387 -408 356 -391 328 -374 c 1
 303 -374 279 -369 255 -363 c 1
 225 -501 l 1
 279 -527 374 -547 428 -547 c 0
EndSplineSet
EndChar

StartChar: cent
Encoding: 162 162 95
Width: 1245
VWidth: 0
Flags: HW
HStem: -22 265<592.519 683 837 944.897> 865 265<600.372 683 837 932.271>
VStem: 125 358<360.748 739.311>
LayerCount: 2
Fore
SplineSet
687 243 m 1
 564 269 483 370 483 549 c 0
 483 715 558 836 683 865 c 1
 687 243 l 1
1128 99 m 1
 1110 329 l 1
 1085 340 1059 351 1034 363 c 1
 994 311 921 260 833 241 c 1
 833 865 l 1
 917 842 1001 781 1034 742 c 1
 1059 753 1085 765 1110 776 c 1
 1128 1005 l 1
 1092 1043 981 1105 837 1125 c 1
 837 1390 l 1
 683 1390 l 1
 683 1130 l 1
 385 1110 125 950 125 551 c 0
 125 182 351 -1 683 -22 c 1
 683 -309 l 1
 837 -309 l 1
 837 -18 l 1
 955 -4 1069 51 1128 99 c 1
EndSplineSet
EndChar

StartChar: circumflex
Encoding: 710 710 96
Width: 893
VWidth: 0
Flags: HW
HStem: 1430 175<321 572>
LayerCount: 2
Fore
SplineSet
878 1241 m 1
 572 1605 l 1
 321 1605 l 1
 16 1241 l 1
 289 1241 l 1
 445 1430 l 1
 601 1241 l 1
 878 1241 l 1
EndSplineSet
EndChar

StartChar: colon
Encoding: 58 58 97
Width: 635
VWidth: 0
Flags: HW
HStem: -24 437<187.897 452.221> 660 437<178.424 454.613>
VStem: 101 434<57.8926 328.305 737.305 857 896 1016.96>
LayerCount: 2
Fore
SplineSet
535 162 m 1
 538 301 468 396 350 413 c 1
 210 416 119 341 101 224 c 1
 98 84 167 -7 286 -24 c 1
 426 -28 517 43 535 162 c 1
535 851 m 0
 535 866 535 881 535 896 c 1
 526 1018 444 1097 312 1097 c 1
 184 1099 106 1022 101 902 c 0
 101 887 101 873 101 857 c 1
 110 735 192 660 324 660 c 1
 451 658 529 731 535 851 c 0
EndSplineSet
EndChar

StartChar: comma
Encoding: 44 44 98
Width: 585
VWidth: 0
Flags: HW
HStem: -293 651
LayerCount: 2
Fore
SplineSet
504 358 m 1
 146 358 l 1
 4 -293 l 1
 186 -279 l 1
 248 -179 310 -79 373 22 c 1
 504 358 l 1
EndSplineSet
EndChar

StartChar: copyright
Encoding: 169 169 99
Width: 1846
VWidth: 0
Flags: HW
HStem: -142 193<691.401 1159.88> 234 166<838.598 1128.39> 970 171<834.162 1124.61> 1310 193<687.564 1153.7>
VStem: 65 211<454.787 905.701> 500 237<509.47 865.269> 1212 64<489.072 534> 1571 210<451.419 906.314>
LayerCount: 2
Fore
SplineSet
1140 274 m 1
 1209 319 1262 410 1276 534 c 1
 1255 534 1233 534 1212 534 c 1
 1197 484 1106 400 970 400 c 0
 828 400 737 516 737 685 c 0
 737 858 819 970 969 970 c 0
 1094 970 1181 894 1212 839 c 1
 1233 839 1255 839 1276 840 c 1
 1272 917 1261 988 1243 1052 c 1
 1163 1107 1064 1141 956 1141 c 0
 694 1141 500 963 500 685 c 0
 500 406 690 251 924 234 c 1
 1016 231 1094 262 1140 274 c 1
1571 681 m 0
 1571 316.909 1270.9 51 923 51 c 0
 583 51 276 311 276 681 c 0
 276 1036 568 1310 923 1310 c 0
 1265 1310 1571 1049 1571 681 c 0
923 -142 m 0
 1395.74 -142 1781 229.422 1781 681 c 0
 1781 1138 1384 1503 923 1503 c 0
 450.738 1503 65 1132.15 65 681 c 0
 65 203.523 468.921 -142 923 -142 c 0
EndSplineSet
EndChar

StartChar: currency
Encoding: 164 164 100
Width: 983
VWidth: 0
Flags: HW
HStem: 289 147<335.618 652.284> 1022 147<335.618 652.284>
VStem: 53 160<557.773 900.018> 774 160<557.268 900.018>
DStem2: 139 1190 31 1083 0.707107 -0.707107<0 149.291 1002.84 1151.17> 31 375 139 268 0.707107 0.707107<0.707108 150.506 1003.4 1151.88>
LayerCount: 2
Fore
SplineSet
31 375 m 1
 139 268 l 1
 240 369 l 1
 297 326 393 289 494 289 c 0
 594 289 684 322 745 369 c 1
 846 268 l 1
 952 375 l 1
 854 475 l 1
 899 532 934 627 934 729 c 0
 934 829 899 924 854 983 c 1
 952 1083 l 1
 846 1190 l 1
 745 1092 l 1
 684 1137 594 1169 494 1169 c 0
 393 1169 297 1135 240 1090 c 1
 139 1190 l 1
 31 1083 l 1
 131 983 l 1
 84 924 53 829 53 729 c 0
 53 629 86 532 131 477 c 1
 31 375 l 1
213 729 m 0
 213 909 326 1022 494 1022 c 0
 662 1022 774 909 774 729 c 0
 774 549 662 436 494 436 c 0
 326 436 213 549 213 729 c 0
EndSplineSet
EndChar

StartChar: d
Encoding: 100 100 101
Width: 1283
VWidth: 0
Flags: W
HStem: -22 259.021<362.255 703.774> 0 21G<792 1151> 857.695 262.305<498.611 696.208> 1501 20G<792 1151>
VStem: 70 365<339.442 779.955> 792 359<0 82 247.258 820.721 1016 1521>
LayerCount: 2
Fore
SplineSet
792 259 m 1x3c
 792 801 l 1
 714.427 840.019 652.764 857.695 604.063 857.695 c 0
 471.558 857.695 435 726.848 435 539 c 0
 435 364.317 499.359 237.021 661.521 237.021 c 0
 699.505 237.021 742.855 244.005 792 259 c 1x3c
70 559 m 0
 70 905.834 194.342 1120 513 1120 c 0
 630 1120 705 1077 792 1016 c 1
 792 1521 l 1
 1151 1521 l 1
 1151 0 l 1
 792 0 l 1x7c
 792 82 l 1
 708 14 636 -22 509 -22 c 0xbc
 215.51 -22 70 222.304 70 559 c 0
EndSplineSet
EndChar

StartChar: dagger
Encoding: 8224 8224 102
Width: 1253
VWidth: 0
Flags: HW
LayerCount: 2
Fore
SplineSet
1124 868 m 1
 1124 1088 l 1
 764 1088 l 1
 764 1523 l 1
 492 1523 l 1
 492 1090 l 1
 128 1090 l 1
 128 871 l 1
 488 871 l 1
 488 -53 l 1
 761 -53 l 1
 761 868 l 1
 1124 868 l 1
EndSplineSet
EndChar

StartChar: daggerdbl
Encoding: 8225 8225 103
Width: 1253
VWidth: 0
Flags: HW
LayerCount: 2
Fore
SplineSet
1124 353 m 1
 1124 572 l 1
 759 572 l 1
 759 907 l 1
 1124 907 l 1
 1124 1126 l 1
 764 1126 l 1
 764 1523 l 1
 492 1523 l 1
 492 1129 l 1
 128 1129 l 1
 128 910 l 1
 494 910 l 1
 494 575 l 1
 128 575 l 1
 128 355 l 1
 489 355 l 1
 489 -50 l 1
 761 -50 l 1
 761 353 l 1
 1124 353 l 1
EndSplineSet
EndChar

StartChar: degree
Encoding: 176 176 104
Width: 1012
VWidth: 0
Flags: HW
HStem: 809 113<372.289 640.219> 1354 112<372.496 636.078>
VStem: 159 126<1008.5 1266.56> 727 127<1008.93 1266.35>
LayerCount: 2
Fore
SplineSet
854 1138 m 0
 854 954 698 809 506 809 c 0
 314 809 159 955 159 1138 c 0
 159 1322 316 1466 506 1466 c 0
 698 1466 854 1321 854 1138 c 0
727 1138 m 0
 727 1255 629 1354 506 1354 c 0
 383 1354 285 1255 285 1138 c 0
 285 1016 384 922 506 922 c 0
 630 922 727 1019 727 1138 c 0
EndSplineSet
EndChar

StartChar: dieresis
Encoding: 168 168 105
Width: 888
VWidth: 0
Flags: HW
HStem: 1246 281
VStem: 399 86<1250.36 1525>
LayerCount: 2
Fore
SplineSet
483 1246 m 1
 483 1339 484 1432 485 1525 c 1
 454 1524 424 1524 394 1524 c 2
 343 1524 l 2
 291 1524 238 1525 184 1527 c 1
 184 1246 l 1
 232 1249 277 1250 324 1250 c 0
 377 1250 429 1248 483 1246 c 1
699 1246 m 1
 699 1339 699 1432 699 1525 c 1
 648 1524 599 1524 546 1524 c 0
 499 1524 450 1525 399 1527 c 1
 399 1246 l 1
 450 1248 499 1250 547 1250 c 0
 597 1250 647 1248 699 1246 c 1
EndSplineSet
EndChar

StartChar: divide
Encoding: 247 247 106
Width: 1588
VWidth: 0
Flags: HW
HStem: 927 345<659.423 871.143>
VStem: 627 333<927.143 1222.86>
LayerCount: 2
Fore
SplineSet
918 877 m 1
 942 970 963 1086 960 1206 c 1
 976 1213 984 1220 991 1223 c 1
 886 1243 781 1260 669 1272 c 1
 646 1179 624 1064 627 944 c 1
 612 936 602 930 595 927 c 1
 701 907 806 889 918 877 c 1
958 28 m 1
 958 131 937 230 911 307 c 1
 808 307 709 286 630 260 c 1
 630 157 651 59 676 -19 c 1
 781 -19 878 2 958 28 c 1
1426 485 m 1
 1426 735 l 1
 161 735 l 1
 161 485 l 1
 1426 485 l 1
EndSplineSet
EndChar

StartChar: dollar
Encoding: 36 36 107
Width: 1244
VWidth: 0
Flags: HW
HStem: -7 272<318.26 538 700 780.848> 1128 269<472.815 538 700 927.231>
VStem: 76 359<906.286 1096.98> 822 364<309.451 503.743>
LayerCount: 2
Fore
SplineSet
550 879 m 1
 445 906 435 945 435 1001 c 0
 435 1082 491 1122 550 1128 c 1
 550 879 l 1
822 410 m 0
 822 327 769 280 689 266 c 1
 689 543 l 1
 787 526 822 470 822 410 c 0
1186 437 m 0
 1186 681 1034 791 695 858 c 1
 695 1129 l 1
 810 1123 912 1100 994 1052 c 1
 1012 1047 1028 1042 1046 1035 c 1
 1089 1299 l 1
 1003 1352 820 1395 700 1398 c 1
 700 1589 l 1
 538 1589 l 1
 538 1397 l 1
 251 1366 76 1211 76 999 c 0
 76 692 321 614 542 564 c 1
 542 265 l 1
 413 271 232 328 177 368 c 1
 161 374 146 381 131 387 c 1
 79 123 l 1
 179 52 400 -6 538 -7 c 1
 538 -318 l 1
 700 -318 l 1
 700 -4 l 1
 998 15 1186 209 1186 437 c 0
EndSplineSet
EndChar

StartChar: dotaccent
Encoding: 729 729 108
Width: 899
VWidth: 0
Flags: HW
VStem: 266 368
LayerCount: 2
Fore
SplineSet
634 1246 m 1
 634 1339 634 1432 635 1525 c 1
 597 1524 560 1524 522 1524 c 2
 472 1524 l 2
 405 1524 336 1525 266 1527 c 1
 266 1246 l 1
 322 1249 372 1250 426 1250 c 0
 495 1250 563 1248 634 1246 c 1
EndSplineSet
EndChar

StartChar: dotlessi
Encoding: 305 305 109
Width: 614
VWidth: 0
Flags: HW
VStem: 128 358
LayerCount: 2
Fore
SplineSet
486 0 m 1
 486 1096 l 1
 128 1096 l 1
 128 0 l 1
 486 0 l 1
EndSplineSet
EndChar

StartChar: e
Encoding: 101 101 110
Width: 1206
VWidth: 0
Flags: W
HStem: -25 257<517.025 936.448> 891 229<476.046 733.096>
VStem: 51 359<343.532 465 680 793.047>
LayerCount: 2
Fore
SplineSet
796 680 m 5
 410 680 l 5
 414 817 488 891 607 891 c 4
 724 891 790 819 796 680 c 5
1144 465 m 5
 1144 614 l 6
 1144 939 955 1120 631 1120 c 4
 283 1120 51 922 51 543 c 4
 51 147 304 -25 686 -25 c 4
 911 -25 1041 36 1126 96 c 5
 1071 351 l 5
 997.797 290.869 852.546 232 719 232 c 4
 551 232 424 286 410 465 c 5
 1144 465 l 5
EndSplineSet
EndChar

StartChar: eacute
Encoding: 233 233 111
Width: 1197
VWidth: 0
Flags: HW
HStem: -25 257<517.025 902.923> 891 229<476.046 733.096>
VStem: 51 359<343.532 465 680 793.047>
LayerCount: 2
Fore
SplineSet
908 1605 m 1
 558 1605 l 1
 343 1239 l 1
 592 1239 l 1
 908 1605 l 1
796 680 m 1
 410 680 l 1
 414 817 488 891 607 891 c 0
 724 891 790 819 796 680 c 1
1144 465 m 1
 1144 614 l 2
 1144 939 955 1120 631 1120 c 0
 283 1120 51 922 51 543 c 0
 51 147 304 -25 686 -25 c 0
 911 -25 1041 36 1126 96 c 1
 1071 351 l 1
 1043 328 1005 314 970 314 c 1
 917 280 832 232 719 232 c 0
 551 232 424 286 410 465 c 1
 1144 465 l 1
EndSplineSet
EndChar

StartChar: ecircumflex
Encoding: 234 234 112
Width: 1197
VWidth: 0
Flags: HW
HStem: -25 257<517.025 902.923> 891 229<476.046 733.096>
VStem: 51 359<343.532 465 680 793.047>
LayerCount: 2
Fore
SplineSet
1029 1241 m 1
 724 1605 l 1
 472 1605 l 1
 167 1241 l 1
 441 1241 l 1
 597 1430 l 1
 752 1241 l 1
 1029 1241 l 1
796 680 m 1
 410 680 l 1
 414 817 488 891 607 891 c 0
 724 891 790 819 796 680 c 1
1144 465 m 1
 1144 614 l 2
 1144 939 955 1120 631 1120 c 0
 283 1120 51 922 51 543 c 0
 51 147 304 -25 686 -25 c 0
 911 -25 1041 36 1126 96 c 1
 1071 351 l 1
 1043 328 1005 314 970 314 c 1
 917 280 832 232 719 232 c 0
 551 232 424 286 410 465 c 1
 1144 465 l 1
EndSplineSet
EndChar

StartChar: edieresis
Encoding: 235 235 113
Width: 1197
VWidth: 0
Flags: HW
HStem: -25 257<517.025 902.923> 891 229<476.046 733.096>
VStem: 51 359<343.532 465 680 793.047>
LayerCount: 2
Fore
SplineSet
510 1246 m 1
 510 1339 510 1432 511 1525 c 1
 479 1524 448 1524 416 1524 c 2
 391 1524 l 2
 331 1524 273 1525 211 1527 c 1
 211 1246 l 1
 251 1249 289 1250 327 1250 c 0
 388 1250 448 1248 510 1246 c 1
987 1246 m 1
 987 1339 988 1432 988 1525 c 1
 937 1524 887 1524 835 1524 c 0
 788 1524 739 1525 687 1527 c 1
 687 1246 l 1
 739 1248 787 1250 836 1250 c 0
 886 1250 935 1248 987 1246 c 1
796 680 m 1
 410 680 l 1
 414 817 488 891 607 891 c 0
 724 891 790 819 796 680 c 1
1144 465 m 1
 1144 614 l 2
 1144 939 955 1120 631 1120 c 0
 283 1120 51 922 51 543 c 0
 51 147 304 -25 686 -25 c 0
 911 -25 1041 36 1126 96 c 1
 1071 351 l 1
 1043 328 1005 314 970 314 c 1
 917 280 832 232 719 232 c 0
 551 232 424 286 410 465 c 1
 1144 465 l 1
EndSplineSet
EndChar

StartChar: egrave
Encoding: 232 232 114
Width: 1197
VWidth: 0
Flags: HW
HStem: -25 257<517.025 902.923> 891 229<476.046 733.096>
VStem: 51 359<343.532 465 680 793.047>
LayerCount: 2
Fore
SplineSet
855 1239 m 1
 639 1605 l 1
 289 1605 l 1
 606 1239 l 1
 855 1239 l 1
796 680 m 1
 410 680 l 1
 414 817 488 891 607 891 c 0
 724 891 790 819 796 680 c 1
1144 465 m 1
 1144 614 l 2
 1144 939 955 1120 631 1120 c 0
 283 1120 51 922 51 543 c 0
 51 147 304 -25 686 -25 c 0
 911 -25 1041 36 1126 96 c 1
 1071 351 l 1
 1043 328 1005 314 970 314 c 1
 917 280 832 232 719 232 c 0
 551 232 424 286 410 465 c 1
 1144 465 l 1
EndSplineSet
EndChar

StartChar: eight
Encoding: 56 56 115
Width: 1432
VWidth: 0
Flags: W
HStem: -26 267<589.385 857.345> 1240 265<591.72 841.043>
VStem: 136 370<320.165 578.671> 173 374<981.217 1194.02> 891 362<966.891 1190.41> 921 374<302.924 543.62>
LayerCount: 2
Fore
SplineSet
891 1077 m 0xd8
 891 986 846 932 795 892 c 1
 619 950 547 972 547 1096 c 0
 547 1181 622 1240 718 1240 c 0
 821 1240 891 1177 891 1077 c 0xd8
921 409 m 0xe4
 921 292 803 241 729 241 c 0
 600 241 506 323 506 450 c 0
 506 543 570 619 630 649 c 1
 917.166 617.87 921 466.495 921 409 c 0xe4
1295 420 m 0
 1295 585 1215 715 1037 794 c 1
 1195.89 867.153 1257.19 1045.05 1253 1154 c 1
 1236 1351 1064 1505 717 1505 c 0
 365 1505 173 1310 173 1094 c 0xd8
 173 985.988 226.134 829.133 385 746 c 1
 223 672 136 569 136 410 c 0
 136 163 327 -26 714 -26 c 0
 1077 -26 1295 162 1295 420 c 0
EndSplineSet
EndChar

StartChar: ellipsis
Encoding: 8230 8230 116
Width: 2240
VWidth: 0
Flags: HW
HStem: 0 373
VStem: 201 343<224 373> 1691 353<226 373>
LayerCount: 2
Fore
SplineSet
1292 -3 m 1
 1292 121 1294 246 1296 373 c 1
 1182 373 1064 375 949 377 c 1
 949 252 947 128 944 0 c 1
 1059 0 1176 -1 1292 -3 c 1
550 0 m 1
 547 76 544 149 544 224 c 0
 544 271 547 322 550 373 c 1
 198 373 l 1
 200 297 201 225 201 150 c 0
 201 102 200 52 198 0 c 1
 550 0 l 1
2044 0 m 1
 2043 77 2039 150 2039 226 c 0
 2039 274 2040 322 2044 373 c 1
 1691 373 l 1
 1692 309 1694 246 1694 182 c 0
 1694 161 1695 140 1695 118 c 0
 1695 80 1692 41 1691 0 c 1
 2044 0 l 1
EndSplineSet
EndChar

StartChar: emdash
Encoding: 8212 8212 117
Width: 1949
VWidth: 0
Flags: HW
HStem: 497 262
LayerCount: 2
Fore
SplineSet
1996 497 m 1
 1996 759 l 1
 -47 759 l 1
 -47 497 l 1
 1996 497 l 1
EndSplineSet
EndChar

StartChar: endash
Encoding: 8211 8211 118
Width: 1263
VWidth: 0
Flags: HW
HStem: 497 262
LayerCount: 2
Fore
SplineSet
1310 497 m 1
 1310 759 l 1
 -47 759 l 1
 -47 497 l 1
 1310 497 l 1
EndSplineSet
EndChar

StartChar: equal
Encoding: 61 61 119
Width: 1588
VWidth: 0
Flags: HW
LayerCount: 2
Fore
SplineSet
1408 242 m 1
 1408 491 l 1
 181 491 l 1
 181 242 l 1
 1408 242 l 1
1408 728 m 1
 1408 977 l 1
 181 977 l 1
 181 728 l 1
 1408 728 l 1
EndSplineSet
EndChar

StartChar: estimated
Encoding: 8494 8494 120
Width: 1788
VWidth: 0
Flags: HW
HStem: -10 41<738.869 1053.07> 709 39<373 383 1405 1413> 1425 45<725.161 1059.75>
VStem: 70 303<490.249 709 748 965.941> 1413 303<748 965.941> 1425 117<159 276>
LayerCount: 2
Fore
SplineSet
1716 709 m 1xf8
 1716 727 l 2xf8
 1716 1139 1348 1470 891 1470 c 0
 438 1470 70 1139 70 727 c 0
 70 319 438 -10 891 -10 c 0
 1157 -10 1397 102 1542 276 c 1
 1425 276 l 1xf4
 1294 127 1106 31 893 31 c 0
 696 31 518 117 389 250 c 1
 379 262 373 279 373 297 c 2
 373 700 l 2
 373 707 377 709 383 709 c 2
 1716 709 l 1xf8
1413 762 m 2
 1413 756 1411 748 1405 748 c 2
 383 748 l 2
 377 748 373 756 373 762 c 2
 373 1157 l 2
 373 1178 379 1196 391 1208 c 0
 520 1339 698 1425 893 1425 c 0
 1090 1425 1264 1341 1395 1214 c 0
 1407 1202 1413 1184 1413 1167 c 2
 1413 762 l 2
EndSplineSet
EndChar

StartChar: eth
Encoding: 240 240 121
Width: 1024
VWidth: 0
Flags: HW
HStem: -12 209<377.015 646.985> 842 209<376.8 647.989>
VStem: 84 209<284.498 753.8> 731 209<281.927 914.164>
DStem2: 307 1219 385 1106 0.887731 0.460363<17.222 191.426 446.139 635.994>
LayerCount: 2
Fore
SplineSet
731 518 m 0
 731 369 719 328 680 272 c 0
 649 229 584 197 512 197 c 0
 440 197 375 229 344 272 c 0
 305 328 293 369 293 520 c 0
 293 670 305 711 344 766 c 0
 375 809 440 842 512 842 c 0
 584 842 649 809 680 766 c 0
 719 711 731 670 731 518 c 0
385 1106 m 1
 592 1212 l 1
 653 1151 700 1065 721 963 c 1
 717 958 l 1
 655 1028 575 1051 494 1051 c 0
 350 1051 254 981 197 918 c 0
 117 829 84 743 84 520 c 0
 84 295 117 209 197 121 c 0
 254 57 350 -12 512 -12 c 0
 674 -12 770 57 827 121 c 1
 926 229 940 297 940 553 c 0
 940 975 926 1108 766 1303 c 1
 950 1399 l 1
 872 1511 l 1
 659 1401 l 1
 582 1458 483 1507 360 1544 c 1
 295 1391 l 1
 367 1366 426 1339 477 1307 c 1
 307 1219 l 1
 385 1106 l 1
EndSplineSet
EndChar

StartChar: exclam
Encoding: 33 33 122
Width: 639
VWidth: 0
Flags: HW
HStem: -39 325<154 519>
VStem: 218 235<409 616.291>
LayerCount: 2
Fore
SplineSet
530 -39 m 1
 526 70 522 178 519 286 c 1
 394 283 269 280 144 278 c 1
 148 250 152 223 156 195 c 1
 155 117 154 40 154 -39 c 1
 530 -39 l 1
527 1479 m 1
 144 1479 l 1
 218 409 l 1
 453 409 l 1
 527 1479 l 1
EndSplineSet
EndChar

StartChar: exclamdown
Encoding: 161 161 123
Width: 639
VWidth: 0
Flags: HW
VStem: 112 384<-143 385.949> 141 327<398.051 927>
LayerCount: 2
Fore
SplineSet
519 1075 m 1x00
 519 1162 519 1248 520 1336 c 1
 478 1335 439 1335 398 1335 c 2
 343 1335 l 2
 270 1335 197 1336 122 1339 c 1
 122 1075 l 1
 182 1078 238 1078 296 1078 c 0
 370 1078 444 1077 519 1075 c 1x00
496 -143 m 1x80
 468 927 l 1
 141 927 l 1x40
 112 -143 l 1
 496 -143 l 1x80
EndSplineSet
EndChar

StartChar: f
Encoding: 102 102 124
Width: 755
VWidth: 0
Flags: W
HStem: 1273.45 254.55<541.783 787>
LayerCount: 2
Fore
SplineSet
787 1260 m 1
 787 1515 l 1
 729 1522 651 1528 573 1528 c 0
 289 1528 160 1405 160 1137 c 2
 160 1096 l 1
 24 1096 l 1
 24 860 l 1
 160 860 l 1
 160 0 l 1
 518 0 l 1
 518 860 l 1
 756 860 l 1
 756 1096 l 1
 674 1096 591 1096 509 1096 c 1
 509 1240.03 554.578 1273.45 642.121 1273.45 c 0
 681.873 1273.45 730.279 1266.56 787 1260 c 1
EndSplineSet
EndChar

StartChar: f_i
Encoding: 64257 64257 125
Width: 1063
VWidth: 0
Flags: HW
HStem: 1249 209<385.311 467>
LayerCount: 2
Fore
SplineSet
168 0 m 1
 377 0 l 1
 377 879 l 1
 586 879 l 1
 586 1038 l 1
 377 1038 l 1
 377 1176 l 2
 377 1239 399 1262 467 1262 c 2
 586 1262 l 1
 586 1458 l 1
 451 1458 l 2
 289 1458 168 1370 168 1176 c 2
 168 1038 l 1
 63 1038 l 1
 63 879 l 1
 168 879 l 1
 168 0 l 1
713 0 m 1
 922 0 l 1
 922 1038 l 1
 713 1038 l 1
 713 0 l 1
713 1249 m 1
 922 1249 l 1
 922 1458 l 1
 713 1458 l 1
 713 1249 l 1
EndSplineSet
EndChar

StartChar: f_l
Encoding: 64258 64258 126
Width: 1100
VWidth: 0
Flags: HW
HStem: 1262 196<385.311 467>
LayerCount: 2
Fore
SplineSet
168 0 m 1
 377 0 l 1
 377 879 l 1
 586 879 l 1
 586 1038 l 1
 377 1038 l 1
 377 1176 l 2
 377 1239 399 1262 467 1262 c 2
 586 1262 l 1
 586 1458 l 1
 451 1458 l 2
 289 1458 168 1370 168 1176 c 2
 168 1038 l 1
 63 1038 l 1
 63 879 l 1
 168 879 l 1
 168 0 l 1
713 252 m 2
 713 66 827 0 979 0 c 2
 1071 0 l 1
 1071 197 l 1
 999 197 l 2
 948 197 922 221 922 268 c 2
 922 1458 l 1
 713 1458 l 1
 713 252 l 2
EndSplineSet
EndChar

StartChar: five
Encoding: 53 53 127
Width: 1244
VWidth: 0
Flags: W
HStem: -24 296<338.607 720.13> 713 276<503.546 695.035>
VStem: 88 101<369.592 411> 788 380<341.44 629.679>
LayerCount: 2
Fore
SplineSet
560 272 m 1
 388.041 262.447 186.164 381.225 189 411 c 1
 88 411 l 1
 90 311 95 215 102 120 c 1
 202 32 365 -24 591 -24 c 0
 817 -24 975 58 1064 168 c 0
 1135 255 1168 358 1168 509 c 0
 1168 855 965 989 668 989 c 0
 624 989 556 978 500 958 c 1
 500 1196 l 1
 1123 1196 l 1
 1123 1479 l 1
 142 1479 l 1
 142 652 l 1
 252 644 l 1
 322 683 412 713 509 713 c 0
 645 713 788 660 788 504 c 0
 788 382 744 289 617 276 c 0
 597 273 579 272 560 272 c 1
EndSplineSet
EndChar

StartChar: florin
Encoding: 402 402 128
Width: 1245
VWidth: 0
Flags: HW
HStem: -256 274<49.9448 298.769> 1229 275<906.55 1170.99>
DStem2: 390 342 723 183 0.150319 0.988638<-284.665 335.744 605.549 925.754>
LayerCount: 2
Fore
SplineSet
1171 1212 m 1
 1183 1488 l 1
 1125 1499 1056 1504 1004 1504 c 0
 777 1504 557 1441 501 1082 c 2
 471 887 l 1
 292 887 l 1
 283 674 l 1
 440 674 l 1
 390 342 l 1
 380.194 207.98 336.013 18 204 18 c 0
 136 18 81 38 50 38 c 1
 37 -237 l 1
 82 -247 177 -256 231 -256 c 0
 480 -256 673 -141 723 183 c 2
 800 674 l 1
 1058 674 l 1
 1067 887 l 1
 834 887 l 1
 853 1038 l 1
 866 1133 886 1229 1024 1229 c 0
 1082 1229 1150 1214 1171 1212 c 1
EndSplineSet
EndChar

StartChar: four
Encoding: 52 52 129
Width: 1245
VWidth: 0
Flags: HW
DStem2: 25 414 252 414 0.427006 0.904249<96.9304 1151.99>
LayerCount: 2
Fore
SplineSet
25 217 m 1
 633 217 l 1
 633 0 l 1
 842 0 l 1
 842 217 l 1
 958 217 l 1
 958 414 l 1
 842 414 l 1
 842 834 l 1
 633 834 l 1
 633 414 l 1
 252 414 l 1
 745 1458 l 1
 512 1458 l 1
 25 414 l 1
 25 217 l 1
EndSplineSet
EndChar

StartChar: fraction
Encoding: 8260 8260 130
Width: 769
VWidth: 0
Flags: HW
DStem2: -183 -13 94 -13 0.490893 0.87122<135.977 1727.46>
LayerCount: 2
Fore
SplineSet
940 1492 m 1
 665 1492 l 1
 -183 -13 l 1
 94 -13 l 1
 940 1492 l 1
EndSplineSet
EndChar

StartChar: g
Encoding: 103 103 131
Width: 1264
VWidth: 0
Flags: W
HStem: -426 267<286.656 699.234> 7 257<489.308 680.302> 855.241 264.759<341.287 660.428> 1076 20G<769 1138>
VStem: 57 365<337.82 758.904> 771 367<-87.6157 117 289.992 842.526 968.673 1096>
LayerCount: 2
Fore
SplineSet
57 571 m 0xdc
 57 900.381 197.573 1120 485 1120 c 0xec
 600.058 1120 692.68 1079.8 771 968.673 c 1
 769 1096 l 1
 1138 1096 l 1
 1138 92 l 2
 1138 -301 870 -426 557 -426 c 0
 397 -426 245 -384 143 -331 c 1
 202 -81 l 1
 285.212 -118.823 403.673 -159 505 -159 c 0
 726.05 -159 779 -78.3299 779 117 c 1
 711 54 601 7 507 7 c 0
 169.433 7 57 195.081 57 571 c 0xdc
422 577 m 0
 422 357 468 264 622 264 c 0
 680 264 730 287 771 316 c 1
 771 486.667 771 657.333 771 828 c 1
 724.694 846.522 675.167 855.241 637.007 855.241 c 0
 502.295 855.241 422 746.59 422 577 c 0
EndSplineSet
EndChar

StartChar: germandbls
Encoding: 223 223 132
Width: 1310
VWidth: 0
Flags: HW
HStem: 698 273<634 779.609> 1279 253<533.896 789.679>
VStem: 124 359<1031 1233.38> 634 339<757.568 859.878> 819 350<1008.31 1248.13> 883 358<327.803 581.258>
LayerCount: 2
Fore
SplineSet
1241 404 m 0xe4
 1241 576 1134 715 973 777 c 1xf0
 973 818 956 848 918 865 c 1
 1059 888 1169 1009 1169 1172 c 0
 1169 1381 989 1532 660 1532 c 0
 301 1532 124 1353 124 1031 c 2
 124 0 l 1
 483 0 l 1
 483 1056 l 2
 483 1180 490 1276 654 1279 c 0
 771 1281 819 1234 819 1131 c 0xe8
 819 996 737 971 634 971 c 1
 634 698 l 1xf0
 830 698 888 661 883 520 c 0
 881 482 878 450 873 423 c 0
 856 310 813 267 730 267 c 1
 736 267 744 266 750 263 c 1
 699 263 663 272 638 272 c 1
 638 -1 l 1
 683 -2 723 -6 743 -6 c 0
 1049 -6 1241 118 1241 404 c 0xe4
EndSplineSet
EndChar

StartChar: grave
Encoding: 96 96 133
Width: 896
VWidth: 0
Flags: HW
HStem: 1239 366
LayerCount: 2
Fore
SplineSet
713 1239 m 1
 497 1605 l 1
 147 1605 l 1
 463 1239 l 1
 713 1239 l 1
EndSplineSet
EndChar

StartChar: greater
Encoding: 62 62 134
Width: 1588
VWidth: 0
Flags: HW
DStem2: 161 1234 161 970 0.928824 -0.370522<97.8179 1086.65> 161 249 161 -15 0.929071 0.369901<0 989.209>
LayerCount: 2
Fore
SplineSet
1452 499 m 1
 1452 719 l 1
 161 1234 l 1
 161 970 l 1
 1082 610 l 1
 161 249 l 1
 161 -15 l 1
 1452 499 l 1
EndSplineSet
EndChar

StartChar: greaterequal
Encoding: 8805 8805 135
Width: 1290
VWidth: 0
Flags: HW
DStem2: 202 1227 202 1022 0.902785 -0.430091<88.1687 825.759>
LayerCount: 2
Fore
SplineSet
1104 1 m 1
 1104 178 l 1
 186 178 l 1
 186 1 l 1
 1104 1 l 1
1092 645 m 1
 1092 803 l 1
 202 1227 l 1
 202 1022 l 1
 878 726 l 1
 878 722 l 1
 202 438 l 1
 202 234 l 1
 1092 645 l 1
EndSplineSet
EndChar

StartChar: guillemotleft
Encoding: 171 171 136
Width: 1372
VWidth: 0
Flags: HW
HStem: 158 213<445 658>
DStem2: 352 617 139 586 0.774484 -0.632594<0 392.61> 156 664 352 617 0.769108 0.639118<120.707 521.596> 808 617 599 587 0.777457 -0.628937<0 380.74> 606 656 808 617 0.77166 0.636035<131.07 520.847>
LayerCount: 2
Fore
SplineSet
1112 172 m 1
 1106 380 l 1
 808 617 l 1
 1112 861 l 1
 1101 1064 l 1
 606 656 l 2
 609 658 612 661 616 663 c 1
 599 587 l 1
 768.673 447.34 934.904 304.238 1112 172 c 1
663 158 m 1
 658 371 l 1
 352 617 l 1
 663 870 l 1
 653 1077 l 1
 156 664 l 1
 139 586 l 1
 237 504 336 422 434 340 c 1
 663 158 l 1
EndSplineSet
EndChar

StartChar: guillemotright
Encoding: 187 187 137
Width: 1372
VWidth: 0
Flags: HW
DStem2: 89 380 279 321 0.779245 0.626719<0 384.644> 279 913 95 853 0.775418 -0.631448<-104.79 274.531> 656 364 838 299 0.766026 0.642809<0 402.397> 819 952 662 866 0.772861 -0.634576<-66.7656 328.512>
LayerCount: 2
Fore
SplineSet
1186 589 m 1
 1166 667 l 1
 1139 688 1113 710 1092 727 c 2
 819 952 l 2
 767 994 715 1036 663 1080 c 1
 662 866 l 1
 764 784 867 700 969 617 c 1
 656 364 l 1
 670 156 l 1
 840.144 302.189 1013.62 445.051 1186 589 c 1
603 589 m 1
 586 663 l 1
 582 667 575 673 536 704 c 0
 388.301 824.634 240.572 945.239 88 1061 c 1
 95 853 l 1
 195 775 293 696 392 617 c 1
 89 380 l 1
 87 174 l 1
 279 321 l 1
 387 411 495 500 603 589 c 1
EndSplineSet
EndChar

StartChar: guilsinglleft
Encoding: 8249 8249 138
Width: 797
VWidth: 0
Flags: HW
HStem: 820 296<351 647>
DStem2: 401 629 106 583 0.771054 -0.636769<0 332.325> 116 690 401 629 0.780008 0.625769<184.13 493.974>
LayerCount: 2
Fore
SplineSet
640 142 m 1
 640 241 641 338 643 436 c 1
 610 461 578 489 544 515 c 2
 401 629 l 1
 645 820 l 1
 647 1116 l 1
 116 690 l 2
 119 692 122 694 125 696 c 1
 106 583 l 1
 284.854 436.854 463.783 290.783 640 142 c 1
EndSplineSet
EndChar

StartChar: guilsinglright
Encoding: 8250 8250 139
Width: 797
VWidth: 0
Flags: HW
DStem2: 360 945 154 822 0.774156 -0.632995<-81.6177 228.67> 157 437 360 314 0.771178 0.63662<0 307.314>
LayerCount: 2
Fore
SplineSet
690 582 m 1
 678 690 l 1
 569 771 464 861 360 945 c 1
 157 1116 l 1
 154 822 l 1
 235 757 315 692 397 629 c 1
 157 437 l 1
 157 142 l 1
 360 314 l 1
 470 403 580 492 690 582 c 1
EndSplineSet
EndChar

StartChar: h
Encoding: 104 104 140
Width: 1294
VWidth: 0
Flags: W
HStem: 0 21G<126 484 813 1174> 830 290<630.756 917> 1500 20G<126 484>
VStem: 126 358<0 808.242 964 1520> 813 361<0 778.93>
LayerCount: 2
Fore
SplineSet
484 1520 m 9
 484 964 l 1
 499 981 l 1
 600 1069 684 1120 811 1120 c 0
 1023 1120 1174 981 1174 720 c 2
 1174 0 l 1
 813 0 l 1
 813 589 l 2
 813 758 771.141 830 643 830 c 0
 587.292 830 540.869 819 484 787 c 1
 484 524.667 484 262.333 484 0 c 1
 126 0 l 1
 126 1520 l 17
 484 1520 l 9
EndSplineSet
EndChar

StartChar: hungarumlaut
Encoding: 733 733 141
Width: 892
VWidth: 0
Flags: HW
HStem: 1239 366
DStem2: 187 1239 313 1239 0.445255 0.895404<56.1022 408.309> 410 1239 536 1239 0.608977 0.793188<76.7311 461.429>
LayerCount: 2
Fore
SplineSet
691 1605 m 1
 368 1605 l 1
 187 1239 l 1
 410 1239 l 1
 691 1605 l 1
817 1605 m 1
 495 1605 l 1
 313 1239 l 1
 536 1239 l 1
 817 1605 l 1
EndSplineSet
EndChar

StartChar: hyphen
Encoding: 45 45 142
Width: 890
VWidth: 0
Flags: HW
HStem: 489 279
LayerCount: 2
Fore
SplineSet
788 489 m 1
 788 768 l 1
 101 768 l 1
 101 489 l 1
 788 489 l 1
EndSplineSet
EndChar

StartChar: i
Encoding: 105 105 143
Width: 614
VWidth: 0
Flags: W
HStem: 0 21G<127.167 485.182> 1076 20G<127.985 486> 1264 270<127.167 485.167>
VStem: 127.167 358<0 1096 1264 1534>
LayerCount: 2
Fore
SplineSet
127.167 1264 m 25
 127.167 1534 l 25
 485.167 1534 l 25
 485.167 1264 l 25
 127.167 1264 l 25
127.167 0 m 29
 128 1096 l 29
 486 1096 l 29
 485.167 0 l 29
 127.167 0 l 29
EndSplineSet
EndChar

StartChar: iacute
Encoding: 237 237 144
Width: 614
VWidth: 0
Flags: HW
LayerCount: 2
Fore
SplineSet
617 1605 m 1
 266 1605 l 1
 51 1239 l 1
 301 1239 l 1
 617 1605 l 1
486 0 m 1
 486 1096 l 1
 128 1096 l 1
 128 0 l 1
 486 0 l 1
EndSplineSet
EndChar

StartChar: icircumflex
Encoding: 238 238 145
Width: 614
VWidth: 0
Flags: HW
HStem: 1430 175<181 432>
LayerCount: 2
Fore
SplineSet
738 1241 m 1
 432 1605 l 1
 181 1605 l 1
 -124 1241 l 1
 149 1241 l 1
 305 1430 l 1
 461 1241 l 1
 738 1241 l 1
486 0 m 1
 486 1096 l 1
 128 1096 l 1
 128 0 l 1
 486 0 l 1
EndSplineSet
EndChar

StartChar: idieresis
Encoding: 239 239 146
Width: 614
VWidth: 0
Flags: HW
LayerCount: 2
Fore
SplineSet
218 1246 m 1
 218 1339 219 1432 220 1525 c 1
 189 1524 159 1524 128 1524 c 2
 78 1524 l 2
 26 1524 -27 1525 -81 1527 c 1
 -81 1246 l 1
 -32 1249 13 1250 59 1250 c 0
 112 1250 164 1248 218 1246 c 1
696 1246 m 1
 696 1339 696 1432 696 1525 c 1
 645 1524 596 1524 543 1524 c 0
 496 1524 447 1525 395 1527 c 1
 395 1246 l 1
 447 1248 496 1250 544 1250 c 0
 594 1250 644 1248 696 1246 c 1
486 0 m 1
 486 1096 l 1
 128 1096 l 1
 128 0 l 1
 486 0 l 1
EndSplineSet
EndChar

StartChar: igrave
Encoding: 236 236 147
Width: 614
VWidth: 0
Flags: HW
LayerCount: 2
Fore
SplineSet
563 1239 m 1
 347 1605 l 1
 -3 1605 l 1
 314 1239 l 1
 563 1239 l 1
486 0 m 1
 486 1096 l 1
 128 1096 l 1
 128 0 l 1
 486 0 l 1
EndSplineSet
EndChar

StartChar: infinity
Encoding: 8734 8734 148
Width: 1594
VWidth: 0
Flags: HW
HStem: 216 176<339.708 569.663 1021.18 1261.79> 781 174<325.185 585.667 1024.68 1262.33>
VStem: 78 190<466.399 722.095> 1328 191<457.224 713.317>
LayerCount: 2
Fore
SplineSet
890 587 m 1
 960 694 1045 781 1145 781 c 0
 1253 781 1328 699 1328 585 c 0
 1328 483 1256 392 1148 392 c 0
 1054 392 979 455 890 587 c 1
709 589 m 1
 634 475 553 399 454 399 c 0
 344 399 268 481 268 591 c 0
 268 702 340 787 450 787 c 0
 554 787 633 710 709 589 c 1
799 457 m 1
 907 291 1024 216 1164 216 c 0
 1359 216 1519 377 1519 587 c 0
 1519 806 1374 954 1169 955 c 0
 1012 955 896 859 801 722 c 1
 704 874 586 961 434 961 c 0
 233 961 78 797 78 594 c 0
 78 374 229 222 430 222 c 0
 582 222 698 310 799 457 c 1
EndSplineSet
EndChar

StartChar: integral
Encoding: 8747 8747 149
Width: 1016
VWidth: 0
Flags: HW
HStem: -436 213<131.746 332.941> 1411 208<685.236 884.381>
VStem: 369 268<-184.268 19 1046 1355.47>
LayerCount: 2
Fore
SplineSet
884 1388 m 1
 893 1599 l 1
 858 1611 808 1619 750 1619 c 0
 511 1619 369 1462 369 1176 c 0
 369 792 378 411 378 19 c 0
 378 -170 324 -223 233 -223 c 0
 200 -223 165 -214 132 -200 c 1
 121 -412 l 1
 158 -425 210 -436 271 -436 c 0
 492 -436 635 -302 644 -41 c 1
 645 19 646 80 646 143 c 0
 646 451 637 747 637 1046 c 0
 637 1148 642 1228 657 1287 c 1
 666 1369 710 1411 786 1411 c 0
 819 1411 852 1402 884 1388 c 1
EndSplineSet
EndChar

StartChar: j
Encoding: 106 106 150
Width: 710
VWidth: 0
Flags: W
HStem: -418.753 263.981<-65.2775 284.354> 855 241<95 216> 1264 270<217.167 575.167>
VStem: 216 360<-100.4 853 1264 1534>
LayerCount: 2
Fore
SplineSet
217.167 1264 m 25
 217.167 1534 l 25
 575.167 1534 l 25
 575.167 1264 l 25
 217.167 1264 l 25
158.055 -418.753 m 0
 48.5276 -418.753 -33.0735 -408.35 -67 -404 c 1
 -67 -147 l 1
 -28.1323 -150.952 7.95757 -154.772 40.4609 -154.772 c 0
 147.781 -154.772 216 -113 216 103 c 2
 216 853 l 1
 95 855 l 5
 95 1096 l 1
 576 1096 l 1
 576 -58 l 2
 576 -290.705 403.128 -418.753 158.055 -418.753 c 0
EndSplineSet
EndChar

StartChar: k
Encoding: 107 107 151
Width: 1233
VWidth: 0
Flags: W
LayerCount: 2
Fore
SplineSet
1199 0 m 1
 1200 83 l 1
 855 649 l 1
 1180 1049 l 1
 1180 1096 l 1
 796 1096 l 1
 484 672 l 1
 483 672 l 1
 483 1521 l 1
 123 1521 l 1
 123 0 l 1
 483 0 l 1
 483 383 l 1
 561 487 l 1
 826 0 l 1
 1199 0 l 1
EndSplineSet
EndChar

StartChar: l
Encoding: 108 108 152
Width: 667
VWidth: 0
Flags: W
HStem: 0 241<505.115 630>
LayerCount: 2
Fore
SplineSet
484 1520 m 25
 126 1520 l 25
 126 377 l 2
 126 185 126 0 543 0 c 2
 630 0 l 1
 630 241 l 1
 486 241 484 317 484 377 c 2
 484 1520 l 25
EndSplineSet
EndChar

StartChar: less
Encoding: 60 60 153
Width: 1588
VWidth: 0
Flags: HW
DStem2: 472 618 135 500 0.928922 -0.370275<0 1023.75> 1427 1234 1427 970 0.929169 0.369654<-1110.29 -97.5887>
LayerCount: 2
Fore
SplineSet
1427 -15 m 1
 1427 249 l 1
 740 517 l 1
 651 550 561 584 472 618 c 1
 569 650 665 681 762 712 c 1
 1427 970 l 1
 1427 1234 l 1
 135 720 l 1
 135 500 l 1
 1427 -15 l 1
EndSplineSet
EndChar

StartChar: lessequal
Encoding: 8804 8804 154
Width: 1349
VWidth: 0
Flags: HW
DStem2: 211 804 437 728 0.910098 0.414393<174.188 935.819>
LayerCount: 2
Fore
SplineSet
1154 1 m 1
 1154 178 l 1
 195 178 l 1
 195 1 l 1
 1154 1 l 1
1140 234 m 1
 1140 438 l 1
 437 724 l 1
 437 728 l 1
 1140 1022 l 1
 1140 1227 l 1
 211 804 l 1
 211 645 l 1
 1140 234 l 1
EndSplineSet
EndChar

StartChar: logicalnot
Encoding: 172 172 155
Width: 1588
VWidth: 0
Flags: HW
LayerCount: 2
Fore
SplineSet
1420 105 m 1
 1420 825 l 1
 161 825 l 1
 161 575 l 1
 1145 575 l 1
 1145 105 l 1
 1420 105 l 1
EndSplineSet
EndChar

StartChar: lozenge
Encoding: 9674 9674 156
Width: 1204
VWidth: 0
Flags: HW
DStem2: 83 715 304 718 0.514159 0.857695<116.202 581.996> 304 718 83 715 0.511787 -0.859112<0 603.923> 598 188 665 -32 0.517186 0.855873<0 618.289>
LayerCount: 2
Fore
SplineSet
897 714 m 1
 815 585 664 288 598 188 c 1
 579 223 557 267 536 307 c 1
 304 718 l 1
 536 1122 l 2
 556 1158 581 1219 602 1244 c 1
 680 1074 797 886 897 714 c 1
1117 716 m 1
 669 1464 l 1
 532 1464 l 1
 83 715 l 1
 528 -32 l 1
 665 -32 l 1
 1117 716 l 1
EndSplineSet
EndChar

StartChar: lslash
Encoding: 322 322 157
Width: 528
VWidth: 0
Flags: HW
LayerCount: 2
Fore
SplineSet
135 252 m 2
 135 66 250 0 401 0 c 2
 494 0 l 1
 494 197 l 1
 412 197 l 2
 371 197 344 221 344 268 c 2
 344 793 l 1
 479 899 l 1
 479 1051 l 1
 344 944 l 1
 344 1458 l 1
 135 1458 l 1
 135 784 l 1
 0 678 l 1
 0 526 l 1
 135 633 l 1
 135 252 l 2
EndSplineSet
EndChar

StartChar: m
Encoding: 109 109 158
Width: 1948
VWidth: 0
Flags: W
HStem: 826 294<598.5 889 1288.41 1569> 826 79<488 631>
VStem: 794 358<591 784.262> 1466 358<564 770.8>
LayerCount: 2
Fore
SplineSet
1466 0 m 1xb0
 1824 0 l 1
 1824 720 l 1
 1825 1001 1664 1120 1474 1120 c 0
 1345 1120 1210 1057 1115 929 c 1
 1057 1060 950 1120 828 1120 c 0xb0
 694 1120 570 1046 504 932 c 0
 503 932 489 905 488 905 c 1x70
 488 1096 l 1
 130 1096 l 1
 130 0 l 1
 488 0 l 1
 488 728 l 2
 488 790 566 826 631 826 c 0
 752 826 794 767 794 591 c 2
 794 0 l 1
 1152 0 l 1
 1152 728 l 2
 1152 769 1237 826 1298 826 c 0
 1429 826 1466 761 1466 564 c 2
 1466 0 l 1xb0
EndSplineSet
EndChar

StartChar: macron
Encoding: 175 175 159
Width: 492
VWidth: 0
Flags: HW
HStem: 1243 135
VStem: -49 590
LayerCount: 2
Fore
SplineSet
-49 1243 m 1
 541 1243 l 1
 541 1378 l 1
 -49 1378 l 1
 -49 1243 l 1
EndSplineSet
EndChar

StartChar: minus
Encoding: 8722 8722 160
Width: 1229
VWidth: 0
Flags: HW
HStem: 438 160
LayerCount: 2
Fore
SplineSet
96 438 m 1
 1133 438 l 1
 1133 598 l 1
 96 598 l 1
 96 438 l 1
EndSplineSet
EndChar

StartChar: mu
Encoding: 181 181 161
Width: 1100
VWidth: 0
Flags: HW
HStem: -12 209<420.259 658.775>
VStem: 135 209<274.776 420> 756 209<274.776 420>
LayerCount: 2
Fore
SplineSet
135 -420 m 1
 344 -420 l 1
 344 18 l 1
 389 -2 436 -12 483 -12 c 0
 592 -12 686 29 752 111 c 1
 756 111 l 1
 756 0 l 1
 965 0 l 1
 965 1038 l 1
 756 1038 l 1
 756 420 l 2
 756 279 668 197 551 197 c 0
 432 197 344 279 344 420 c 2
 344 1038 l 1
 135 1038 l 1
 135 -420 l 1
EndSplineSet
EndChar

StartChar: multiply
Encoding: 215 215 162
Width: 1229
VWidth: 0
Flags: HW
DStem2: 250 997 137 883 0.707527 -0.706686<0.611732 516.187 674.578 1188.55> 504 518 614 410 0.707947 0.706266<-515.295 0 157.682 673.16>
LayerCount: 2
Fore
SplineSet
137 156 m 1
 250 43 l 1
 614 410 l 1
 977 43 l 1
 1092 156 l 1
 725 518 l 1
 1092 883 l 1
 977 997 l 1
 614 631 l 1
 250 997 l 1
 137 883 l 1
 504 518 l 1
 137 156 l 1
EndSplineSet
EndChar

StartChar: n
Encoding: 110 110 163
Width: 1294
VWidth: 0
Flags: W
HStem: 826 294<606.5 905.5>
VStem: 816 358<552 770.801>
LayerCount: 2
Fore
SplineSet
816 0 m 25
 1174 0 l 25
 1174 735 l 2
 1174 996 994 1120 817 1120 c 0
 663.661 1120 560.867 1026.46 484 897 c 5
 484 1096 l 25
 126 1096 l 25
 126 0 l 25
 484 0 l 25
 484 727 l 2
 484 805 573 826 640 826 c 0
 788 826 816 733 816 552 c 2
 816 0 l 25
EndSplineSet
EndChar

StartChar: nine
Encoding: 57 57 164
Width: 1245
VWidth: 0
Flags: W
HStem: 520 260<455.125 669.937> 1242 260<506.716 708.76>
VStem: 60 379<846.43 1164.09> 786 376<800.428 1149.31>
LayerCount: 2
Fore
SplineSet
786 933 m 0
 786 878 779 835 771 824 c 1
 767 809 723 780 646 780 c 0
 540 780 439 826 439 1003 c 0
 439 1185 546 1242 607 1242 c 0
 721 1242 786 1144 786 933 c 0
1132 673 m 1
 1152 735 1161 805 1162 877 c 0
 1169 1291 953 1502 611 1502 c 0
 281 1502 60 1300 60 982 c 0
 60 755 150 623 275 562 c 1
 305 549 336 540 369 534 c 1
 399.78 526.305 435.25 520 475 520 c 0
 588 520 643 549 723 593 c 1
 673 390 544 299 407 246 c 1
 311 235 265 241 235 244 c 1
 194 238 l 1
 216 160 235 81 253 0 c 1
 260 8 383 -2 441 5 c 1
 837 75 1049 327 1132 673 c 1
EndSplineSet
EndChar

StartChar: nine.alt
Encoding: 57344 57344 165
Width: 983
VWidth: 0
Flags: HW
HStem: -12 209<358.714 620.645> 512 184<359.79 623.307> 1262 208<362.705 620.645>
VStem: 78 209<775.444 920 1038 1188.08> 696 209<270.742 420 769.92 920 1038 1188.08>
LayerCount: 2
Fore
SplineSet
78 918 m 1
 70 635 233 512 418 512 c 0
 496 512 604 522 696 557 c 1
 696 420 l 2
 696 279 614 197 492 197 c 0
 399 197 332 240 301 319 c 1
 86 319 l 1
 123 106 301 -12 492 -12 c 0
 707 -12 905 139 905 408 c 2
 905 1051 l 2
 905 1319 707 1470 492 1470 c 0
 276 1470 78 1319 78 1051 c 2
 78 918 l 1
287 1038 m 2
 287 1180 369 1262 492 1262 c 0
 614 1262 696 1180 696 1038 c 2
 696 920 l 2
 696 778 614 696 492 696 c 0
 369 696 287 778 287 920 c 2
 287 1038 l 2
EndSplineSet
EndChar

StartChar: notequal
Encoding: 8800 8800 166
Width: 1349
VWidth: 0
Flags: HW
DStem2: 296 54 496 41 0.455749 0.890108<79.5783 263.431 552.3 731.225 1020.98 1215.13>
LayerCount: 2
Fore
SplineSet
1154 288 m 1
 1154 462 l 1
 711 462 l 1
 836 705 l 1
 1154 705 l 1
 1154 880 l 1
 923 880 l 1
 1050 1123 l 1
 849 1136 l 1
 718 880 l 1
 194 880 l 1
 194 705 l 1
 629 705 l 1
 506 462 l 1
 194 462 l 1
 194 288 l 1
 417 288 l 1
 296 54 l 1
 496 41 l 1
 624 288 l 1
 1154 288 l 1
EndSplineSet
EndChar

StartChar: ntilde
Encoding: 241 241 167
Width: 1294
VWidth: 0
Flags: HW
HStem: 1256 200<650.729 861.362>
VStem: 813 361<552 770.801> 874 211<1468.17 1552>
LayerCount: 2
Fore
SplineSet
1085 1552 m 1xa0
 874 1552 l 1
 867 1484 840 1456 783 1456 c 0
 758 1456 710 1479 675 1491 c 0
 619 1511 563 1543 496 1543 c 0
 327 1543 220 1419 208 1247 c 1
 418 1247 l 1
 421 1299 432 1327 481 1332 c 1
 507 1342 536 1338 563 1327 c 1
 634.817 1307.66 706.583 1256 799 1256 c 0
 976 1256 1069 1359 1085 1552 c 1xa0
1174 0 m 1xc0
 1174 735 l 2
 1174 996 994 1120 817 1120 c 0
 685 1120 556 1056 486 936 c 1
 485 936 l 1
 485 1096 l 1
 126 1096 l 1
 126 0 l 1
 485 0 l 1
 485 727 l 1
 522 796 573 826 640 826 c 0
 788 826 813 733 813 552 c 2
 813 0 l 1
 1174 0 l 1xc0
EndSplineSet
EndChar

StartChar: numbersign
Encoding: 35 35 168
Width: 1504
VWidth: 0
Flags: HW
HStem: 1117 21G<725 968.309>
VStem: 225 247<-2 245> 553 249<1230 1479> 714 244<-2 242> 1042 249<1230 1479>
DStem2: 225 -2 472 -2 0.217489 0.976063<53.7197 379.518 658.629 919.244 1200.96 1516.89> 714 -2 958 -2 0.219371 0.975641<53.5266 379.293 660.82 921.634 1201.21 1516.88>
LayerCount: 2
Fore
SplineSet
917 897 m 1xc8
 846 589 l 1
 601 589 l 1
 673 897 l 1
 917 897 l 1xc8
1435 895 m 1
 1435 1117 l 1
 1213 1117 l 1
 1291 1479 l 1
 1042 1479 l 1
 964 1117 l 1
 725 1117 l 1
 802 1479 l 1
 553 1479 l 1xe8
 476 1117 l 1
 172 1117 l 1
 172 895 l 1
 426 895 l 1
 355 591 l 1
 69 591 l 1
 69 369 l 1
 305 369 l 1
 225 -2 l 1
 472 -2 l 1
 551 369 l 1
 793 369 l 1
 714 -2 l 1
 958 -2 l 1xd8
 1039 369 l 1
 1334 369 l 1
 1334 591 l 1
 1089 591 l 1
 1161 895 l 1
 1435 895 l 1
EndSplineSet
EndChar

StartChar: o
Encoding: 111 111 169
Width: 1235
VWidth: 0
Flags: W
HStem: -28 260<487.407 740.869> 865 255<496.182 738.38>
VStem: 51 365<311.264 781.598> 818 367<312.97 781.796>
LayerCount: 2
Fore
SplineSet
818 545 m 0
 818 313 750 232 621 232 c 0
 502 232 416 280 416 546 c 0
 416 815 509 865 618 865 c 0
 732 865 818 807 818 545 c 0
618 -28 m 0
 991.935 -28 1185 177.762 1185 547 c 0
 1185 918.116 990.374 1120 618 1120 c 0
 243.993 1120 51 920.31 51 548 c 0
 51 176.3 245.241 -28 618 -28 c 0
EndSplineSet
EndChar

StartChar: oacute
Encoding: 243 243 170
Width: 1235
VWidth: 0
Flags: HW
HStem: -28 260<490.28 746.069> 865 255<491.536 743.239>
VStem: 51 365<308.903 781.182> 818 367<310.807 781.138>
LayerCount: 2
Fore
SplineSet
926 1605 m 1
 576 1605 l 1
 361 1239 l 1
 610 1239 l 1
 926 1605 l 1
818 545 m 0
 818 313 750 232 621 232 c 0
 502 232 416 280 416 546 c 0
 416 815 509 865 618 865 c 0
 732 865 818 807 818 545 c 0
1185 547 m 0
 1185 748 1136 874 1037 971 c 0
 946 1059 809 1120 618 1120 c 0
 427 1120 290 1060 199 973 c 1
 100 876 51 750 51 548 c 0
 51 348 99 220 198 123 c 0
 289 34 427 -28 618 -28 c 0
 811 -28 948 34 1038 123 c 0
 1137 222 1185 348 1185 547 c 0
EndSplineSet
EndChar

StartChar: ocircumflex
Encoding: 244 244 171
Width: 1235
VWidth: 0
Flags: HW
HStem: -28 260<490.28 746.069> 865 255<491.536 743.239>
VStem: 51 365<308.903 781.182> 818 367<310.807 781.138>
LayerCount: 2
Fore
SplineSet
1048 1241 m 1
 743 1605 l 1
 491 1605 l 1
 186 1241 l 1
 460 1241 l 1
 616 1430 l 1
 771 1241 l 1
 1048 1241 l 1
818 545 m 0
 818 313 750 232 621 232 c 0
 502 232 416 280 416 546 c 0
 416 815 509 865 618 865 c 0
 732 865 818 807 818 545 c 0
1185 547 m 0
 1185 748 1136 874 1037 971 c 0
 946 1059 809 1120 618 1120 c 0
 427 1120 290 1060 199 973 c 1
 100 876 51 750 51 548 c 0
 51 348 99 220 198 123 c 0
 289 34 427 -28 618 -28 c 0
 811 -28 948 34 1038 123 c 0
 1137 222 1185 348 1185 547 c 0
EndSplineSet
EndChar

StartChar: odieresis
Encoding: 246 246 172
Width: 1235
VWidth: 0
Flags: HW
HStem: -28 260<490.28 746.069> 865 255<491.536 743.239>
VStem: 51 365<308.903 781.182> 818 367<310.807 781.138>
LayerCount: 2
Fore
SplineSet
528 1246 m 1
 528 1339 528 1432 529 1525 c 1
 497 1524 466 1524 434 1524 c 2
 409 1524 l 2
 349 1524 291 1525 229 1527 c 1
 229 1246 l 1
 269 1249 307 1250 345 1250 c 0
 406 1250 466 1248 528 1246 c 1
1005 1246 m 1
 1005 1339 1006 1432 1006 1525 c 1
 955 1524 905 1524 853 1524 c 0
 806 1524 757 1525 705 1527 c 1
 705 1246 l 1
 757 1248 805 1250 854 1250 c 0
 904 1250 953 1248 1005 1246 c 1
818 545 m 0
 818 313 750 232 621 232 c 0
 502 232 416 280 416 546 c 0
 416 815 509 865 618 865 c 0
 732 865 818 807 818 545 c 0
1185 547 m 0
 1185 748 1136 874 1037 971 c 0
 946 1059 809 1120 618 1120 c 0
 427 1120 290 1060 199 973 c 1
 100 876 51 750 51 548 c 0
 51 348 99 220 198 123 c 0
 289 34 427 -28 618 -28 c 0
 811 -28 948 34 1038 123 c 0
 1137 222 1185 348 1185 547 c 0
EndSplineSet
EndChar

StartChar: oe
Encoding: 339 339 173
Width: 1979
VWidth: 0
Flags: HW
HStem: -28 255<491.218 746.664 1302.96 1670.48> 869 255<490.197 747.753> 891 233<1255.62 1513.81>
VStem: 51 365<310.696 783.362> 823 364<333.414 465 680 784.702>
LayerCount: 2
Fore
SplineSet
1577 680 m 1xb8
 1185 680 l 1
 1187 809 1261 891 1387 891 c 0
 1506 891 1571 817 1577 680 c 1xb8
823 545 m 0
 823 330 767 227 623 227 c 0
 477 227 416 316 416 546 c 0
 416 828 513 869 620 869 c 0xd8
 762 869 823 779 823 545 c 0
1933 465 m 1
 1933 614 l 2
 1933 940 1740 1124 1409 1124 c 0xb8
 1255 1124 1093 1064 1015 985 c 1
 926 1056 782 1124 621 1124 c 0
 456 1124 333 1075 245 1010 c 0
 116 913 51 773 51 548 c 0
 51 321 118 180 247 85 c 0
 334 20 458 -28 622 -28 c 0
 794 -28 928 34 1017 121 c 1
 1093 36 1279 -25 1464 -25 c 0
 1697 -25 1829 37 1915 96 c 1
 1860 350 l 1
 1828 328 1789 315 1751 315 c 1
 1707 285 1611 232 1499 232 c 0
 1325 232 1200 290 1187 465 c 1
 1933 465 l 1
EndSplineSet
EndChar

StartChar: ogonek
Encoding: 731 731 174
Width: 898
VWidth: 0
Flags: HW
HStem: -432 143<471.003 695.861>
VStem: 270 176<-262.964 -59.1812>
LayerCount: 2
Fore
SplineSet
571 -289 m 0
 488.671 -289 442.954 -237.344 446 -149 c 1
 451 -99 474 -44 512 4 c 1
 361 4 l 1
 323 -40 286 -92 274 -162 c 1
 268 -190 267 -218 270 -249 c 1
 286.937 -355.916 377.939 -431 503 -431 c 1
 515 -432 529 -432 541 -432 c 0
 595 -429 652 -419 708 -399 c 1
 697 -260 l 1
 673 -269 630 -289 571 -289 c 0
EndSplineSet
EndChar

StartChar: ograve
Encoding: 242 242 175
Width: 1235
VWidth: 0
Flags: HW
HStem: -28 260<490.28 746.069> 865 255<491.536 743.239>
VStem: 51 365<308.903 781.182> 818 367<310.807 781.138>
LayerCount: 2
Fore
SplineSet
874 1239 m 1
 658 1605 l 1
 308 1605 l 1
 624 1239 l 1
 874 1239 l 1
818 545 m 0
 818 313 750 232 621 232 c 0
 502 232 416 280 416 546 c 0
 416 815 509 865 618 865 c 0
 732 865 818 807 818 545 c 0
1185 547 m 0
 1185 748 1136 874 1037 971 c 0
 946 1059 809 1120 618 1120 c 0
 427 1120 290 1060 199 973 c 1
 100 876 51 750 51 548 c 0
 51 348 99 220 198 123 c 0
 289 34 427 -28 618 -28 c 0
 811 -28 948 34 1038 123 c 0
 1137 222 1185 348 1185 547 c 0
EndSplineSet
EndChar

StartChar: one
Encoding: 49 49 176
Width: 1245
VWidth: 0
Flags: W
LayerCount: 2
Fore
SplineSet
1049 0 m 1
 1049 275 l 1
 839 275 l 1
 839 1480 l 1
 724 1481 608 1481 493 1482 c 1
 463 1361 352 1314 178 1296 c 1
 178 1031 l 1
 468 1087 l 1
 468 275 l 1
 253 276 l 1
 253 0 l 1
 1049 0 l 1
EndSplineSet
EndChar

StartChar: one.superior
Encoding: 185 185 177
Width: 639
VWidth: 0
Flags: HW
VStem: 104 308
LayerCount: 2
Fore
SplineSet
240 588 m 1
 412 588 l 1
 412 1462 l 1
 240 1462 l 1
 104 1372 l 1
 104 1200 l 1
 240 1290 l 1
 240 588 l 1
EndSplineSet
EndChar

StartChar: onehalf
Encoding: 189 189 178
Width: 1477
VWidth: 0
Flags: HW
HStem: 735 148<1040.19 1219.7>
VStem: 840 172<608 707.409> 1030 135<1358 1493> 1239 172<532.399 714.281>
DStem2: 147 -35 283 -35 0.500344 0.865827<68.0467 1764.79> 834 147 1042 147 0.682994 0.730424<142.063 628.8>
LayerCount: 2
Fore
SplineSet
147 -35 m 1
 283 -35 l 1
 1165 1493 l 1
 1030 1493 l 1
 147 -35 l 1
834 0 m 1
 1411 0 l 1
 1411 147 l 1
 1042 147 l 1
 1346 467 l 2
 1397 522 1411 573 1411 631 c 0
 1411 770 1292 883 1120 883 c 0
 961 883 840 772 840 608 c 1
 1012 608 l 1
 1018 686 1057 735 1126 735 c 0
 1196 735 1239 692 1239 631 c 0
 1239 592 1223 563 1194 532 c 2
 834 147 l 1
 834 0 l 1
240 588 m 1
 412 588 l 1
 412 1462 l 1
 240 1462 l 1
 104 1372 l 1
 104 1200 l 1
 240 1290 l 1
 240 588 l 1
EndSplineSet
EndChar

StartChar: onequarter
Encoding: 188 188 179
Width: 1477
VWidth: 0
Flags: HW
VStem: 199 135<-35 100>
DStem2: 199 -35 334 -35 0.500344 0.865827<67.5464 1764.29> 770 274 948 274 0.469588 0.882885<83.5867 675.059>
LayerCount: 2
Fore
SplineSet
199 -35 m 1
 334 -35 l 1
 1217 1493 l 1
 1081 1493 l 1
 199 -35 l 1
770 127 m 1
 1171 127 l 1
 1171 0 l 1
 1343 0 l 1
 1343 127 l 1
 1411 127 l 1
 1411 274 l 1
 1343 274 l 1
 1343 500 l 1
 1171 500 l 1
 1171 274 l 1
 948 274 l 1
 1260 870 l 1
 1087 870 l 1
 770 274 l 1
 770 127 l 1
240 588 m 1
 412 588 l 1
 412 1462 l 1
 240 1462 l 1
 104 1372 l 1
 104 1200 l 1
 240 1290 l 1
 240 588 l 1
EndSplineSet
EndChar

StartChar: ordfeminine
Encoding: 170 170 180
Width: 930
VWidth: 0
Flags: HW
HStem: 775 81<510.482 542.783> 1317 186<158.696 533.985>
VStem: 31 282<871.7 1009> 559 278<872.726 919 1202.5 1286.85>
LayerCount: 2
Fore
SplineSet
450 856 m 1
 378.738 859.563 313 866.772 313 940 c 0
 313 1030 430 1031 559 1039 c 1
 559 919 l 1
 535 876 498 857 450 856 c 1
837 693 m 1
 837 1234 l 2
 837 1434 687 1503 409 1503 c 0
 280 1503 149 1477 97 1442 c 1
 135 1258 l 1
 140 1269 252 1317 361 1317 c 0
 495 1317 559 1292 559 1208 c 1
 512 1203 469 1196 430 1189 c 1
 176 1170 31 1123 31 916 c 0
 31 780 143 674 309 674 c 0
 448 674 499 722 557 775 c 1
 557 775 558 775 559 775 c 1
 559 693 l 1
 837 693 l 1
EndSplineSet
EndChar

StartChar: ordmasculine
Encoding: 186 186 181
Width: 990
VWidth: 0
Flags: HW
HStem: 669 186<405.273 629.284> 1313 190<399.363 607.826>
VStem: 73 282<904.931 1268.31> 659 280<887.474 1257.33>
LayerCount: 2
Fore
SplineSet
656 1084 m 0
 656 1051 658 1021 659 989 c 1
 659 880 590 855 512 855 c 0
 407 855 355 923 355 1085 c 0
 355 1279 430 1313 507 1313 c 0
 607 1313 656 1248 656 1084 c 0
939 1086 m 0
 939 1361 780 1503 507 1503 c 0
 236 1503 73 1362 73 1087 c 0
 73 816 232 669 506 669 c 0
 779 669 939 815 939 1086 c 0
EndSplineSet
EndChar

StartChar: oslash
Encoding: 248 248 182
Width: 1235
VWidth: 0
Flags: HW
HStem: -28 250<517.505 773.309> 869 255<485.839 719.168>
VStem: 51 358<376.103 780.556> 822 363<278.489 714.583>
DStem2: 79 -131 249 -151 0.548867 0.83591<76.5892 280.144 610.945 1111.46 1446.46 1621.96>
LayerCount: 2
Fore
SplineSet
822 545 m 0
 822 487 823 436 821 390 c 0
 816 247 722 221 621 222 c 1
 624 223 627 223 630 223 c 1
 587 223 548 232 516 252 c 1
 811 718 l 1
 816 686 822 617 822 545 c 0
720 842 m 1
 423 374 l 1
 415 412 409 461 409 543 c 0
 409 835 517 869 617 869 c 0
 656 869 689 860 720 842 c 1
1185 547 m 0
 1185 771 1126 898 1004 1000 c 1
 1142 1203 l 1
 972 1223 l 1
 875 1074 l 1
 800 1104 719 1124 618 1124 c 0
 427 1124 290 1064 199 975 c 0
 100 877 51 750 51 548 c 0
 51 351 104 198 232 96 c 1
 79 -131 l 1
 249 -151 l 1
 361 22 l 1
 430 -5 521 -28 618 -28 c 0
 811 -28 948 33 1038 123 c 0
 1137 222 1185 348 1185 547 c 0
EndSplineSet
EndChar

StartChar: otilde
Encoding: 245 245 183
Width: 1235
VWidth: 0
Flags: HW
HStem: -28 260<490.28 746.069> 865 255<491.536 743.239> 1256 200<621.229 831.848>
VStem: 51 365<308.903 781.182> 818 367<310.807 781.138> 845 211<1468.17 1552>
LayerCount: 2
Fore
SplineSet
1056 1552 m 1xf4
 845 1552 l 1
 838 1484 811 1456 753 1456 c 0
 729 1456 681 1479 646 1491 c 0
 590 1511 534 1543 467 1543 c 0
 297 1543 190 1419 178 1247 c 1
 389 1247 l 1
 392 1299 403 1327 451 1332 c 1
 478 1342 507 1338 533 1327 c 1
 560 1320 588 1306 618 1293 c 0
 663 1275 714 1256 769 1256 c 0
 946 1256 1039 1359 1056 1552 c 1xf4
818 545 m 0xf8
 818 313 750 232 621 232 c 0
 502 232 416 280 416 546 c 0
 416 815 509 865 618 865 c 0
 732 865 818 807 818 545 c 0xf8
1185 547 m 0
 1185 748 1136 874 1037 971 c 0
 946 1059 809 1120 618 1120 c 0
 427 1120 290 1060 199 973 c 1
 100 876 51 750 51 548 c 0
 51 348 99 220 198 123 c 0
 289 34 427 -28 618 -28 c 0
 811 -28 948 34 1038 123 c 0
 1137 222 1185 348 1185 547 c 0
EndSplineSet
EndChar

StartChar: p
Encoding: 112 112 184
Width: 1264
VWidth: 0
Flags: W
HStem: -23 260<547.15 903.854> 845 275<632.659 962.693>
VStem: 841 366<331.586 773.442>
LayerCount: 2
Fore
SplineSet
841 552 m 0
 841 360 793 237 619 237 c 0
 550.845 237 504.638 248 485 262 c 1
 485 527 l 0
 486 781 l 1
 526.283 822 572.763 845 643 845 c 0
 800 845 841 738 841 552 c 0
757 -23 m 0
 1050.71 -23 1207 216.268 1207 556 c 0
 1207 894.687 1110.39 1120 815 1120 c 0
 677 1120 546 1046 485 937 c 1
 485 1096 l 1
 126 1096 l 1
 126 -414 l 1
 485 -414 l 1
 485 57 l 1
 569 3 645 -23 757 -23 c 0
EndSplineSet
EndChar

StartChar: paragraph
Encoding: 182 182 185
Width: 1338
VWidth: 0
Flags: HW
LayerCount: 2
Fore
SplineSet
1183 -377 m 1
 1183 1160 l 1
 1180 1234 l 1
 1180 1479 l 1
 642 1479 l 2
 250 1479 60 1306 60 1052 c 0
 60 791 254 627 623 620 c 1
 623 -377 l 1
 841 -377 l 1
 841 1302 l 1
 975 1302 l 1
 975 -377 l 1
 1183 -377 l 1
EndSplineSet
EndChar

StartChar: parenleft
Encoding: 40 40 186
Width: 841
VWidth: 0
Flags: HW
VStem: 98 328<269.289 912.573>
LayerCount: 2
Fore
SplineSet
789 -340 m 1
 783 -320 778 -299 773 -278 c 1
 590 -76 426 221 426 591 c 0
 426 971 599 1262 773 1461 c 1
 778 1482 783 1502 789 1523 c 1
 469 1523 l 1
 245 1269 98 995 98 591 c 0
 98 209 246 -87 469 -340 c 1
 789 -340 l 1
EndSplineSet
EndChar

StartChar: parenright
Encoding: 41 41 187
Width: 841
VWidth: 0
Flags: HW
VStem: 414 328<269.671 904.708>
LayerCount: 2
Fore
SplineSet
742 591 m 0
 742 995 595 1269 370 1523 c 1
 51 1523 l 1
 57 1502 62 1483 66 1461 c 1
 239 1265 414 970 414 591 c 0
 414 217 249 -74 66 -278 c 1
 62 -299 57 -320 51 -340 c 1
 370 -340 l 1
 594 -85 742 213 742 591 c 0
EndSplineSet
EndChar

StartChar: partialdiff
Encoding: 8706 8706 188
Width: 1171
VWidth: 0
Flags: HW
HStem: -17 218<405.867 624.097> 813 203<496.079 716.541> 1324 217<364.232 682.256>
VStem: 58 289<264.93 632.825> 825 286<871.597 1154.76>
LayerCount: 2
Fore
SplineSet
792 652 m 1
 764 406 657 201 512 201 c 0
 406 201 347 287 347 429 c 0
 347 623 460 813 608 813 c 0
 704 813 767 744 792 652 c 1
819 871 m 1
 771 949 680 1016 551 1016 c 0
 269 1016 58 758 58 423 c 0
 58 171 213 -17 480 -17 c 0
 842 -17 1054 284 1102 756 c 1
 1111 828 1114 897 1111 964 c 0
 1096 1338 930 1525 643 1542 c 0
 499.503 1550.7 388.185 1514.11 304 1466 c 1
 281 1250 l 1
 360.669 1298.61 460.158 1342.41 585 1319 c 1
 740 1294 825 1148 825 922 c 0
 825 912 824 890 823 871 c 1
 819 871 l 1
EndSplineSet
EndChar

StartChar: percent
Encoding: 37 37 189
Width: 2136
VWidth: 0
Flags: W
HStem: -4 201<1557.82 1736.34> 639 201<393.03 566.329 1563.84 1740.19> 1285 199<400.91 575.281>
VStem: 95.7518 244.368<893.96 1223.84> 626.945 240.751<901.797 1231.99> 1260.56 244.971<250.58 579.908> 1791.28 240.529<258.339 582.862>
DStem2: 550 0 807 0 0.464611 0.885515<119.405 1670.21>
LayerCount: 2
Fore
SplineSet
485 840 m 0
 386.403827772 840 340.119647438 946.744342275 340.119647438 1055.67261417 c 0
 340.119647438 1169.15120628 390.35150372 1285 484 1285 c 0
 581.753311451 1285 626.945468751 1179.50685977 626.945468751 1071.24798502 c 0
 626.945468751 957.159793244 576.75543939 840 485 840 c 0
485 1484 m 1
 225.461540201 1481.01679931 95.7518162807 1269.56108286 95.7518162807 1058.95410046 c 0
 95.7518162807 848.553514567 225.207431655 639 484 639 c 0
 736.261631936 639 867.696128584 855.635748966 867.696128584 1069.52785811 c 0
 867.696128584 1277.54465393 743.383100533 1482.9664676 485 1484 c 1
1646 643 m 1
 1744.23841551 643 1791.27626798 533.649415516 1791.27626798 423.239711633 c 0
 1791.27626798 310.670335073 1742.3802472 197 1649 197 c 0
 1550.77901096 197 1505.53496365 301.788882081 1505.53496365 409.787348169 c 0
 1505.53496365 523.09085768 1555.33308941 639.927014633 1646 643 c 1
1649 841 m 1
 1390.10341908 838.024177231 1260.56390438 626.675709667 1260.56390438 416.120448909 c 0
 1260.56390438 205.663993184 1389.98187234 -4 1649 -4 c 0
 1900.38419591 -4 2031.80542805 213.349818496 2031.80542805 427.583992889 c 0
 2031.80542805 635.763001684 1907.70824966 841 1649 841 c 1
807 0 m 1
 1583 1479 l 1
 1326 1479 l 1
 550 0 l 1
 807 0 l 1
EndSplineSet
EndChar

StartChar: period
Encoding: 46 46 190
Width: 723
VWidth: 0
Flags: W
HStem: -24 437<230.11 488.437>
VStem: 145 433<60.5403 325.463>
LayerCount: 2
Fore
SplineSet
383 -24 m 1
 505 -10 578 77 578 213 c 1
 563 334 476 413 340 413 c 1
 217 399 145 307 145 173 c 1
 159 50 247 -24 383 -24 c 1
EndSplineSet
EndChar

StartChar: periodcentered
Encoding: 183 183 191
Width: 492
VWidth: 0
Flags: HW
HStem: 461 274<144.472 347.528>
VStem: 109 274<496.472 699.528>
LayerCount: 2
Fore
SplineSet
109 598 m 0
 109 522 170 461 246 461 c 0
 322 461 383 522 383 598 c 0
 383 674 322 735 246 735 c 0
 170 735 109 674 109 598 c 0
EndSplineSet
EndChar

StartChar: perthousand
Encoding: 8240 8240 192
Width: 2752
VWidth: 0
Flags: HW
HStem: -4 179<1407.37 1563.25 2228.37 2384.08> 575 176<1405.98 1566.28 2226.78 2387.28> 728 179<360.37 515.948> 1307 176<358.775 519.072>
VStem: 96 241<923.557 1289.65> 543 236<924.323 1288.58> 1143 241<191.479 557.654> 1590 236<192.103 556.582> 1964 241<191.557 557.654> 2411 236<192.103 556.582>
DStem2: 439 0 696 0 0.464611 0.885515<119.405 1670.21>
LayerCount: 2
Fore
SplineSet
2308 175 m 0xdfc0
 2211 175 2205 257 2205 368 c 0
 2205 497 2213 575 2308 575 c 0
 2400 575 2411 500 2411 382 c 1
 2409 237 2393 175 2308 175 c 0xdfc0
2308 -4 m 0
 2543 -4 2647 122 2647 401 c 0
 2647 637 2525 751 2308 751 c 0
 2077 751 1964 627 1964 348 c 0
 1964 108 2091 -4 2308 -4 c 0
1487 175 m 0
 1390 175 1384 256 1384 368 c 0
 1384 497 1393 575 1487 575 c 0
 1579 575 1590 500 1590 382 c 0
 1589 237 1572 175 1487 175 c 0
1487 -4 m 0
 1722 -4 1826 122 1826 401 c 0
 1826 637 1704 751 1487 751 c 0
 1256 751 1143 627 1143 348 c 0
 1143 108 1270 -4 1487 -4 c 0
440 907 m 0xbfc0
 343 907 337 989 337 1100 c 0
 337 1229 345 1307 440 1307 c 0
 531 1307 543 1232 543 1114 c 1
 541 969 525 907 440 907 c 0xbfc0
440 728 m 0
 674 728 779 855 779 1133 c 0
 779 1369 657 1483 440 1483 c 0
 209 1483 96 1359 96 1080 c 0
 96 840 223 728 440 728 c 0
696 0 m 1
 1472 1479 l 1
 1215 1479 l 1
 439 0 l 1
 696 0 l 1
EndSplineSet
EndChar

StartChar: pi
Encoding: 960 960 193
Width: 1287
VWidth: 0
Flags: HW
HStem: 827 214<51.7457 240>
VStem: 224 270<44.3504 819.999> 240 271<219.304 827> 767 273<258.762 381>
LayerCount: 2
Fore
SplineSet
1229 827 m 1xb0
 1234 1041 l 1
 349 1041 l 2
 187 1041 82 1030 11 979 c 1
 21 766 l 1
 86 806 154 827 240 827 c 1xb0
 239 680 233 514 224 351 c 0
 216 210 197 90 166 0 c 1
 441 0 l 1
 469 78 487 195 494 338 c 0xd0
 503 506 509 678 511 827 c 1
 767 827 l 1
 767 345 l 2
 767 148 835 34 976 10 c 1
 1018 1 1057 1 1095 9 c 1
 1164 163 l 1
 1138 175 1114 198 1095 253 c 1
 1058 265 1040 308 1040 381 c 2
 1040 827 l 1
 1229 827 l 1xb0
EndSplineSet
EndChar

StartChar: plus
Encoding: 43 43 194
Width: 1588
VWidth: 0
Flags: HW
LayerCount: 2
Fore
SplineSet
1426 485 m 1
 1426 735 l 1
 927 735 l 1
 927 1209 l 1
 661 1209 l 1
 661 735 l 1
 161 735 l 1
 161 485 l 1
 661 485 l 1
 661 9 l 1
 927 9 l 1
 927 485 l 1
 1426 485 l 1
EndSplineSet
EndChar

StartChar: plusminus
Encoding: 177 177 195
Width: 1588
VWidth: 0
Flags: HW
LayerCount: 2
Fore
SplineSet
1232 0 m 1
 1232 187 l 1
 196 187 l 1
 196 0 l 1
 1232 0 l 1
1233 653 m 1
 1233 840 l 1
 813 840 l 1
 813 1197 l 1
 618 1197 l 1
 618 840 l 1
 199 840 l 1
 199 653 l 1
 618 653 l 1
 618 298 l 1
 813 298 l 1
 813 653 l 1
 1233 653 l 1
EndSplineSet
EndChar

StartChar: product
Encoding: 8719 8719 196
Width: 1565
VWidth: 0
Flags: HW
VStem: 195 291<920 1082.21>
LayerCount: 2
Fore
SplineSet
1381 -372 m 1
 1381 920 l 1
 1447 1363 l 1
 1447 1386 1447 1409 1447 1433 c 1
 129 1433 l 1
 129 1161 l 1
 151 1081 173 1001 195 920 c 1
 195 -372 l 1
 486 -372 l 1
 486 1185 l 1
 1090 1185 l 1
 1090 -372 l 1
 1381 -372 l 1
EndSplineSet
EndChar

StartChar: q
Encoding: 113 113 197
Width: 1264
VWidth: 0
Flags: W
HStem: -26 276<386.5 649.538> 852 268<427.5 705.832>
VStem: 57 365<320.402 755.592> 779 359<340.515 821.459>
LayerCount: 2
Fore
SplineSet
704 276 m 1
 680 259 648 250 624 250 c 0
 461 250 422 352 422 544 c 0
 422 723 476 852 651 852 c 0
 727 852 779 787 778 738 c 1
 778 569 775 391 704 276 c 1
1138 -414 m 1
 1138 1096 l 1
 786 1096 l 1
 776 1038 l 1
 692 1089 614 1120 505 1120 c 0
 350 1120 222 1044 144 921 c 1
 85 832 57 728 57 543 c 0
 57 360 80 257 132 169 c 1
 200 48 313 -26 460 -26 c 0
 582 -26 659 11 779 106 c 1
 779 -414 l 1
 1138 -414 l 1
EndSplineSet
EndChar

StartChar: question
Encoding: 63 63 198
Width: 1149
VWidth: 0
Flags: W
HStem: 726 5<342.141 347.381> 1224 278<442.006 623.5>
VStem: 332 355<385 604.784> 685 383<923.235 1162.19>
LayerCount: 2
Fore
SplineSet
721 -20 m 1xc0
 716 22 713 65 709 107 c 1
 723 158 736 210 750 261 c 1
 600 266 451 271 299 278 c 1
 304 235 307 193 311 151 c 1
 298 99 284 48 270 -4 c 1
 418 -8 570 -14 721 -20 c 1xc0
1068 1107 m 0xd0
 1068 1337 866 1502 552 1502 c 0
 334 1502 136 1404 84 1302 c 1
 84 1070 l 1
 105 1069 125 1069 146 1069 c 1
 215 1107 349 1154 444 1154 c 1
 434 1193 434 1209 441 1219 c 1
 445 1221 449 1223 454 1224 c 0
 591 1228 685 1170 685 1046 c 0xd0
 685 879 455 761 342 726 c 1
 345 727 348 729 351 731 c 1
 327 622 332 508 332 385 c 1
 687 385 l 1xe0
 688 449 688 513 688 577 c 1
 866 692 1068 851 1068 1107 c 0xd0
EndSplineSet
EndChar

StartChar: questiondown
Encoding: 191 191 199
Width: 1149
VWidth: 0
Flags: HW
HStem: -167 280<524.711 844.035>
VStem: 80 383<173.515 406.306> 460 357<730.47 950>
LayerCount: 2
Fore
SplineSet
836 1075 m 1x80
 836 1162 837 1248 837 1336 c 1
 779 1335 721 1335 662 1335 c 0
 588 1335 515 1336 440 1339 c 1
 440 1075 l 1
 499 1078 556 1078 614 1078 c 0
 688 1078 761 1077 836 1075 c 1x80
1064 33 m 1
 1064 266 l 1
 1047 266 1032 267 1015 267 c 1
 1007 273 1010 279 1009 279 c 0
 955 185 800 113 682 113 c 0
 553 113 463 170 463 290 c 0xc0
 463 442 663 554 797 604 c 1
 821 713 817 826 817 950 c 1
 460 950 l 1
 460 759 l 1xa0
 281 640 80 488 80 229 c 0xc0
 80 -4 286 -167 596 -167 c 0
 807 -167 1016 -67 1064 33 c 1
EndSplineSet
EndChar

StartChar: quotedbl
Encoding: 34 34 200
Width: 944
VWidth: 0
Flags: HW
HStem: 1011 512
VStem: 166 218<1011 1167.17> 559 218<1011 1167.17>
LayerCount: 2
Fore
SplineSet
431 1523 m 1
 120 1523 l 1
 166 1011 l 1
 384 1011 l 1
 431 1523 l 1
824 1523 m 1
 513 1523 l 1
 559 1011 l 1
 777 1011 l 1
 824 1523 l 1
EndSplineSet
EndChar

StartChar: quotedblbase
Encoding: 8222 8222 201
Width: 944
VWidth: 0
Flags: HW
HStem: -259 517<497 515>
LayerCount: 2
Fore
SplineSet
515 258 m 1
 180 258 l 1
 75 -259 l 1
 272 -245 l 1
 422 -11 l 1
 515 258 l 1
936 258 m 1
 603 258 l 1
 497 -259 l 1
 751 -203 l 1
 936 258 l 1
EndSplineSet
EndChar

StartChar: quotedblleft
Encoding: 8220 8220 202
Width: 944
VWidth: 0
Flags: HW
HStem: 1005 518<249.42 340.044 671.681 762.072>
LayerCount: 2
Fore
SplineSet
447 1005 m 1
 337 1523 l 1
 1 1468 l 1
 196 1005 l 1
 447 1005 l 1
870 1005 m 1
 759 1523 l 1
 424 1468 l 1
 618 1005 l 1
 870 1005 l 1
EndSplineSet
EndChar

StartChar: quotedblright
Encoding: 8221 8221 203
Width: 943
VWidth: 0
Flags: HW
HStem: 1005 518<499 516>
LayerCount: 2
Fore
SplineSet
516 1523 m 1
 182 1523 l 1
 77 1005 l 1
 330 1060 l 1
 516 1523 l 1
938 1523 m 1
 604 1523 l 1
 499 1005 l 1
 753 1060 l 1
 938 1523 l 1
EndSplineSet
EndChar

StartChar: quoteleft
Encoding: 8216 8216 204
Width: 564
VWidth: 0
Flags: HW
HStem: 1005 518<271.681 362.044>
LayerCount: 2
Fore
SplineSet
469 1005 m 1
 359 1523 l 1
 24 1468 l 1
 219 1005 l 1
 469 1005 l 1
EndSplineSet
EndChar

StartChar: quoteright
Encoding: 8217 8217 205
Width: 564
VWidth: 0
Flags: HW
HStem: 1005 518
LayerCount: 2
Fore
SplineSet
535 1523 m 1
 202 1523 l 1
 97 1005 l 1
 350 1060 l 1
 535 1523 l 1
EndSplineSet
EndChar

StartChar: quotesinglbase
Encoding: 8218 8218 206
Width: 564
VWidth: 0
Flags: HW
HStem: -259 517
LayerCount: 2
Fore
SplineSet
534 258 m 1
 201 258 l 1
 96 -259 l 1
 290 -245 l 1
 440 -11 l 1
 471 78.6667 502.333 168.333 534 258 c 1
EndSplineSet
EndChar

StartChar: quotesingle
Encoding: 39 39 207
Width: 564
VWidth: 0
Flags: HW
HStem: 1011 512
VStem: 173 218<1011 1170.57>
LayerCount: 2
Fore
SplineSet
437 1523 m 1
 127 1523 l 1
 173 1011 l 1
 391 1011 l 1
 437 1523 l 1
EndSplineSet
EndChar

StartChar: r
Encoding: 114 114 208
Width: 897
VWidth: 0
Flags: W
HStem: 794.003 304.102<619.765 859.91>
LayerCount: 2
Fore
SplineSet
854 761 m 1
 909 1075 l 1
 881.848 1088.58 837.996 1098.11 800.073 1098.11 c 0
 665.305 1098.11 548.02 1024.46 486 955 c 1
 485 955 l 1
 485 1096 l 1
 126 1096 l 1
 126 0 l 1
 485 0 l 1
 485.143 712.106 l 1
 534.006 778.685 644.159 794.003 709.298 794.003 c 0
 772.053 794.003 820.135 776.393 854 761 c 1
EndSplineSet
EndChar

StartChar: radical
Encoding: 8730 8730 209
Width: 1291
VWidth: 0
Flags: HW
VStem: 1014 184<1404 1588>
DStem2: 427 867 268 692 0.368174 -0.929757<104.168 516.274> 675 198 777 -106 0.241187 0.970479<0 1430.73>
LayerCount: 2
Fore
SplineSet
1198 1588 m 1
 1014 1588 l 1
 917 1189 817 790 720 392 c 1
 675 198 l 1
 652 243 628 324 607 383 c 2
 427 867 l 1
 84 824 l 1
 96 673 l 1
 268 692 l 1
 584 -106 l 1
 777 -106 l 1
 1198 1588 l 1
EndSplineSet
EndChar

StartChar: registered
Encoding: 174 174 210
Width: 1846
VWidth: 0
Flags: W
HStem: 1074 325<825 1085> 1210 20<705.5 1156>
VStem: 232 179<614.877 768.412> 427 11<557 712>
LayerCount: 2
Fore
SplineSet
1189 801 m 0xb0
 1189 635 1081 525 931 515 c 0
 835 509 747 539 673 592 c 1
 648 649 634 716 634 788 c 0
 634 862 648 932 673 991 c 1
 736 1044 825 1077 916 1074 c 1
 1085 1066 1189 955 1189 801 c 0xb0
1453 428 m 1
 1453 460 l 1
 1425 493 1406 511 1386 532 c 1
 1386 532 1325 613 1292 657 c 1
 1358 729 1398 818 1379 936 c 1
 1334 1147 1134 1230 909 1230 c 0x70
 764 1230 626 1200 506 1151 c 1
 458 1027 427 883 427 733 c 0
 427 557 458 388 506 238 c 1
 604 190 721 159 845 159 c 1
 845 350 l 1
 892 350 l 1
 972 282 1119 156 1147 190 c 1
 1288 234 1400 324 1453 428 c 1
1431 751 m 0
 1431 497.343 1218.56 310.96 949 286 c 1
 699 273 451 451 438 707 c 0
 438 712 428 720 411 733 c 1
 411 997 647 1210 924 1210 c 0
 1178 1210 1431 1031 1431 751 c 0
1646 531 m 1
 1616 574 1586 617 1556 660 c 1
 1600 820 1567 982 1460 1144 c 0
 1352 1308 1169 1399 940 1399 c 0xb0
 561 1399 217 1126 198 770 c 1
 219 736 232 710 232 688 c 2
 232 531 l 1
 250 220 540 -23 875 -23 c 1
 875 104 l 1
 906 104 l 1
 936 62 965 19 996 -23 c 1
 1322 -23 1625 214 1646 531 c 1
EndSplineSet
EndChar

StartChar: ring
Encoding: 730 730 211
Width: 898
VWidth: 0
Flags: HW
HStem: 1111 74<351.401 545.234> 1497 74<353.803 545.234>
VStem: 206 93<1228.87 1451.89> 600 92<1230.12 1448.73>
LayerCount: 2
Fore
SplineSet
692 1341 m 0
 692 1210 584 1111 449 1111 c 0
 313 1111 206 1212 206 1342 c 0
 206 1471 315 1571 449 1571 c 0
 584 1571 692 1472 692 1341 c 0
600 1340 m 0
 600 1424 536 1497 449 1497 c 0
 365 1497 299 1428 299 1340 c 0
 299 1252 362 1185 449 1185 c 0
 536 1185 600 1255 600 1340 c 0
EndSplineSet
EndChar

StartChar: s
Encoding: 115 115 212
Width: 1071
VWidth: 0
Flags: W
HStem: -25 245<268.239 643.427> 875 246<447.805 802.399>
LayerCount: 2
Back
SplineSet
1036 344 m 4
 1036 552 908 647 653 688 c 5
 458 717 426 732 426 785 c 4
 426 838 491 875 595 875 c 4
 744 875 855 810 928 760 c 5
 993 815 l 5
 986 889 978 963 970 1037 c 5
 872 1086 742 1121 575 1121 c 4
 261 1121 61 967 61 760 c 4
 61 555 198 447 420 414 c 5
 485 407 581 411 607 369 c 5
 658 348 670 326 666 295 c 4
 659 243 572 220 493 220 c 4
 284 220 159 320 109 363 c 5
 33 311 l 5
 43 232 53 153 63 75 c 5
 170 15 330 -25 489 -25 c 4
 827 -25 1036 127 1036 344 c 4
EndSplineSet
Fore
SplineSet
666.655 304.895 m 0
 666.655 242.38 575.112 220 493 220 c 0
 284 220 159 320 109 363 c 1
 63 75 l 1
 170 15 330 -25 489 -25 c 0
 827 -25 1036 127 1036 344 c 0
 1036 552 908 647 653 688 c 1
 458 717 426 732 426 785 c 0
 426 838 491 875 595 875 c 0
 744 875 855 810 928 760 c 1
 970 1037 l 1
 872 1086 742 1121 575 1121 c 0
 261 1121 61 967 61 760 c 0
 61 555 199.519 455.964 420 414 c 0
 513.316 396.239 666.655 390.074 666.655 304.895 c 0
EndSplineSet
EndChar

StartChar: scaron
Encoding: 353 353 213
Width: 983
VWidth: 0
Flags: HW
HStem: -12 196<286.642 656.019> 854 197<328.684 665.615>
VStem: 88 209<658.517 822.487> 158 196<1274 1470> 629 196<1274 1470> 698 209<226.48 397.176>
DStem2: 354 1470 158 1470 0.587367 -0.809321<0 223.497> 434 631 387 436 0.996241 -0.0866296<-129.294 273.238> 492 1294 608 1171 0.587367 0.809321<0 222.91>
LayerCount: 2
Fore
SplineSet
20 174 m 1xe4
 154 49 309 -12 477 -12 c 0
 719 -12 907 104 907 307 c 0
 907 473 821 604 606 618 c 1
 434 631 l 2
 330 639 297 684 297 729 c 0
 297 801 342 854 475 854 c 0
 588 854 672 815 754 758 c 1
 883 909 l 1
 780 995 657 1051 475 1051 c 0
 256 1051 88 942 88 731 c 0
 88 553 215 451 387 436 c 2
 571 420 l 2
 643 414 698 391 698 317 c 0
 698 229 612 184 494 184 c 0
 354 184 256 229 166 317 c 1
 20 174 l 1xe4
375 1171 m 1
 608 1171 l 1
 825 1470 l 1
 629 1470 l 1
 492 1294 l 1
 354 1470 l 1
 158 1470 l 1xd8
 375 1171 l 1
EndSplineSet
EndChar

StartChar: section
Encoding: 167 167 214
Width: 1249
VWidth: 0
Flags: HW
HStem: -401 266<370.243 700.699> 1188 314<535.247 957.508>
VStem: 87 362<465.054 697.84> 107 22<1145.61 1172.19> 724 293<-24 164> 816 352<428.912 646.891>
LayerCount: 2
Fore
SplineSet
568 748 m 1
 734.925 713.314 769.101 655.658 816 590 c 1xe4
 819 481 773 394 688 372 c 1
 523 402 449 483 449 568 c 0
 449 660 494 724 568 748 c 1
1168 589 m 0
 1168 777 1059 880 864 953 c 1
 633 1041 535 1041 535 1138 c 0
 535 1169 556 1203 602 1212 c 1
 663 1234 729 1223 791 1188 c 1
 870 1188 988 1152 1033 1130 c 1
 1050 1130 1067 1130 1084 1131 c 1
 1084 1230 1078 1322 1067 1410 c 1
 981 1467 804 1502 665 1502 c 0
 341 1502 129 1337 129 1145 c 1
 129 1158 123 1169 107 1177 c 1xd4
 107 1041 158 943 299 864 c 1
 147 780 87 681 87 529 c 0
 87 295 262 228 491 142 c 0
 630 90 724 69 724 -24 c 0
 724 -85 687 -125 612 -135 c 0
 563 -141 514 -132 464 -113 c 1
 378 -104 263 -54 237 -22 c 1
 209 -23 180 -23 153 -23 c 1
 153 -120 159 -213 171 -302 c 1
 239 -358 457 -401 584 -401 c 0
 908 -401 1135 -250 1135 -21 c 0
 1135 55 1104 114 1017 164 c 1xe8
 1017 205 1005 241 962 260 c 1
 1109 345 1168 447 1168 589 c 0
EndSplineSet
EndChar

StartChar: semicolon
Encoding: 59 59 215
Width: 635
VWidth: 0
Flags: HW
LayerCount: 2
Fore
SplineSet
531 358 m 1
 174 358 l 1
 31 -293 l 1
 213 -279 l 1
 275 -179 337 -79 400 22 c 1
 531 358 l 1
495 608 m 1
 492 684 491 760 491 835 c 0
 491 878 491 921 492 964 c 1
 374 964 256 963 139 963 c 1
 142 884 143 811 143 735 c 0
 143 692 142 649 142 607 c 1
 260 607 378 608 495 608 c 1
EndSplineSet
EndChar

StartChar: seven
Encoding: 55 55 216
Width: 1244
VWidth: 0
Flags: W
DStem2: 148 0 573 0 0.459645 0.888103<195.349 1346.69>
LayerCount: 2
Fore
SplineSet
1174 1192 m 1
 1174 1479 l 1
 108 1479 l 1
 108 1119 l 1
 331 1119 l 1
 331 1145 331 1170 331 1196 c 1
 767 1196 l 1
 148 0 l 1
 573 0 l 1
 1174 1192 l 1
EndSplineSet
EndChar

StartChar: six
Encoding: 54 54 217
Width: 1244
VWidth: 0
Flags: W
HStem: -24 256.97<513.929 758.121> 696.394 262.489<577.618 898.544> 1220 258<804.897 990.334>
VStem: 87.432 357.767<306.783 645.596> 812 371<287.06 641.184>
LayerCount: 2
Fore
SplineSet
445.198782374 476.715310684 m 0
 445.198782374 602.585341125 451.530110949 696.393554688 633.439453125 696.393554688 c 0
 736.123535779 696.393554688 812 642.166444486 812 482 c 0
 812 328.947275483 784.243025161 232.969660681 625.498912047 232.969660681 c 0
 501.721596004 232.969660681 445.198782374 340.311046736 445.198782374 476.715310684 c 0
1183 495 m 0
 1183 801.099639169 1025.3457259 958.882845281 771.743012641 958.882845281 c 0
 676.637307527 958.882845281 589.794038638 927.055661396 520 886 c 1
 586.451480063 1124.27893732 768.984561908 1194.04258502 1047 1220 c 1
 987 1478 l 1
 394.910866864 1443.90062584 87.4319950343 1139.2237132 87.4319950343 557.067397638 c 0
 87.4319950343 186.33804003 302.205339097 -24 637 -24 c 0
 967 -24 1183 171 1183 495 c 0
EndSplineSet
EndChar

StartChar: six.alt
Encoding: 57345 57345 218
Width: 983
VWidth: 0
Flags: HW
HStem: -12 209<362.705 620.645> 762 184<359.79 623.307> 1262 208<362.705 624.544>
VStem: 78 209<270.742 420 539 688.258 1038 1188.08> 696 209<270.742 420 539 683.093>
LayerCount: 2
Fore
SplineSet
78 408 m 2
 78 139 276 -12 492 -12 c 0
 707 -12 905 139 905 408 c 2
 905 541 l 1
 913 823 750 946 565 946 c 0
 487 946 379 936 287 901 c 1
 287 1038 l 2
 287 1180 369 1262 492 1262 c 0
 584 1262 651 1219 682 1139 c 1
 897 1139 l 1
 860 1352 682 1470 492 1470 c 0
 276 1470 78 1319 78 1051 c 2
 78 408 l 2
287 539 m 2
 287 680 369 762 492 762 c 0
 614 762 696 680 696 539 c 2
 696 420 l 2
 696 279 614 197 492 197 c 0
 369 197 287 279 287 420 c 2
 287 539 l 2
EndSplineSet
EndChar

StartChar: slash
Encoding: 47 47 219
Width: 1126
VWidth: 0
Flags: HW
VStem: 131 285<-218 67> 672 287<1240 1527>
DStem2: 131 -218 416 -218 0.297122 0.95484<84.6798 1826.94>
LayerCount: 2
Fore
SplineSet
959 1527 m 1
 672 1527 l 1
 131 -218 l 1
 416 -218 l 1
 959 1527 l 1
EndSplineSet
EndChar

StartChar: sterling
Encoding: 163 163 221
Width: 1244
VWidth: 0
Flags: HW
HStem: -4 279<572.024 1138.47> 11 275<569 844.601>
VStem: 240 360<812.707 1144.62>
LayerCount: 2
Fore
SplineSet
1182 33 m 1xa0
 1135 300 l 1
 1042 282 942 275 850 275 c 0xa0
 760 275 656 284 569 286 c 1x60
 583 316 592 344 592 375 c 1
 631 444 652 524 645 604 c 1
 990 604 l 1
 990 809 l 1
 626 809 l 1
 612 874 600 955 600 1029 c 0
 600 1102 632 1151 680 1168 c 1
 726 1209 785 1219 842 1195 c 1
 914 1183 990 1141 1039 1086 c 1
 1050 1086 1061 1090 1076 1096 c 1
 1108 1096 l 1
 1108 1201 1103 1302 1092 1399 c 1
 1054 1436 986 1470 879 1489 c 0
 810.842 1501.03 721.673 1505.96 644 1496 c 1
 411 1471 240 1314 240 1079 c 0
 240 990 247 902 267 809 c 1
 117 809 l 1
 117 604 l 1
 285 604 l 1
 294 549 301 497 297 456 c 1
 292 417 280 376 263 341 c 1
 224 310 173 286 108 263 c 1
 108 -4 l 1xa0
 181 6 253 11 321 11 c 0x60
 483 11 695 -4 852 -4 c 0
 958 -4 1074 4 1182 33 c 1xa0
EndSplineSet
EndChar

StartChar: summation
Encoding: 8721 8721 222
Width: 1254
VWidth: 0
Flags: HW
DStem2: 52 -207 442 -130 0.610327 0.792149<299.023 940.479> 477 1201 75 1261 0.606143 -0.795356<0 617.636>
LayerCount: 2
Fore
SplineSet
1209 -371 m 1
 1209 -132 l 1
 442 -132 l 1
 442 -131 442 -131 442 -130 c 2
 959 556 l 1
 798.062 770.729 641.798 990.131 477 1201 c 1
 1176 1201 l 1
 1176 1433 l 1
 75 1433 l 1
 75 1261 l 1
 626 538 l 1
 52 -207 l 1
 52 -371 l 1
 1209 -371 l 1
EndSplineSet
EndChar

StartChar: t
Encoding: 116 116 223
Width: 882
VWidth: 0
Flags: W
HStem: -14 257.791<392.778 776.399> 860 236<18 148 508 779>
VStem: 148 360<271.35 860 1096 1369>
LayerCount: 2
Fore
SplineSet
148 348 m 2
 148 860 l 1
 18 860 l 1
 18 1096 l 1
 148 1096 l 1
 148 1369 l 1
 508 1442 l 1
 508 1096 l 1
 779 1096 l 1
 779 860 l 1
 508 860 l 1
 508 382 l 2
 508 271.213 575.249 243.791 656.2 243.791 c 0
 695.943 243.791 738.988 250.401 779 257 c 1
 779 6 l 1
 708 -8 642.004 -14 525 -14 c 0
 260.557 -14 148 96.9361 148 348 c 2
EndSplineSet
EndChar

StartChar: thorn
Encoding: 254 254 224
Width: 1063
VWidth: 0
Flags: HW
HStem: -12 209<449.364 684.472> 842 209<443.902 684.472>
VStem: 135 209<274.195 764.579> 756 209<273.279 767.91>
LayerCount: 2
Fore
SplineSet
135 -420 m 1
 344 -420 l 1
 344 111 l 1
 422 37 506 -12 612 -12 c 0
 739 -12 831 45 891 123 c 0
 948 197 965 264 965 518 c 0
 965 774 948 842 891 915 c 0
 831 993 739 1051 612 1051 c 0
 506 1051 410 1001 344 930 c 1
 344 1458 l 1
 135 1458 l 1
 135 -420 l 1
549 197 m 0
 354 197 344 369 344 518 c 0
 344 670 354 842 549 842 c 0
 745 842 756 680 756 518 c 0
 756 358 745 197 549 197 c 0
EndSplineSet
EndChar

StartChar: three
Encoding: 51 51 225
Width: 1245
VWidth: 0
Flags: W
HStem: -24 290<321.333 691.974> 663 229<464 689.636> 1214 289<337.06 685.856>
VStem: 746 375<948.194 1152.98> 795 379<349.666 605.438>
LayerCount: 2
Fore
SplineSet
1174 450 m 0xe8
 1174 637 1025 733 896 773 c 1
 907 782 916 791 923 801 c 1
 1032 846 1097 941 1118 1049 c 1
 1122 1080 1123 1112 1121 1143 c 0
 1107 1357 930 1503 576 1503 c 0
 399 1503 211 1440 116 1373 c 1
 103 1274 94 1171 92 1067 c 1
 189 1067 l 1
 276 1153 397 1214 521 1214 c 0
 606 1214 746 1182 746 1060 c 0xf0
 746 920 632 892 464 892 c 2
 402 892 l 1
 402 663 l 1
 542 663 l 2
 721 663 795 608 795 483 c 0
 795 298 627 263 495 266 c 0
 465 267 434 272 402 280 c 0
 314 304 226 353 166 410 c 1
 61 410 l 1
 66 301 76 196 90 97 c 1
 191 26 343 -24 572 -24 c 0
 956 -24 1174 170 1174 450 c 0xe8
EndSplineSet
EndChar

StartChar: three.superior
Encoding: 179 179 226
Width: 639
VWidth: 0
Flags: HW
HStem: 580 147<213.133 428.697> 971 135<299 420.998> 1323 147<220.241 421.062>
VStem: 16 172<1217 1288.83> 457 172<755.721 935.217 1141.54 1290.86>
LayerCount: 2
Fore
SplineSet
233 971 m 1
 309 971 l 2
 391 971 457 920 457 844 c 0
 457 772 399 727 322 727 c 0
 250 727 203 766 182 825 c 1
 10 825 l 1
 37 659 152 580 311 580 c 0
 502 580 629 686 629 848 c 0
 629 920 598 993 514 1040 c 1
 596 1087 618 1155 618 1221 c 0
 618 1348 508 1470 307 1470 c 0
 143 1470 27 1364 16 1217 c 1
 188 1217 l 1
 205 1288 262 1323 326 1323 c 0
 393 1323 446 1276 446 1219 c 0
 446 1149 389 1106 299 1106 c 2
 233 1106 l 1
 233 971 l 1
EndSplineSet
EndChar

StartChar: threequarters
Encoding: 190 190 227
Width: 1477
VWidth: 0
Flags: HW
HStem: 580 147<213.133 428.697> 971 135<299 420.998> 1323 147<220.241 421.062>
VStem: 16 172<1217 1288.83> 260 135<-35 100> 457 172<755.721 935.217 1141.54 1290.86> 1143 135<1358 1493>
DStem2: 260 -35 395 -35 0.500344 0.865827<67.5464 1764.79> 770 274 948 274 0.469588 0.882885<83.5867 675.059>
LayerCount: 2
Fore
SplineSet
260 -35 m 1
 395 -35 l 1
 1278 1493 l 1
 1143 1493 l 1
 260 -35 l 1
770 127 m 1
 1171 127 l 1
 1171 0 l 1
 1343 0 l 1
 1343 127 l 1
 1411 127 l 1
 1411 274 l 1
 1343 274 l 1
 1343 500 l 1
 1171 500 l 1
 1171 274 l 1
 948 274 l 1
 1260 870 l 1
 1087 870 l 1
 770 274 l 1
 770 127 l 1
233 971 m 1
 309 971 l 2
 391 971 457 920 457 844 c 0
 457 772 399 727 322 727 c 0
 250 727 203 766 182 825 c 1
 10 825 l 1
 37 659 152 580 311 580 c 0
 502 580 629 686 629 848 c 0
 629 920 598 993 514 1040 c 1
 596 1087 618 1155 618 1221 c 0
 618 1348 508 1470 307 1470 c 0
 143 1470 27 1364 16 1217 c 1
 188 1217 l 1
 205 1288 262 1323 326 1323 c 0
 393 1323 446 1276 446 1219 c 0
 446 1149 389 1106 299 1106 c 2
 233 1106 l 1
 233 971 l 1
EndSplineSet
EndChar

StartChar: tilde
Encoding: 732 732 228
Width: 893
VWidth: 0
Flags: HW
HStem: 1256 200<451.706 661.884>
VStem: 675 211<1468.17 1552>
LayerCount: 2
Fore
SplineSet
886 1552 m 1
 675 1552 l 1
 668 1484 641 1456 584 1456 c 0
 559 1456 511 1479 476 1491 c 0
 420 1511 364 1543 297 1543 c 0
 127 1543 20 1419 9 1247 c 1
 219 1247 l 1
 222 1299 232 1328 281 1332 c 1
 308 1342 337 1338 363 1327 c 1
 435.677 1308.16 506.387 1256 599 1256 c 0
 776 1256 870 1359 886 1552 c 1
EndSplineSet
EndChar

StartChar: trademark
Encoding: 8482 8482 229
Width: 1869
VWidth: 0
Flags: HW
DStem2: 1135 1479 1032 1308 0.385985 -0.922505<117.992 463.518> 1301 1046 1367 830 0.387796 0.921745<0 339.654>
LayerCount: 2
Fore
SplineSet
706 1314 m 1
 706 1479 l 1
 65 1479 l 1
 65 1314 l 1
 284 1314 l 1
 284 723 l 1
 486 723 l 1
 486 1314 l 1
 706 1314 l 1
1771 723 m 1
 1771 1479 l 1
 1473 1479 l 1
 1301 1046 l 1
 1135 1479 l 1
 823 1479 l 1
 823 723 l 1
 1013 723 l 1
 1013 1308 l 1
 1032 1308 l 1
 1232 830 l 1
 1367 830 l 1
 1566 1303 l 1
 1581 1303 l 1
 1581 723 l 1
 1771 723 l 1
EndSplineSet
EndChar

StartChar: two
Encoding: 50 50 230
Width: 1244
VWidth: 0
Flags: W
HStem: 1198.56 303.437<352.823 709.086>
VStem: 767.003 381.997<867.786 1141.29>
LayerCount: 2
Fore
SplineSet
1196 0 m 1
 1196 284 l 1
 612 284 l 1
 810 438 950.215193666 603.223634591 1060 774 c 0
 1121.21519367 869.223634591 1149 966 1149 1053 c 0
 1149 1327 958 1502 613 1502 c 0
 443.702702703 1502 224.243243243 1434 149 1368 c 1
 225 1101 l 1
 280.216494855 1131.19882433 439.412568082 1198.56306571 571.087549458 1198.56306571 c 0
 677.910037337 1198.56306571 766.55453452 1154.13673388 767.003209783 1009.96863425 c 0
 767.003209783 906.13685537 669.682921952 775.630075611 574 664 c 0
 459 531 309 392 125 235 c 1
 125 0 l 1
 1196 0 l 1
EndSplineSet
EndChar

StartChar: two.superior
Encoding: 178 178 231
Width: 639
VWidth: 0
Flags: HW
HStem: 1323 147<237.231 416.727>
VStem: 37 172<1196 1295.29> 436 172<1120.4 1302.23>
DStem2: 31 735 240 735 0.682994 0.730424<142.746 628.8>
LayerCount: 2
Fore
SplineSet
31 588 m 1
 608 588 l 1
 608 735 l 1
 240 735 l 1
 543 1055 l 2
 594 1110 608 1161 608 1219 c 0
 608 1358 489 1470 317 1470 c 0
 158 1470 37 1360 37 1196 c 1
 209 1196 l 1
 215 1274 254 1323 324 1323 c 0
 393 1323 436 1280 436 1219 c 0
 436 1180 420 1151 391 1120 c 2
 31 735 l 1
 31 588 l 1
EndSplineSet
EndChar

StartChar: u
Encoding: 117 117 232
Width: 1294
VWidth: 0
Flags: W
VStem: 119 362<325.199 544>
LayerCount: 2
Fore
SplineSet
119 1096 m 1
 119 361 l 2
 119 100 300 -24 477 -24 c 0
 609 -24 738 40 807 160 c 0
 808 160 808 160 809 160 c 1
 809 0 l 1
 1168 0 l 1
 1168 1096 l 1
 809 1096 l 1
 809 336.918 l 1
 765.703 291.425 713.115 270 653 270 c 0
 506 270 481 363 481 544 c 2
 481 1096 l 1
 119 1096 l 1
EndSplineSet
EndChar

StartChar: uacute
Encoding: 250 250 233
Width: 1294
VWidth: 0
Flags: HW
VStem: 119 362<325.199 544>
LayerCount: 2
Fore
SplineSet
952 1605 m 1
 601 1605 l 1
 387 1239 l 1
 636 1239 l 1
 952 1605 l 1
119 1096 m 1
 119 361 l 2
 119 100 300 -24 477 -24 c 0
 609 -24 738 40 807 160 c 0
 808 160 808 160 809 160 c 1
 809 0 l 1
 1168 0 l 1
 1168 1096 l 1
 809 1096 l 1
 809 469 l 1
 820 446 834 420 847 387 c 1
 798 307 732 270 653 270 c 0
 506 270 481 363 481 544 c 2
 481 1096 l 1
 119 1096 l 1
EndSplineSet
EndChar

StartChar: ucircumflex
Encoding: 251 251 234
Width: 1294
VWidth: 0
Flags: HW
HStem: 1430 175<517 768>
VStem: 119 362<325.199 544>
LayerCount: 2
Fore
SplineSet
1073 1241 m 1
 768 1605 l 1
 517 1605 l 1
 212 1241 l 1
 485 1241 l 1
 641 1430 l 1
 797 1241 l 1
 1073 1241 l 1
119 1096 m 1
 119 361 l 2
 119 100 300 -24 477 -24 c 0
 609 -24 738 40 807 160 c 0
 808 160 808 160 809 160 c 1
 809 0 l 1
 1168 0 l 1
 1168 1096 l 1
 809 1096 l 1
 809 469 l 1
 820 446 834 420 847 387 c 1
 798 307 732 270 653 270 c 0
 506 270 481 363 481 544 c 2
 481 1096 l 1
 119 1096 l 1
EndSplineSet
EndChar

StartChar: udieresis
Encoding: 252 252 235
Width: 1294
VWidth: 0
Flags: HW
VStem: 119 362<325.199 544>
LayerCount: 2
Fore
SplineSet
554 1246 m 1
 554 1339 554 1432 555 1525 c 1
 523 1524 492 1524 460 1524 c 2
 435 1524 l 2
 375 1524 317 1525 254 1527 c 1
 254 1246 l 1
 295 1249 333 1250 371 1250 c 0
 432 1250 491 1248 554 1246 c 1
1031 1246 m 1
 1031 1339 1031 1432 1031 1525 c 1
 980 1524 931 1524 878 1524 c 0
 831 1524 782 1525 731 1527 c 1
 731 1246 l 1
 782 1248 831 1250 879 1250 c 0
 929 1250 979 1248 1031 1246 c 1
119 1096 m 1
 119 361 l 2
 119 100 300 -24 477 -24 c 0
 609 -24 738 40 807 160 c 0
 808 160 808 160 809 160 c 1
 809 0 l 1
 1168 0 l 1
 1168 1096 l 1
 809 1096 l 1
 809 469 l 1
 820 446 834 420 847 387 c 1
 798 307 732 270 653 270 c 0
 506 270 481 363 481 544 c 2
 481 1096 l 1
 119 1096 l 1
EndSplineSet
EndChar

StartChar: ugrave
Encoding: 249 249 236
Width: 1294
VWidth: 0
Flags: HW
VStem: 119 362<325.199 544>
LayerCount: 2
Fore
SplineSet
899 1239 m 1
 683 1605 l 1
 333 1605 l 1
 650 1239 l 1
 899 1239 l 1
119 1096 m 1
 119 361 l 2
 119 100 300 -24 477 -24 c 0
 609 -24 738 40 807 160 c 0
 808 160 808 160 809 160 c 1
 809 0 l 1
 1168 0 l 1
 1168 1096 l 1
 809 1096 l 1
 809 469 l 1
 820 446 834 420 847 387 c 1
 798 307 732 270 653 270 c 0
 506 270 481 363 481 544 c 2
 481 1096 l 1
 119 1096 l 1
EndSplineSet
EndChar

StartChar: underscore
Encoding: 95 95 237
Width: 1267
VWidth: 0
Flags: HW
HStem: -325 188
LayerCount: 2
Fore
SplineSet
1281 -325 m 1
 1281 -137 l 1
 -14 -137 l 1
 -14 -325 l 1
 1281 -325 l 1
EndSplineSet
EndChar

StartChar: uni00AD
Encoding: 173 173 239
Width: 834
VWidth: 0
Flags: HW
HStem: 463 209
VStem: 109 616
LayerCount: 2
Fore
SplineSet
109 463 m 1
 725 463 l 1
 725 672 l 1
 109 672 l 1
 109 463 l 1
EndSplineSet
EndChar

StartChar: uni02C9
Encoding: 713 713 240
Width: 492
VWidth: 0
Flags: HW
HStem: 1243 135
VStem: -49 590
LayerCount: 2
Fore
SplineSet
-49 1243 m 1
 541 1243 l 1
 541 1378 l 1
 -49 1378 l 1
 -49 1243 l 1
EndSplineSet
EndChar

StartChar: uni03A9
Encoding: 937 937 241
Width: 1241
VWidth: 0
Flags: HW
HStem: 1274 178<484.112 760.388>
VStem: 96 203<498.811 1022.02> 938 203<505.446 1027.45>
LayerCount: 2
Fore
SplineSet
317 170 m 1
 72 170 l 1
 72 0 l 1
 518 0 l 1
 518 125 l 1
 408 213 299 446 299 745 c 0
 299 1049 422 1274 623 1274 c 0
 836 1274 938 1012 938 754 c 0
 938 430 831 215 719 125 c 1
 719 0 l 1
 1165 0 l 1
 1165 170 l 1
 918 170 l 1
 918 176 l 1
 1028 299 1141 526 1141 801 c 0
 1141 1120 961 1452 627 1452 c 0
 315 1452 96 1165 96 786 c 0
 96 518 203 307 317 176 c 1
 317 170 l 1
EndSplineSet
EndChar

StartChar: uni03BC
Encoding: 956 956 242
Width: 1100
VWidth: 0
Flags: HW
HStem: -12 209<420.259 658.775>
VStem: 135 209<274.776 420> 756 209<274.776 420>
LayerCount: 2
Fore
SplineSet
135 -420 m 1
 344 -420 l 1
 344 18 l 1
 389 -2 436 -12 483 -12 c 0
 592 -12 686 29 752 111 c 1
 756 111 l 1
 756 0 l 1
 965 0 l 1
 965 1038 l 1
 756 1038 l 1
 756 420 l 2
 756 279 668 197 551 197 c 0
 432 197 344 279 344 420 c 2
 344 1038 l 1
 135 1038 l 1
 135 -420 l 1
EndSplineSet
EndChar

StartChar: uni2215
Encoding: 8725 8725 243
Width: 342
VWidth: 0
Flags: HW
VStem: -338 135<-35 100> 545 135<1358 1493>
DStem2: -338 -35 -203 -35 0.500344 0.865827<67.5464 1764.79>
LayerCount: 2
Fore
SplineSet
-338 -35 m 1
 -203 -35 l 1
 680 1493 l 1
 545 1493 l 1
 -338 -35 l 1
EndSplineSet
EndChar

StartChar: uni2219
Encoding: 8729 8729 244
Width: 492
VWidth: 0
Flags: HW
HStem: 461 274<144.472 347.528>
VStem: 109 274<496.472 699.528>
LayerCount: 2
Fore
SplineSet
109 598 m 0
 109 522 170 461 246 461 c 0
 322 461 383 522 383 598 c 0
 383 674 322 735 246 735 c 0
 170 735 109 674 109 598 c 0
EndSplineSet
EndChar

StartChar: v
Encoding: 118 118 245
Width: 1127
VWidth: 0
Flags: HW
LayerCount: 2
Fore
SplineSet
1149 1096 m 1
 779 1096 l 1
 708.921 863.745 641.344 628.989 569 399 c 1
 569 399 568 399 567 399 c 2
 524 541 l 2
 467 727 413 909 355 1096 c 1
 -21 1096 l 1
 375 0 l 1
 751 0 l 1
 1149 1096 l 1
EndSplineSet
EndChar

StartChar: w
Encoding: 119 119 246
Width: 1818
VWidth: 0
Flags: W
DStem2: 1201 631 909 728 0.265249 -0.96418<-170.978 271.448>
LayerCount: 2
Fore
SplineSet
1810 1096 m 1
 1436 1096 l 1
 1299 486 l 1
 1289 448 1280 408 1272 369 c 1
 1255 413 1215 571 1201 631 c 1
 1158 786 1115 941 1072 1096 c 1
 764 1096 l 1
 698 883 631 670 573 455 c 1
 547 361 l 1
 546 361 l 1
 526 453 l 2
 513 515 499 577 486 640 c 2
 386 1096 l 1
 7 1096 l 1
 342 0 l 1
 718 0 l 1
 907 728 l 1
 907 728 908 728 909 728 c 2
 1096 0 l 1
 1472 0 l 1
 1810 1096 l 1
EndSplineSet
EndChar

StartChar: x
Encoding: 120 120 247
Width: 1206
VWidth: 0
Flags: HW
DStem2: 818 558 604 302 0.591491 -0.806311<79.8366 439.866>
LayerCount: 2
Fore
SplineSet
1219 0 m 1
 818 558 l 1
 1209 1096 l 1
 792 1096 l 1
 749 1028 705 960 662 892 c 2
 603 801 l 1
 583 834 560 867 540 899 c 2
 416 1096 l 1
 -3 1096 l 1
 391 552 l 1
 -13 0 l 1
 402 0 l 1
 442 60 482 119 523 179 c 0
 550.187 219.781 577.188 260.751 604 302 c 1
 666 208 l 2
 711 139 755 70 801 0 c 1
 1219 0 l 1
EndSplineSet
EndChar

StartChar: y
Encoding: 121 121 248
Width: 1122
VWidth: 0
Flags: W
HStem: -416 21G<223.896 568> 1076 20G<-25 358.479 769.935 1147>
VStem: -25 377<719 1096>
LayerCount: 2
Fore
SplineSet
191 -416 m 1
 256.792 -288.471 318.797 -146.347 379 25 c 1
 -25 1096 l 1
 352 1096 l 1
 571 420 l 1
 776 1096 l 1
 1147 1096 l 1
 706 -109 l 2
 655 -248 568.775 -417 568 -416 c 1
 191 -416 l 1
EndSplineSet
EndChar

StartChar: yacute
Encoding: 253 253 249
Width: 909
VWidth: 0
Flags: HW
HStem: -420 197<176 275.344>
DStem2: 207 1038 -14 1038 0.349578 -0.936907<0 767.128> 301 -133 477 -215 0.336003 0.941861<-97.901 183.036 470.603 1237.66>
LayerCount: 2
Fore
SplineSet
358 41 m 1
 301 -133 l 2
 281 -195 229 -223 176 -223 c 2
 115 -223 l 1
 115 -420 l 1
 184 -420 l 2
 311 -420 420 -375 477 -215 c 2
 924 1038 l 1
 702 1038 l 1
 457 311 l 1
 453 311 l 1
 207 1038 l 1
 -14 1038 l 1
 358 41 l 1
297 1171 m 1
 469 1171 l 1
 760 1470 l 1
 485 1470 l 1
 297 1171 l 1
EndSplineSet
EndChar

StartChar: ydieresis
Encoding: 255 255 250
Width: 1122
VWidth: 0
Flags: HW
VStem: -25 377<719 1096>
DStem2: 352 1096 -25 1096 0.352942 -0.935645<0 678.89> 527 561 379 25 0.352942 -0.935645<-553.568 147.455>
LayerCount: 2
Fore
SplineSet
474 1246 m 1
 474 1339 475 1432 476 1525 c 1
 444 1524 413 1524 381 1524 c 2
 356 1524 l 2
 296 1524 237 1525 175 1527 c 1
 175 1246 l 1
 216 1249 254 1250 292 1250 c 0
 352 1250 412 1248 474 1246 c 1
952 1246 m 1
 952 1339 952 1432 952 1525 c 1
 901 1524 851 1524 799 1524 c 0
 752 1524 703 1525 652 1527 c 1
 652 1246 l 1
 703 1248 751 1250 800 1250 c 0
 850 1250 899 1248 952 1246 c 1
233 -244 m 1
 191 -416 l 1
 303 -416 415 -416 528 -416 c 1
 621 -337 658 -252 706 -109 c 1
 1147 1096 l 1
 776 1096 l 1
 711 882 617 557 571 420 c 1
 527 561 l 1
 469 740 410 918 352 1096 c 1
 -25 1096 l 1
 379 25 l 1
 340 -86 321 -179 233 -244 c 1
EndSplineSet
EndChar

StartChar: yen
Encoding: 165 165 251
Width: 1244
VWidth: 0
Flags: HW
LayerCount: 2
Fore
SplineSet
1266 1479 m 1
 865 1479 l 1
 629 981 l 1
 391 1479 l 1
 -21 1479 l 1
 57 1335 137 1190 215 1046 c 1
 255 978 l 1
 253 919 l 2
 253 907 253 895 253 883 c 1
 484 710 l 1
 441 684 l 1
 441 650 l 1
 132 650 l 1
 132 445 l 1
 440 445 l 1
 440 0 l 1
 802 0 l 1
 802 445 l 1
 1110 445 l 1
 1110 650 l 1
 801 650 l 1
 773 702 l 1
 767 709 761 717 755 725 c 1
 990 897 l 1
 990 908 990 921 990 933 c 2
 988 990 l 1
 1028 1057 l 1
 1108 1197 1187 1338 1266 1479 c 1
EndSplineSet
EndChar

StartChar: z
Encoding: 122 122 252
Width: 1062
VWidth: 0
Flags: HW
DStem2: 46 234 488 272 0.655554 0.755148<318.451 793.222>
LayerCount: 2
Fore
SplineSet
1016 0 m 1
 1016 272 l 1
 488 272 l 1
 1009 865 l 1
 1009 1096 l 1
 74 1096 l 1
 74 833 l 1
 566 833 l 1
 46 234 l 1
 46 0 l 1
 1016 0 l 1
EndSplineSet
EndChar

StartChar: zcaron
Encoding: 382 382 253
Width: 909
VWidth: 0
Flags: HW
VStem: 121 196<1274 1470> 592 196<1274 1470>
DStem2: 68 166 322 197 0.602964 0.797768<177.884 862.406> 317 1470 121 1470 0.587367 -0.809321<0 223.497> 455 1294 571 1171 0.587367 0.809321<0 222.91>
LayerCount: 2
Fore
SplineSet
68 0 m 1
 842 0 l 1
 842 197 l 1
 322 197 l 1
 842 872 l 1
 842 1038 l 1
 96 1038 l 1
 96 854 l 1
 588 854 l 1
 68 166 l 1
 68 0 l 1
338 1171 m 1
 571 1171 l 1
 788 1470 l 1
 592 1470 l 1
 455 1294 l 1
 317 1470 l 1
 121 1470 l 1
 338 1171 l 1
EndSplineSet
EndChar

StartChar: zero
Encoding: 48 48 254
Width: 1442
VWidth: 0
Flags: W
HStem: -24 250<609.202 834.155> 1222 280<607.964 835.544>
VStem: 146 380<330.907 1119.62> 917 380<330.907 1119.62>
LayerCount: 2
Fore
SplineSet
722 226 m 0
 549 226 526 408 526 741 c 0
 526 1062 555 1222 722 1222 c 0
 888 1222 917 1062 917 741 c 0
 917 408 894 226 722 226 c 0
722 -24 m 0
 1035 -24 1229 127 1275 410 c 0
 1290 497 1297 595 1297 701 c 0
 1297 830 1290 952 1275 1065 c 1
 1230 1344 1038 1502 722 1502 c 0
 405 1502 213 1344 168 1065 c 0
 153 978 146 882 146 779 c 0
 146 647 152 523 168 410 c 1
 213 127 407 -24 722 -24 c 0
EndSplineSet
EndChar
